{"glyphs":{"0":{"ha":856,"x_min":90,"x_max":765,"o":"m 428 -10 q 238 58 313 -10 q 126 243 163 126 q 90 504 90 360 q 126 761 90 647 q 238 942 163 875 q 428 1010 313 1010 q 618 942 543 1010 q 729 761 693 875 q 765 504 765 647 q 729 243 765 360 q 618 58 693 126 q 428 -10 543 -10 m 428 79 q 566 137 513 79 q 644 291 619 194 q 669 504 669 388 q 656 664 669 589 q 613 797 642 739 q 538 889 583 856 q 428 922 492 922 q 318 889 364 922 q 243 797 272 856 q 200 664 214 739 q 186 504 186 589 q 211 291 186 388 q 290 137 236 194 q 428 79 343 79 z "},"1":{"ha":557,"x_min":22,"x_max":535,"o":"m 22 0 l 22 82 l 238 82 l 238 875 q 181 808 217 836 q 103 766 144 781 q 22 751 63 751 l 22 839 q 117 862 69 839 q 201 921 165 885 q 246 996 236 957 l 336 996 l 336 82 l 535 82 l 535 0 l 22 0 z "},"2":{"ha":794,"x_min":71,"x_max":733,"o":"m 71 0 l 71 69 q 143 122 107 94 q 213 176 179 149 q 275 229 246 204 q 326 275 304 254 q 417 363 369 313 q 508 472 465 414 q 578 592 551 529 q 606 715 606 654 q 556 865 606 806 q 399 925 507 925 q 292 901 339 925 q 216 827 246 876 q 175 703 186 778 l 83 717 q 137 874 94 808 q 247 974 179 939 q 401 1010 315 1010 q 562 974 494 1010 q 666 874 629 939 q 703 718 703 808 q 672 574 703 646 q 588 431 640 501 q 473 297 536 361 q 344 178 410 233 q 219 82 278 124 l 733 82 l 733 0 l 71 0 z "},"3":{"ha":813,"x_min":69,"x_max":725,"o":"m 408 -10 q 249 22 321 -10 q 129 113 176 53 q 69 257 82 172 l 163 271 q 206 168 172 213 q 292 99 240 124 q 407 74 344 74 q 536 102 488 74 q 608 177 585 131 q 631 278 631 224 q 549 433 631 386 q 322 481 467 481 l 292 481 l 292 563 l 324 563 q 538 609 467 563 q 610 747 610 656 q 558 876 610 826 q 407 926 506 926 q 295 902 344 926 q 216 833 246 878 q 179 731 186 789 l 88 749 q 189 939 103 868 q 410 1010 275 1010 q 572 976 506 1010 q 671 884 638 942 q 704 756 704 826 q 653 606 704 674 q 504 524 603 539 l 504 524 q 662 442 599 506 q 725 269 725 378 q 690 129 725 193 q 584 28 654 65 q 408 -10 514 -10 z "},"4":{"ha":851,"x_min":47,"x_max":817,"o":"m 572 0 l 572 238 l 47 238 l 47 310 l 553 996 l 668 996 l 668 319 l 817 319 l 817 238 l 668 238 l 668 0 l 572 0 m 160 319 l 576 319 l 576 889 l 160 319 z "},"5":{"ha":857,"x_min":104,"x_max":778,"o":"m 449 -10 q 276 26 347 -10 q 162 121 204 61 q 104 253 119 181 l 194 275 q 242 167 208 213 q 329 98 276 122 q 451 74 382 74 q 574 110 522 74 q 656 208 626 147 q 685 340 685 269 q 657 464 685 408 q 578 552 629 519 q 457 585 528 585 q 302 537 364 585 q 211 424 240 489 l 119 450 l 119 996 l 718 996 l 718 911 l 210 911 l 210 522 q 264 590 228 556 q 352 646 300 624 q 472 668 404 668 q 633 624 564 668 q 740 505 701 581 q 778 332 778 429 q 739 165 778 243 q 626 38 700 86 q 449 -10 553 -10 z "},"6":{"ha":874,"x_min":100,"x_max":789,"o":"m 458 -10 q 260 51 340 -10 q 140 219 181 113 q 100 463 100 325 q 124 695 100 593 q 195 867 149 797 q 308 974 242 938 q 456 1010 374 1010 q 596 976 532 1010 q 701 885 660 943 q 753 751 743 826 l 667 738 q 597 876 651 826 q 456 926 542 926 q 350 899 399 926 q 265 817 301 872 q 207 679 228 763 q 186 483 186 596 q 251 574 208 536 q 350 634 293 613 q 472 656 407 656 q 635 613 564 656 q 748 496 707 571 q 789 322 789 421 q 747 159 789 235 q 631 37 706 83 q 458 -10 557 -10 m 453 74 q 578 107 524 74 q 663 198 632 140 q 694 331 694 256 q 665 455 694 400 q 581 541 635 510 q 457 572 528 572 q 338 543 396 572 q 244 460 281 514 q 207 331 207 407 q 234 215 207 275 q 316 115 261 156 q 453 74 371 74 z "},"7":{"ha":740,"x_min":36,"x_max":686,"o":"m 199 0 l 592 914 l 36 914 l 36 996 l 686 996 l 686 922 l 297 0 l 199 0 z "},"8":{"ha":867,"x_min":81,"x_max":786,"o":"m 433 -10 q 246 26 325 -10 q 124 126 167 61 q 81 279 81 192 q 135 440 81 375 q 283 526 189 504 q 152 612 197 554 q 107 754 107 669 q 146 890 107 832 q 258 978 185 947 q 433 1010 332 1010 q 609 978 536 1010 q 721 890 682 947 q 760 754 760 832 q 715 611 760 671 q 583 526 669 551 q 732 440 678 504 q 786 279 786 375 q 743 126 786 192 q 622 26 700 61 q 433 -10 543 -10 m 433 72 q 622 127 553 72 q 690 282 690 182 q 619 435 690 386 q 433 483 549 483 q 247 435 319 483 q 175 282 175 386 q 244 127 175 182 q 433 72 313 72 m 433 558 q 601 607 538 558 q 665 743 665 656 q 603 882 665 835 q 433 929 542 929 q 263 883 325 929 q 201 743 201 838 q 265 607 201 656 q 433 558 329 558 z "},"9":{"ha":878,"x_min":96,"x_max":785,"o":"m 426 1010 q 625 948 546 1010 q 744 778 704 886 q 785 533 785 671 q 741 238 785 360 q 617 53 697 117 q 428 -10 538 -10 q 285 24 351 -10 q 176 115 219 57 q 121 249 132 174 l 207 263 q 283 124 222 174 q 428 74 343 74 q 534 100 485 74 q 620 181 583 126 q 678 317 657 235 q 699 513 699 400 q 635 423 676 461 q 540 363 593 385 q 426 340 486 342 q 260 382 335 339 q 140 501 185 425 q 96 675 96 578 q 138 840 96 764 q 253 963 179 915 q 426 1010 328 1010 m 432 926 q 308 892 363 926 q 222 799 253 858 q 190 664 190 739 q 220 540 190 594 q 304 455 250 486 q 428 424 358 424 q 547 451 490 424 q 641 533 604 479 q 678 661 678 586 q 663 749 678 703 q 617 836 647 796 q 540 901 586 876 q 432 926 494 926 z "},"A":{"ha":906,"x_min":44,"x_max":861,"o":"m 508 958 l 861 0 l 758 0 l 429 903 l 478 903 l 147 0 l 44 0 l 399 958 l 508 958 m 203 311 l 697 311 l 724 231 l 178 231 l 203 311 z "},"Á":{"ha":906,"x_min":44,"x_max":861,"o":"m 508 958 l 861 0 l 758 0 l 429 903 l 478 903 l 147 0 l 44 0 l 399 958 l 508 958 m 203 311 l 697 311 l 724 231 l 178 231 l 203 311 m 582 1269 l 582 1182 l 297 1017 l 297 1092 l 582 1269 z "},"Ă":{"ha":906,"x_min":44,"x_max":861,"o":"m 508 958 l 861 0 l 758 0 l 429 903 l 478 903 l 147 0 l 44 0 l 399 958 l 508 958 m 203 311 l 697 311 l 724 231 l 178 231 l 203 311 m 454 1042 q 314 1092 361 1042 q 267 1213 267 1143 l 267 1231 l 328 1231 q 358 1149 328 1178 q 454 1119 388 1119 q 551 1149 521 1119 q 581 1231 581 1178 l 643 1231 l 643 1213 q 596 1092 643 1143 q 454 1042 549 1042 z "},"Â":{"ha":906,"x_min":44,"x_max":861,"o":"m 508 958 l 861 0 l 758 0 l 429 903 l 478 903 l 147 0 l 44 0 l 399 958 l 508 958 m 203 311 l 697 311 l 724 231 l 178 231 l 203 311 m 640 997 l 454 1114 l 268 997 l 268 1076 l 454 1190 l 640 1076 l 640 997 z "},"Ä":{"ha":906,"x_min":44,"x_max":861,"o":"m 508 958 l 861 0 l 758 0 l 429 903 l 478 903 l 147 0 l 44 0 l 399 958 l 508 958 m 203 311 l 697 311 l 724 231 l 178 231 l 203 311 m 349 1065 q 303 1084 322 1065 q 285 1129 285 1103 q 303 1174 285 1156 q 349 1193 322 1193 q 394 1174 375 1193 q 413 1129 413 1156 q 394 1084 413 1103 q 349 1065 375 1065 m 563 1065 q 517 1084 536 1065 q 499 1129 499 1103 q 517 1174 499 1156 q 563 1193 536 1193 q 607 1174 589 1193 q 625 1129 625 1156 q 607 1084 625 1103 q 563 1065 589 1065 z "},"À":{"ha":906,"x_min":44,"x_max":861,"o":"m 508 958 l 861 0 l 758 0 l 429 903 l 478 903 l 147 0 l 44 0 l 399 958 l 508 958 m 203 311 l 697 311 l 724 231 l 178 231 l 203 311 m 297 1269 l 582 1092 l 582 1017 l 297 1182 l 297 1269 z "},"Ā":{"ha":906,"x_min":44,"x_max":861,"o":"m 508 958 l 861 0 l 758 0 l 429 903 l 478 903 l 147 0 l 44 0 l 399 958 l 508 958 m 203 311 l 697 311 l 724 231 l 178 231 l 203 311 m 218 1172 l 689 1172 l 689 1097 l 218 1097 l 218 1172 z "},"Ą":{"ha":906,"x_min":44,"x_max":867,"o":"m 835 53 l 861 0 l 779 -40 q 710 -89 729 -64 q 692 -142 692 -114 q 715 -194 692 -176 q 776 -212 739 -212 q 867 -193 819 -212 l 867 -261 q 818 -274 844 -269 q 767 -279 792 -279 q 690 -267 726 -279 q 632 -226 654 -254 q 610 -151 610 -197 q 624 -90 610 -119 q 672 -34 639 -61 q 760 18 704 -7 l 835 53 m 508 958 l 861 0 l 758 0 l 429 903 l 478 903 l 147 0 l 44 0 l 399 958 l 508 958 m 203 311 l 697 311 l 724 231 l 178 231 l 203 311 z "},"Å":{"ha":906,"x_min":44,"x_max":861,"o":"m 508 958 l 861 0 l 758 0 l 429 903 l 478 903 l 147 0 l 44 0 l 399 958 l 508 958 m 203 311 l 697 311 l 724 231 l 178 231 l 203 311 m 596 1186 q 555 1085 596 1122 q 454 1047 514 1047 q 355 1085 397 1047 q 313 1186 313 1122 q 355 1288 313 1251 q 454 1325 397 1325 q 555 1288 514 1325 q 596 1186 596 1251 m 536 1186 q 513 1249 536 1226 q 454 1271 489 1271 q 397 1249 421 1271 q 374 1186 374 1226 q 397 1124 374 1147 q 454 1101 421 1101 q 513 1124 489 1101 q 536 1186 536 1147 z "},"Ã":{"ha":906,"x_min":44,"x_max":861,"o":"m 508 958 l 861 0 l 758 0 l 429 903 l 478 903 l 147 0 l 44 0 l 399 958 l 508 958 m 203 311 l 697 311 l 724 231 l 178 231 l 203 311 m 544 1039 q 484 1056 508 1039 q 439 1088 460 1072 q 389 1104 418 1104 q 351 1089 367 1104 q 331 1042 335 1074 l 271 1042 q 312 1138 279 1106 q 393 1171 344 1171 q 453 1155 429 1171 q 498 1122 476 1139 q 549 1106 519 1106 q 589 1122 572 1106 q 610 1168 606 1138 l 668 1168 q 628 1073 663 1107 q 544 1039 593 1039 z "},"Æ":{"ha":1225,"x_min":15,"x_max":1143,"o":"m 15 0 l 579 958 l 1143 958 l 1143 881 l 733 881 l 733 521 l 1101 521 l 1101 443 l 733 443 l 733 78 l 1143 78 l 1143 0 l 636 0 l 636 875 l 122 0 l 15 0 m 201 231 l 242 308 l 681 308 l 681 231 l 201 231 z "},"Ǽ":{"ha":1225,"x_min":15,"x_max":1143,"o":"m 15 0 l 579 958 l 1143 958 l 1143 881 l 733 881 l 733 521 l 1101 521 l 1101 443 l 733 443 l 733 78 l 1143 78 l 1143 0 l 636 0 l 636 875 l 122 0 l 15 0 m 201 231 l 242 308 l 681 308 l 681 231 l 201 231 m 992 1269 l 992 1182 l 707 1017 l 707 1092 l 992 1269 z "},"B":{"ha":829,"x_min":111,"x_max":761,"o":"m 111 0 l 111 958 l 438 958 q 607 926 540 958 q 706 840 674 894 q 739 718 739 786 q 706 594 739 643 q 622 519 674 544 q 513 486 569 493 l 531 500 q 645 466 593 499 q 729 379 697 433 q 761 257 761 325 q 725 126 761 185 q 619 34 689 68 q 447 0 550 0 l 111 0 m 208 82 l 440 82 q 605 131 546 82 q 664 267 664 179 q 602 405 664 354 q 436 456 540 456 l 208 456 l 208 82 m 208 536 l 435 536 q 587 582 533 536 q 640 708 640 628 q 588 831 640 786 q 431 876 536 876 l 208 876 l 208 536 z "},"C":{"ha":1071,"x_min":67,"x_max":989,"o":"m 542 -10 q 354 26 440 -10 q 203 128 268 63 q 103 283 139 193 q 67 479 67 372 q 103 676 67 586 q 203 831 139 765 q 354 932 268 896 q 542 968 440 968 q 736 933 647 968 q 890 828 825 897 q 986 658 954 758 l 892 629 q 761 815 849 749 q 542 882 674 882 q 351 833 436 882 q 216 693 265 783 q 167 479 167 603 q 216 266 167 357 q 351 126 265 175 q 542 76 436 76 q 756 137 665 76 q 894 310 847 197 l 989 289 q 890 129 954 196 q 738 26 826 63 q 542 -10 650 -10 z "},"Ć":{"ha":1071,"x_min":67,"x_max":989,"o":"m 685 1275 l 685 1188 l 400 1022 l 400 1097 l 685 1275 m 542 -10 q 354 26 440 -10 q 203 128 268 63 q 103 283 139 193 q 67 479 67 372 q 103 676 67 586 q 203 831 139 765 q 354 932 268 896 q 542 968 440 968 q 736 933 647 968 q 890 828 825 897 q 986 658 954 758 l 892 629 q 761 816 849 749 q 542 883 674 883 q 351 834 436 883 q 216 694 265 785 q 167 479 167 603 q 216 266 167 357 q 351 126 265 175 q 542 76 436 76 q 756 137 665 76 q 894 310 847 197 l 989 289 q 890 129 954 196 q 738 26 826 63 q 542 -10 650 -10 z "},"Č":{"ha":1071,"x_min":67,"x_max":989,"o":"m 743 1235 l 743 1157 l 557 1043 l 371 1157 l 371 1235 l 557 1119 l 743 1235 m 542 -10 q 354 26 440 -10 q 203 128 268 63 q 103 283 139 193 q 67 479 67 372 q 103 676 67 586 q 203 831 139 765 q 354 932 268 896 q 542 968 440 968 q 736 933 647 968 q 890 828 825 897 q 986 658 954 758 l 892 629 q 761 816 849 749 q 542 883 674 883 q 351 834 436 883 q 216 694 265 785 q 167 479 167 603 q 216 266 167 357 q 351 126 265 175 q 542 76 436 76 q 756 137 665 76 q 894 310 847 197 l 989 289 q 890 129 954 196 q 738 26 826 63 q 542 -10 650 -10 z "},"Ç":{"ha":1071,"x_min":67,"x_max":989,"o":"m 583 -93 q 678 -106 638 -92 q 740 -150 718 -121 q 761 -222 761 -179 q 741 -294 761 -264 q 684 -342 721 -325 q 599 -358 647 -358 l 460 -358 l 460 -293 l 579 -293 q 656 -275 632 -293 q 679 -222 679 -257 q 656 -173 679 -190 q 579 -156 632 -156 l 515 -156 l 515 10 l 583 10 l 583 -93 m 542 -10 q 354 26 440 -10 q 203 128 268 63 q 103 283 139 193 q 67 479 67 372 q 103 676 67 586 q 203 831 139 765 q 354 932 268 896 q 542 968 440 968 q 736 933 647 968 q 890 828 825 897 q 986 658 954 758 l 892 629 q 761 816 849 749 q 542 883 674 883 q 351 834 436 883 q 216 694 265 785 q 167 479 167 603 q 216 266 167 357 q 351 126 265 175 q 542 76 436 76 q 756 137 665 76 q 894 310 847 197 l 989 289 q 890 129 954 196 q 738 26 826 63 q 542 -10 650 -10 z "},"Ċ":{"ha":1071,"x_min":67,"x_max":989,"o":"m 542 -10 q 354 26 440 -10 q 203 128 268 63 q 103 283 139 193 q 67 479 67 372 q 103 676 67 586 q 203 831 139 765 q 354 932 268 896 q 542 968 440 968 q 736 933 647 968 q 890 828 825 897 q 986 658 954 758 l 892 629 q 761 816 849 749 q 542 883 674 883 q 351 834 436 883 q 216 694 265 785 q 167 479 167 603 q 216 266 167 357 q 351 126 265 175 q 542 76 436 76 q 756 137 665 76 q 894 310 847 197 l 989 289 q 890 129 954 196 q 738 26 826 63 q 542 -10 650 -10 m 557 1058 q 512 1077 531 1058 q 493 1122 493 1096 q 512 1167 493 1149 q 557 1186 531 1186 q 602 1167 583 1186 q 621 1122 621 1149 q 602 1077 621 1096 q 557 1058 583 1058 z "},"D":{"ha":981,"x_min":111,"x_max":913,"o":"m 111 0 l 111 958 l 399 958 q 676 900 561 958 q 851 734 790 842 q 913 478 913 626 q 851 221 913 328 q 676 57 790 114 q 399 0 561 0 l 111 0 m 208 81 l 399 81 q 710 185 606 81 q 814 478 814 290 q 710 769 814 661 q 399 878 606 878 l 208 878 l 208 81 z "},"Ď":{"ha":981,"x_min":111,"x_max":913,"o":"m 111 0 l 111 958 l 399 958 q 676 900 561 958 q 851 734 790 842 q 913 478 913 626 q 851 221 913 328 q 676 57 790 114 q 399 0 561 0 l 111 0 m 208 81 l 399 81 q 710 185 606 81 q 814 478 814 290 q 710 769 814 661 q 399 878 606 878 l 208 878 l 208 81 m 669 1229 l 669 1151 l 483 1038 l 297 1151 l 297 1229 l 483 1114 l 669 1229 z "},"Đ":{"ha":979,"x_min":13,"x_max":913,"o":"m 111 0 l 111 958 l 399 958 q 676 900 561 958 q 851 734 790 842 q 913 478 913 626 q 851 221 913 328 q 676 57 790 114 q 399 0 561 0 l 111 0 m 13 439 l 13 529 l 526 529 l 526 439 l 13 439 m 208 81 l 399 81 q 710 185 606 81 q 814 478 814 290 q 710 769 814 661 q 399 878 606 878 l 208 878 l 208 81 z "},"Ð":{"ha":979,"x_min":13,"x_max":913,"o":"m 111 0 l 111 958 l 399 958 q 676 900 561 958 q 851 734 790 842 q 913 478 913 626 q 851 221 913 328 q 676 57 790 114 q 399 0 561 0 l 111 0 m 13 439 l 13 529 l 526 529 l 526 439 l 13 439 m 208 81 l 399 81 q 710 185 606 81 q 814 478 814 290 q 710 769 814 661 q 399 878 606 878 l 208 878 l 208 81 z "},"E":{"ha":699,"x_min":111,"x_max":618,"o":"m 618 878 l 208 878 l 208 522 l 576 522 l 576 442 l 208 442 l 208 81 l 618 81 l 618 0 l 111 0 l 111 958 l 618 958 l 618 878 z "},"É":{"ha":699,"x_min":111,"x_max":618,"o":"m 618 878 l 208 878 l 208 522 l 576 522 l 576 442 l 208 442 l 208 81 l 618 81 l 618 0 l 111 0 l 111 958 l 618 958 l 618 878 m 493 1269 l 493 1182 l 208 1017 l 208 1092 l 493 1269 z "},"Ĕ":{"ha":699,"x_min":111,"x_max":618,"o":"m 618 878 l 208 878 l 208 522 l 576 522 l 576 442 l 208 442 l 208 81 l 618 81 l 618 0 l 111 0 l 111 958 l 618 958 l 618 878 m 365 1042 q 225 1092 272 1042 q 178 1213 178 1143 l 178 1231 l 239 1231 q 269 1149 239 1178 q 365 1119 299 1119 q 462 1149 432 1119 q 492 1231 492 1178 l 554 1231 l 554 1213 q 507 1092 554 1143 q 365 1042 460 1042 z "},"Ě":{"ha":699,"x_min":111,"x_max":618,"o":"m 618 878 l 208 878 l 208 522 l 576 522 l 576 442 l 208 442 l 208 81 l 618 81 l 618 0 l 111 0 l 111 958 l 618 958 l 618 878 m 551 1229 l 551 1151 l 365 1038 l 179 1151 l 179 1229 l 365 1114 l 551 1229 z "},"Ê":{"ha":699,"x_min":111,"x_max":618,"o":"m 618 878 l 208 878 l 208 522 l 576 522 l 576 442 l 208 442 l 208 81 l 618 81 l 618 0 l 111 0 l 111 958 l 618 958 l 618 878 m 551 997 l 365 1114 l 179 997 l 179 1076 l 365 1190 l 551 1076 l 551 997 z "},"Ë":{"ha":699,"x_min":111,"x_max":618,"o":"m 618 878 l 208 878 l 208 522 l 576 522 l 576 442 l 208 442 l 208 81 l 618 81 l 618 0 l 111 0 l 111 958 l 618 958 l 618 878 m 260 1065 q 215 1084 233 1065 q 196 1129 196 1103 q 215 1174 196 1156 q 260 1193 233 1193 q 305 1174 286 1193 q 324 1129 324 1156 q 305 1084 324 1103 q 260 1065 286 1065 m 474 1065 q 428 1084 447 1065 q 410 1129 410 1103 q 428 1174 410 1156 q 474 1193 447 1193 q 518 1174 500 1193 q 536 1129 536 1156 q 518 1084 536 1103 q 474 1065 500 1065 z "},"Ė":{"ha":699,"x_min":111,"x_max":618,"o":"m 618 878 l 208 878 l 208 522 l 576 522 l 576 442 l 208 442 l 208 81 l 618 81 l 618 0 l 111 0 l 111 958 l 618 958 l 618 878 m 365 1022 q 320 1041 339 1022 q 301 1086 301 1060 q 320 1131 301 1113 q 365 1150 339 1150 q 410 1131 392 1150 q 429 1086 429 1113 q 410 1041 429 1060 q 365 1022 392 1022 z "},"È":{"ha":699,"x_min":111,"x_max":618,"o":"m 618 878 l 208 878 l 208 522 l 576 522 l 576 442 l 208 442 l 208 81 l 618 81 l 618 0 l 111 0 l 111 958 l 618 958 l 618 878 m 208 1269 l 493 1092 l 493 1017 l 208 1182 l 208 1269 z "},"Ē":{"ha":699,"x_min":111,"x_max":618,"o":"m 618 878 l 208 878 l 208 522 l 576 522 l 576 442 l 208 442 l 208 81 l 618 81 l 618 0 l 111 0 l 111 958 l 618 958 l 618 878 m 129 1172 l 600 1172 l 600 1097 l 129 1097 l 129 1172 z "},"Ę":{"ha":699,"x_min":111,"x_max":622,"o":"m 618 878 l 208 878 l 208 522 l 576 522 l 576 442 l 208 442 l 208 81 l 618 81 l 618 0 l 111 0 l 111 958 l 618 958 l 618 878 m 592 53 l 618 0 l 535 -40 q 467 -89 486 -64 q 447 -142 447 -114 q 471 -194 447 -176 q 533 -212 494 -212 q 622 -193 575 -212 l 622 -261 q 574 -274 600 -269 q 522 -279 547 -279 q 447 -267 483 -279 q 388 -226 411 -254 q 365 -151 365 -197 q 380 -90 365 -119 q 428 -34 394 -61 q 515 18 461 -7 l 592 53 z "},"Ẽ":{"ha":699,"x_min":111,"x_max":618,"o":"m 618 878 l 208 878 l 208 522 l 576 522 l 576 442 l 208 442 l 208 81 l 618 81 l 618 0 l 111 0 l 111 958 l 618 958 l 618 878 m 456 1039 q 395 1056 419 1039 q 350 1088 371 1072 q 300 1104 329 1104 q 262 1089 278 1104 q 242 1042 246 1074 l 182 1042 q 223 1138 190 1106 q 304 1171 256 1171 q 364 1155 340 1171 q 409 1122 388 1139 q 460 1106 431 1106 q 500 1122 483 1106 q 521 1168 517 1138 l 579 1168 q 539 1073 574 1107 q 456 1039 504 1039 z "},"F":{"ha":685,"x_min":111,"x_max":636,"o":"m 111 958 l 636 958 l 636 878 l 208 878 l 208 522 l 569 522 l 569 442 l 208 442 l 208 0 l 111 0 l 111 958 z "},"G":{"ha":1074,"x_min":67,"x_max":1007,"o":"m 882 650 q 842 723 869 683 q 772 799 814 763 q 673 858 729 835 q 547 882 617 882 q 353 833 440 882 q 217 693 267 783 q 167 479 167 603 q 217 267 167 357 q 355 126 268 176 q 547 76 442 76 q 685 110 624 76 q 790 196 746 143 q 859 310 833 249 q 890 429 885 372 l 508 429 l 508 511 l 1007 511 l 1007 0 l 915 0 l 915 346 l 931 340 q 904 264 922 308 q 856 172 886 219 q 781 83 825 124 q 677 16 736 42 q 542 -10 618 -10 q 354 26 440 -10 q 203 128 268 63 q 103 283 139 193 q 67 479 67 372 q 101 676 67 586 q 199 831 136 765 q 351 932 263 896 q 547 968 439 968 q 808 894 693 968 q 978 685 922 819 l 882 650 z "},"Ğ":{"ha":1074,"x_min":67,"x_max":1007,"o":"m 882 650 q 842 723 869 683 q 772 799 814 763 q 673 858 729 835 q 547 882 617 882 q 353 833 440 882 q 217 693 267 783 q 167 479 167 603 q 217 267 167 357 q 355 126 268 176 q 547 76 442 76 q 685 110 624 76 q 790 196 746 143 q 859 310 833 249 q 890 429 885 372 l 508 429 l 508 511 l 1007 511 l 1007 0 l 915 0 l 915 346 l 931 340 q 904 264 922 308 q 856 172 886 219 q 781 83 825 124 q 677 16 736 42 q 542 -10 618 -10 q 354 26 440 -10 q 203 128 268 63 q 103 283 139 193 q 67 479 67 372 q 101 676 67 586 q 199 831 136 765 q 351 932 263 896 q 547 968 439 968 q 808 894 693 968 q 978 685 922 819 l 882 650 m 553 1042 q 413 1092 460 1042 q 365 1213 365 1143 l 365 1231 l 426 1231 q 456 1149 426 1178 q 553 1119 486 1119 q 649 1149 619 1119 q 679 1231 679 1178 l 742 1231 l 742 1213 q 694 1092 742 1143 q 553 1042 647 1042 z "},"Ģ":{"ha":1074,"x_min":67,"x_max":1007,"o":"m 478 -314 l 478 -258 q 524 -251 503 -260 q 560 -225 546 -242 q 576 -189 574 -208 q 543 -199 563 -199 q 498 -184 517 -199 q 479 -139 479 -169 q 501 -90 479 -110 q 553 -71 522 -71 q 594 -85 576 -71 q 621 -120 611 -99 q 631 -164 631 -142 q 609 -246 631 -211 q 553 -299 588 -281 q 478 -314 518 -317 m 882 650 q 842 723 869 683 q 772 799 814 763 q 673 858 729 835 q 547 882 617 882 q 353 833 440 882 q 217 693 267 783 q 167 479 167 603 q 217 267 167 357 q 355 126 268 176 q 547 76 442 76 q 685 110 624 76 q 790 196 746 143 q 859 310 833 249 q 890 429 885 372 l 508 429 l 508 511 l 1007 511 l 1007 0 l 915 0 l 915 346 l 931 340 q 904 264 922 308 q 856 172 886 219 q 781 83 825 124 q 677 16 736 42 q 542 -10 618 -10 q 354 26 440 -10 q 203 128 268 63 q 103 283 139 193 q 67 479 67 372 q 101 676 67 586 q 199 831 136 765 q 351 932 263 896 q 547 968 439 968 q 808 894 693 968 q 978 685 922 819 l 882 650 z "},"Ġ":{"ha":1074,"x_min":67,"x_max":1007,"o":"m 882 650 q 842 723 869 683 q 772 799 814 763 q 673 858 729 835 q 547 882 617 882 q 353 833 440 882 q 217 693 267 783 q 167 479 167 603 q 217 267 167 357 q 355 126 268 176 q 547 76 442 76 q 685 110 624 76 q 790 196 746 143 q 859 310 833 249 q 890 429 885 372 l 508 429 l 508 511 l 1007 511 l 1007 0 l 915 0 l 915 346 l 931 340 q 904 264 922 308 q 856 172 886 219 q 781 83 825 124 q 677 16 736 42 q 542 -10 618 -10 q 354 26 440 -10 q 203 128 268 63 q 103 283 139 193 q 67 479 67 372 q 101 676 67 586 q 199 831 136 765 q 351 932 263 896 q 547 968 439 968 q 808 894 693 968 q 978 685 922 819 l 882 650 m 553 1022 q 508 1041 526 1022 q 489 1086 489 1060 q 508 1131 489 1113 q 553 1150 526 1150 q 598 1131 579 1150 q 617 1086 617 1113 q 598 1041 617 1060 q 553 1022 579 1022 z "},"H":{"ha":943,"x_min":111,"x_max":832,"o":"m 111 958 l 208 958 l 208 0 l 111 0 l 111 958 m 735 958 l 832 958 l 832 0 l 735 0 l 735 958 m 186 529 l 763 529 l 763 449 l 186 449 l 186 529 z "},"Ħ":{"ha":971,"x_min":56,"x_max":915,"o":"m 125 958 l 222 958 l 222 0 l 125 0 l 125 958 m 749 958 l 846 958 l 846 0 l 749 0 l 749 958 m 200 529 l 776 529 l 776 449 l 200 449 l 200 529 m 56 839 l 915 839 l 915 758 l 56 758 l 56 839 z "},"I":{"ha":463,"x_min":83,"x_max":379,"o":"m 83 0 l 83 81 l 183 81 l 183 878 l 83 878 l 83 958 l 379 958 l 379 878 l 281 878 l 281 81 l 379 81 l 379 0 l 83 0 z "},"Í":{"ha":463,"x_min":75,"x_max":379,"o":"m 83 0 l 83 81 l 183 81 l 183 878 l 83 878 l 83 958 l 379 958 l 379 878 l 281 878 l 281 81 l 379 81 l 379 0 l 83 0 m 360 1269 l 360 1182 l 75 1017 l 75 1092 l 360 1269 z "},"Ĭ":{"ha":463,"x_min":44,"x_max":421,"o":"m 83 0 l 83 81 l 183 81 l 183 878 l 83 878 l 83 958 l 379 958 l 379 878 l 281 878 l 281 81 l 379 81 l 379 0 l 83 0 m 232 1042 q 92 1092 139 1042 q 44 1213 44 1143 l 44 1231 l 106 1231 q 135 1149 106 1178 q 232 1119 165 1119 q 328 1149 299 1119 q 358 1231 358 1178 l 421 1231 l 421 1213 q 374 1092 421 1143 q 232 1042 326 1042 z "},"Î":{"ha":463,"x_min":46,"x_max":418,"o":"m 83 0 l 83 81 l 183 81 l 183 878 l 83 878 l 83 958 l 379 958 l 379 878 l 281 878 l 281 81 l 379 81 l 379 0 l 83 0 m 418 997 l 232 1114 l 46 997 l 46 1076 l 232 1190 l 418 1076 l 418 997 z "},"Ï":{"ha":463,"x_min":63,"x_max":403,"o":"m 83 0 l 83 81 l 183 81 l 183 878 l 83 878 l 83 958 l 379 958 l 379 878 l 281 878 l 281 81 l 379 81 l 379 0 l 83 0 m 126 1065 q 81 1084 100 1065 q 63 1129 63 1103 q 81 1174 63 1156 q 126 1193 100 1193 q 172 1174 153 1193 q 190 1129 190 1156 q 172 1084 190 1103 q 126 1065 153 1065 m 340 1065 q 295 1084 314 1065 q 276 1129 276 1103 q 295 1174 276 1156 q 340 1193 314 1193 q 385 1174 367 1193 q 403 1129 403 1156 q 385 1084 403 1103 q 340 1065 367 1065 z "},"İ":{"ha":463,"x_min":83,"x_max":379,"o":"m 83 0 l 83 81 l 183 81 l 183 878 l 83 878 l 83 958 l 379 958 l 379 878 l 281 878 l 281 81 l 379 81 l 379 0 l 83 0 m 232 1022 q 187 1041 206 1022 q 168 1086 168 1060 q 187 1131 168 1113 q 232 1150 206 1150 q 277 1131 258 1150 q 296 1086 296 1113 q 277 1041 296 1060 q 232 1022 258 1022 z "},"Ì":{"ha":463,"x_min":75,"x_max":379,"o":"m 83 0 l 83 81 l 183 81 l 183 878 l 83 878 l 83 958 l 379 958 l 379 878 l 281 878 l 281 81 l 379 81 l 379 0 l 83 0 m 75 1269 l 360 1092 l 360 1017 l 75 1182 l 75 1269 z "},"Ī":{"ha":463,"x_min":-4,"x_max":467,"o":"m 83 0 l 83 81 l 183 81 l 183 878 l 83 878 l 83 958 l 379 958 l 379 878 l 281 878 l 281 81 l 379 81 l 379 0 l 83 0 m -4 1172 l 467 1172 l 467 1097 l -4 1097 l -4 1172 z "},"Į":{"ha":463,"x_min":28,"x_max":379,"o":"m 83 0 l 83 81 l 183 81 l 183 878 l 83 878 l 83 958 l 379 958 l 379 878 l 281 878 l 281 81 l 379 81 l 379 0 l 83 0 m 254 53 l 281 0 l 197 -40 q 129 -89 149 -64 q 110 -142 110 -114 q 133 -194 110 -176 q 196 -212 157 -212 q 285 -193 238 -212 l 285 -261 q 236 -274 263 -269 q 185 -279 210 -279 q 110 -267 146 -279 q 51 -226 74 -254 q 28 -151 28 -197 q 42 -90 28 -119 q 90 -34 57 -61 q 178 18 124 -7 l 254 53 z "},"Ĩ":{"ha":463,"x_min":49,"x_max":446,"o":"m 83 0 l 83 81 l 183 81 l 183 878 l 83 878 l 83 958 l 379 958 l 379 878 l 281 878 l 281 81 l 379 81 l 379 0 l 83 0 m 322 1039 q 262 1056 286 1039 q 217 1088 238 1072 q 167 1104 196 1104 q 128 1089 144 1104 q 108 1042 113 1074 l 49 1042 q 90 1138 57 1106 q 171 1171 122 1171 q 231 1155 207 1171 q 276 1122 254 1139 q 326 1106 297 1106 q 367 1122 350 1106 q 388 1168 383 1138 l 446 1168 q 406 1073 440 1107 q 322 1039 371 1039 z "},"J":{"ha":692,"x_min":51,"x_max":558,"o":"m 315 -10 q 194 17 244 -10 q 113 83 144 43 q 67 163 82 122 q 51 233 53 204 l 146 257 q 204 124 161 171 q 311 76 247 76 q 399 99 365 76 q 447 159 432 122 q 461 236 461 196 l 461 958 l 558 958 l 558 236 q 527 107 558 163 q 442 21 496 51 q 315 -10 388 -10 z "},"K":{"ha":810,"x_min":111,"x_max":778,"o":"m 111 0 l 111 958 l 208 958 l 208 533 q 441 597 351 540 q 578 748 531 654 q 640 958 625 842 l 743 958 q 705 803 733 879 q 631 664 676 728 q 525 556 585 600 q 394 494 465 511 q 583 409 500 475 q 717 239 665 343 q 778 0 768 135 l 675 0 q 609 248 668 151 q 447 394 550 344 q 208 450 344 443 l 208 0 l 111 0 z "},"Ķ":{"ha":810,"x_min":111,"x_max":778,"o":"m 344 -314 l 344 -258 q 391 -251 369 -260 q 426 -225 413 -242 q 443 -189 440 -208 q 410 -199 429 -199 q 365 -184 383 -199 q 346 -139 346 -169 q 367 -90 346 -110 q 419 -71 389 -71 q 460 -85 443 -71 q 488 -120 478 -99 q 497 -164 497 -142 q 476 -246 497 -211 q 419 -299 454 -281 q 344 -314 385 -317 m 111 0 l 111 958 l 208 958 l 208 533 q 441 597 351 540 q 578 748 531 654 q 640 958 625 842 l 743 958 q 705 803 733 879 q 631 664 676 728 q 525 556 585 600 q 394 494 465 511 q 583 409 500 475 q 717 239 665 343 q 778 0 768 135 l 675 0 q 609 248 668 151 q 447 394 550 344 q 208 450 344 443 l 208 0 l 111 0 z "},"L":{"ha":585,"x_min":111,"x_max":557,"o":"m 208 958 l 208 79 l 557 79 l 557 0 l 111 0 l 111 958 l 208 958 z "},"Ĺ":{"ha":585,"x_min":0,"x_max":557,"o":"m 208 958 l 208 79 l 557 79 l 557 0 l 111 0 l 111 958 l 208 958 m 285 1269 l 285 1182 l 0 1017 l 0 1092 l 285 1269 z "},"Ľ":{"ha":599,"x_min":111,"x_max":579,"o":"m 208 958 l 208 79 l 557 79 l 557 0 l 111 0 l 111 958 l 208 958 m 426 715 l 426 771 q 473 778 451 769 q 508 804 494 788 q 525 840 522 821 q 492 831 511 831 q 447 845 465 831 q 428 890 428 860 q 449 939 428 919 q 501 958 471 958 q 542 944 525 958 q 569 909 560 931 q 579 865 579 888 q 558 783 579 818 q 501 731 536 749 q 426 715 467 713 z "},"Ļ":{"ha":585,"x_min":111,"x_max":557,"o":"m 261 -314 l 261 -258 q 308 -251 286 -260 q 343 -225 329 -242 q 360 -189 357 -208 q 326 -199 346 -199 q 281 -184 300 -199 q 263 -139 263 -169 q 284 -90 263 -110 q 336 -71 306 -71 q 377 -85 360 -71 q 404 -120 394 -99 q 414 -164 414 -142 q 392 -246 414 -211 q 336 -299 371 -281 q 261 -314 301 -317 m 208 958 l 208 79 l 557 79 l 557 0 l 111 0 l 111 958 l 208 958 z "},"Ł":{"ha":597,"x_min":13,"x_max":578,"o":"m 13 478 l 403 631 l 403 554 l 13 401 l 13 478 m 229 958 l 229 76 l 578 76 l 578 0 l 132 0 l 132 958 l 229 958 z "},"M":{"ha":1169,"x_min":111,"x_max":1060,"o":"m 111 958 l 214 958 l 604 86 l 567 86 l 956 958 l 1060 958 l 1060 0 l 963 0 l 963 847 l 999 846 l 621 0 l 550 0 l 171 846 l 208 847 l 208 0 l 111 0 l 111 958 z "},"N":{"ha":953,"x_min":111,"x_max":843,"o":"m 843 958 l 843 0 l 746 0 l 208 804 l 208 0 l 111 0 l 111 958 l 208 958 l 746 156 l 746 958 l 843 958 z "},"Ń":{"ha":953,"x_min":111,"x_max":843,"o":"m 843 958 l 843 0 l 746 0 l 208 804 l 208 0 l 111 0 l 111 958 l 208 958 l 746 156 l 746 958 l 843 958 m 606 1269 l 606 1182 l 321 1017 l 321 1092 l 606 1269 z "},"Ň":{"ha":953,"x_min":111,"x_max":843,"o":"m 843 958 l 843 0 l 746 0 l 208 804 l 208 0 l 111 0 l 111 958 l 208 958 l 746 156 l 746 958 l 843 958 m 664 1229 l 664 1151 l 478 1038 l 292 1151 l 292 1229 l 478 1114 l 664 1229 z "},"Ņ":{"ha":953,"x_min":111,"x_max":843,"o":"m 406 -314 l 406 -258 q 452 -251 431 -260 q 488 -225 474 -242 q 504 -189 501 -208 q 471 -199 490 -199 q 426 -184 444 -199 q 407 -139 407 -169 q 428 -90 407 -110 q 481 -71 450 -71 q 522 -85 504 -71 q 549 -120 539 -99 q 558 -164 558 -142 q 537 -246 558 -211 q 481 -299 515 -281 q 406 -314 446 -317 m 843 958 l 843 0 l 746 0 l 208 804 l 208 0 l 111 0 l 111 958 l 208 958 l 746 156 l 746 958 l 843 958 z "},"Ñ":{"ha":953,"x_min":111,"x_max":843,"o":"m 843 958 l 843 0 l 746 0 l 208 804 l 208 0 l 111 0 l 111 958 l 208 958 l 746 156 l 746 958 l 843 958 m 568 1039 q 508 1056 532 1039 q 463 1088 483 1072 q 413 1104 442 1104 q 374 1089 390 1104 q 354 1042 358 1074 l 294 1042 q 335 1138 303 1106 q 417 1171 368 1171 q 476 1155 453 1171 q 522 1122 500 1139 q 572 1106 543 1106 q 613 1122 596 1106 q 633 1168 629 1138 l 692 1168 q 651 1073 686 1107 q 568 1039 617 1039 z "},"O":{"ha":1094,"x_min":67,"x_max":1028,"o":"m 547 -10 q 358 26 446 -10 q 205 126 271 61 q 103 280 139 190 q 67 479 67 369 q 103 675 67 586 q 205 830 139 764 q 358 932 271 896 q 547 968 446 968 q 738 932 650 968 q 890 830 825 896 q 992 675 956 764 q 1028 479 1028 586 q 992 280 1028 369 q 890 126 956 190 q 738 26 825 61 q 547 -10 650 -10 m 547 76 q 742 124 656 76 q 878 263 828 172 q 928 479 928 353 q 878 693 928 603 q 742 833 828 783 q 547 882 656 882 q 353 833 440 882 q 217 693 267 783 q 167 479 167 603 q 217 263 167 353 q 353 124 267 172 q 547 76 440 76 z "},"Ó":{"ha":1094,"x_min":67,"x_max":1028,"o":"m 547 -10 q 358 26 446 -10 q 205 126 271 61 q 103 280 139 190 q 67 479 67 369 q 103 675 67 586 q 205 830 139 764 q 358 932 271 896 q 547 968 446 968 q 738 932 650 968 q 890 830 825 896 q 992 675 956 764 q 1028 479 1028 586 q 992 280 1028 369 q 890 126 956 190 q 738 26 825 61 q 547 -10 650 -10 m 547 76 q 742 124 656 76 q 878 263 828 172 q 928 479 928 353 q 878 693 928 603 q 742 833 828 783 q 547 882 656 882 q 353 833 440 882 q 217 693 267 783 q 167 479 167 603 q 217 263 167 353 q 353 124 267 172 q 547 76 440 76 m 682 1269 l 682 1182 l 397 1017 l 397 1092 l 682 1269 z "},"Ŏ":{"ha":1094,"x_min":67,"x_max":1028,"o":"m 547 -10 q 358 26 446 -10 q 205 126 271 61 q 103 280 139 190 q 67 479 67 369 q 103 675 67 586 q 205 830 139 764 q 358 932 271 896 q 547 968 446 968 q 738 932 650 968 q 890 830 825 896 q 992 675 956 764 q 1028 479 1028 586 q 992 280 1028 369 q 890 126 956 190 q 738 26 825 61 q 547 -10 650 -10 m 547 76 q 742 124 656 76 q 878 263 828 172 q 928 479 928 353 q 878 693 928 603 q 742 833 828 783 q 547 882 656 882 q 353 833 440 882 q 217 693 267 783 q 167 479 167 603 q 217 263 167 353 q 353 124 267 172 q 547 76 440 76 m 554 1042 q 414 1092 461 1042 q 367 1213 367 1143 l 367 1231 l 428 1231 q 458 1149 428 1178 q 554 1119 488 1119 q 651 1149 621 1119 q 681 1231 681 1178 l 743 1231 l 743 1213 q 696 1092 743 1143 q 554 1042 649 1042 z "},"Ô":{"ha":1094,"x_min":67,"x_max":1028,"o":"m 547 -10 q 358 26 446 -10 q 205 126 271 61 q 103 280 139 190 q 67 479 67 369 q 103 675 67 586 q 205 830 139 764 q 358 932 271 896 q 547 968 446 968 q 738 932 650 968 q 890 830 825 896 q 992 675 956 764 q 1028 479 1028 586 q 992 280 1028 369 q 890 126 956 190 q 738 26 825 61 q 547 -10 650 -10 m 547 76 q 742 124 656 76 q 878 263 828 172 q 928 479 928 353 q 878 693 928 603 q 742 833 828 783 q 547 882 656 882 q 353 833 440 882 q 217 693 267 783 q 167 479 167 603 q 217 263 167 353 q 353 124 267 172 q 547 76 440 76 m 740 997 l 554 1114 l 368 997 l 368 1076 l 554 1190 l 740 1076 l 740 997 z "},"Ö":{"ha":1094,"x_min":67,"x_max":1028,"o":"m 547 -10 q 358 26 446 -10 q 205 126 271 61 q 103 280 139 190 q 67 479 67 369 q 103 675 67 586 q 205 830 139 764 q 358 932 271 896 q 547 968 446 968 q 738 932 650 968 q 890 830 825 896 q 992 675 956 764 q 1028 479 1028 586 q 992 280 1028 369 q 890 126 956 190 q 738 26 825 61 q 547 -10 650 -10 m 547 76 q 742 124 656 76 q 878 263 828 172 q 928 479 928 353 q 878 693 928 603 q 742 833 828 783 q 547 882 656 882 q 353 833 440 882 q 217 693 267 783 q 167 479 167 603 q 217 263 167 353 q 353 124 267 172 q 547 76 440 76 m 449 1065 q 403 1084 422 1065 q 385 1129 385 1103 q 403 1174 385 1156 q 449 1193 422 1193 q 494 1174 475 1193 q 513 1129 513 1156 q 494 1084 513 1103 q 449 1065 475 1065 m 663 1065 q 617 1084 636 1065 q 599 1129 599 1103 q 617 1174 599 1156 q 663 1193 636 1193 q 707 1174 689 1193 q 725 1129 725 1156 q 707 1084 725 1103 q 663 1065 689 1065 z "},"Ò":{"ha":1094,"x_min":67,"x_max":1028,"o":"m 547 -10 q 358 26 446 -10 q 205 126 271 61 q 103 280 139 190 q 67 479 67 369 q 103 675 67 586 q 205 830 139 764 q 358 932 271 896 q 547 968 446 968 q 738 932 650 968 q 890 830 825 896 q 992 675 956 764 q 1028 479 1028 586 q 992 280 1028 369 q 890 126 956 190 q 738 26 825 61 q 547 -10 650 -10 m 547 76 q 742 124 656 76 q 878 263 828 172 q 928 479 928 353 q 878 693 928 603 q 742 833 828 783 q 547 882 656 882 q 353 833 440 882 q 217 693 267 783 q 167 479 167 603 q 217 263 167 353 q 353 124 267 172 q 547 76 440 76 m 397 1269 l 682 1092 l 682 1017 l 397 1182 l 397 1269 z "},"Ő":{"ha":1094,"x_min":67,"x_max":1028,"o":"m 547 -10 q 358 26 446 -10 q 205 126 271 61 q 103 280 139 190 q 67 479 67 369 q 103 675 67 586 q 205 830 139 764 q 358 932 271 896 q 547 968 446 968 q 738 932 650 968 q 890 830 825 896 q 992 675 956 764 q 1028 479 1028 586 q 992 280 1028 369 q 890 126 956 190 q 738 26 825 61 q 547 -10 650 -10 m 547 76 q 742 124 656 76 q 878 263 828 172 q 928 479 928 353 q 878 693 928 603 q 742 833 828 783 q 547 882 656 882 q 353 833 440 882 q 217 693 267 783 q 167 479 167 603 q 217 263 167 353 q 353 124 267 172 q 547 76 440 76 m 590 1228 l 481 1035 l 413 1035 l 503 1228 l 590 1228 m 788 1228 l 671 1035 l 604 1035 l 700 1228 l 788 1228 z "},"Ō":{"ha":1094,"x_min":67,"x_max":1028,"o":"m 547 -10 q 358 26 446 -10 q 205 126 271 61 q 103 280 139 190 q 67 479 67 369 q 103 675 67 586 q 205 830 139 764 q 358 932 271 896 q 547 968 446 968 q 738 932 650 968 q 890 830 825 896 q 992 675 956 764 q 1028 479 1028 586 q 992 280 1028 369 q 890 126 956 190 q 738 26 825 61 q 547 -10 650 -10 m 547 76 q 742 124 656 76 q 878 263 828 172 q 928 479 928 353 q 878 693 928 603 q 742 833 828 783 q 547 882 656 882 q 353 833 440 882 q 217 693 267 783 q 167 479 167 603 q 217 263 167 353 q 353 124 267 172 q 547 76 440 76 m 318 1172 l 789 1172 l 789 1097 l 318 1097 l 318 1172 z "},"Ø":{"ha":1094,"x_min":58,"x_max":1035,"o":"m 953 958 l 1035 958 l 142 0 l 58 0 l 953 958 m 547 -10 q 358 26 446 -10 q 205 126 271 61 q 103 280 139 190 q 67 479 67 369 q 103 675 67 586 q 205 830 139 764 q 358 932 271 896 q 547 968 446 968 q 738 932 650 968 q 890 830 825 896 q 992 675 956 764 q 1028 479 1028 586 q 992 280 1028 369 q 890 126 956 190 q 738 26 825 61 q 547 -10 650 -10 m 547 76 q 742 124 656 76 q 878 263 828 172 q 928 479 928 353 q 878 693 928 603 q 742 833 828 783 q 547 882 656 882 q 353 833 440 882 q 217 693 267 783 q 167 479 167 603 q 217 263 167 353 q 353 124 267 172 q 547 76 440 76 z "},"Õ":{"ha":1094,"x_min":67,"x_max":1028,"o":"m 547 -10 q 358 26 446 -10 q 205 126 271 61 q 103 280 139 190 q 67 479 67 369 q 103 675 67 586 q 205 830 139 764 q 358 932 271 896 q 547 968 446 968 q 738 932 650 968 q 890 830 825 896 q 992 675 956 764 q 1028 479 1028 586 q 992 280 1028 369 q 890 126 956 190 q 738 26 825 61 q 547 -10 650 -10 m 547 76 q 742 124 656 76 q 878 263 828 172 q 928 479 928 353 q 878 693 928 603 q 742 833 828 783 q 547 882 656 882 q 353 833 440 882 q 217 693 267 783 q 167 479 167 603 q 217 263 167 353 q 353 124 267 172 q 547 76 440 76 m 644 1039 q 584 1056 608 1039 q 539 1088 560 1072 q 489 1104 518 1104 q 451 1089 467 1104 q 431 1042 435 1074 l 371 1042 q 412 1138 379 1106 q 493 1171 444 1171 q 553 1155 529 1171 q 598 1122 576 1139 q 649 1106 619 1106 q 689 1122 672 1106 q 710 1168 706 1138 l 768 1168 q 728 1073 763 1107 q 644 1039 693 1039 z "},"Œ":{"ha":1517,"x_min":67,"x_max":1436,"o":"m 1025 881 l 1025 522 l 1394 522 l 1394 446 l 1025 446 l 1025 78 l 1436 78 l 1436 0 l 928 0 l 928 238 q 777 58 881 126 q 540 -10 674 -10 q 354 26 440 -10 q 203 126 268 61 q 103 280 139 190 q 67 479 67 369 q 103 676 67 586 q 203 831 139 765 q 354 932 268 896 q 540 968 440 968 q 777 907 674 968 q 928 736 881 846 l 928 958 l 1436 958 l 1436 881 l 1025 881 m 167 479 q 217 264 167 354 q 353 125 267 174 q 547 76 440 76 q 742 125 656 76 q 878 264 828 174 q 928 479 928 354 q 878 694 928 606 q 742 831 828 783 q 547 879 656 879 q 353 830 440 879 q 217 691 267 781 q 167 479 167 601 z "},"P":{"ha":783,"x_min":111,"x_max":732,"o":"m 111 0 l 111 958 l 404 958 q 590 922 517 958 q 697 822 663 885 q 732 679 732 760 q 697 538 732 601 q 590 438 663 475 q 404 401 518 401 l 208 401 l 208 0 l 111 0 m 208 485 l 404 485 q 580 538 528 485 q 632 679 632 590 q 580 825 632 774 q 404 876 528 876 l 208 876 l 208 485 z "},"Þ":{"ha":783,"x_min":111,"x_max":732,"o":"m 111 0 l 111 958 l 207 958 l 207 757 l 404 757 q 590 720 517 757 q 697 621 663 683 q 732 478 732 558 q 697 336 732 399 q 590 237 663 274 q 404 200 518 200 l 208 200 l 208 0 l 111 0 m 208 279 l 404 279 q 580 334 528 279 q 632 478 632 389 q 580 624 632 571 q 404 678 528 678 l 208 678 l 208 279 z "},"Q":{"ha":1081,"x_min":67,"x_max":1028,"o":"m 929 -164 q 833 -144 883 -164 q 742 -83 783 -124 q 679 21 701 -42 l 763 64 q 831 -37 786 -4 q 933 -69 876 -69 q 965 -67 949 -69 q 1000 -61 982 -65 l 1000 -151 q 967 -160 985 -157 q 929 -164 949 -164 m 547 -10 q 358 26 446 -10 q 205 126 271 61 q 103 280 139 190 q 67 479 67 369 q 103 675 67 586 q 205 830 139 764 q 358 932 271 896 q 547 968 446 968 q 738 932 650 968 q 890 830 825 896 q 992 675 956 764 q 1028 479 1028 586 q 992 280 1028 369 q 890 126 956 190 q 738 26 825 61 q 547 -10 650 -10 m 547 76 q 742 124 656 76 q 878 263 828 172 q 928 479 928 353 q 878 693 928 603 q 742 833 828 783 q 547 882 656 882 q 353 833 440 882 q 217 693 267 783 q 167 479 167 603 q 217 263 167 353 q 353 124 267 172 q 547 76 440 76 z "},"R":{"ha":865,"x_min":111,"x_max":794,"o":"m 111 0 l 111 958 l 403 958 q 589 922 515 958 q 698 822 663 885 q 733 679 733 760 q 671 507 733 578 q 506 417 608 436 q 640 342 581 393 q 740 207 700 290 q 794 0 781 124 l 692 0 q 631 215 681 133 q 497 338 582 296 q 368 377 440 365 q 208 389 296 389 l 208 0 l 111 0 m 208 472 l 404 472 q 578 531 524 472 q 633 679 633 590 q 580 824 633 771 q 403 876 526 876 l 208 876 l 208 472 z "},"Ŕ":{"ha":865,"x_min":111,"x_max":794,"o":"m 111 0 l 111 958 l 403 958 q 589 922 515 958 q 698 822 663 885 q 733 679 733 760 q 671 507 733 578 q 506 417 608 436 q 640 342 581 393 q 740 207 700 290 q 794 0 781 124 l 692 0 q 631 215 681 133 q 497 338 582 296 q 368 377 440 365 q 208 389 296 389 l 208 0 l 111 0 m 208 472 l 404 472 q 578 531 524 472 q 633 679 633 590 q 580 824 633 771 q 403 876 526 876 l 208 876 l 208 472 m 269 1017 l 269 1092 l 554 1269 l 554 1182 l 269 1017 z "},"Ř":{"ha":865,"x_min":111,"x_max":794,"o":"m 111 0 l 111 958 l 403 958 q 589 922 515 958 q 698 822 663 885 q 733 679 733 760 q 671 507 733 578 q 506 417 608 436 q 640 342 581 393 q 740 207 700 290 q 794 0 781 124 l 692 0 q 631 215 681 133 q 497 338 582 296 q 368 377 440 365 q 208 389 296 389 l 208 0 l 111 0 m 208 472 l 404 472 q 578 531 524 472 q 633 679 633 590 q 580 824 633 771 q 403 876 526 876 l 208 876 l 208 472 m 425 1038 l 239 1151 l 239 1229 l 425 1114 l 611 1229 l 611 1151 l 425 1038 z "},"Ŗ":{"ha":865,"x_min":111,"x_max":794,"o":"m 340 -314 l 340 -258 q 387 -251 365 -260 q 422 -225 408 -242 q 439 -189 436 -208 q 406 -199 425 -199 q 360 -184 379 -199 q 342 -139 342 -169 q 363 -90 342 -110 q 415 -71 385 -71 q 456 -85 439 -71 q 483 -120 474 -99 q 493 -164 493 -142 q 472 -246 493 -211 q 415 -299 450 -281 q 340 -314 381 -317 m 111 0 l 111 958 l 403 958 q 589 922 515 958 q 698 822 663 885 q 733 679 733 760 q 671 507 733 578 q 506 417 608 436 q 640 342 581 393 q 740 207 700 290 q 794 0 781 124 l 692 0 q 631 215 681 133 q 497 338 582 296 q 368 377 440 365 q 208 389 296 389 l 208 0 l 111 0 m 208 472 l 404 472 q 578 531 524 472 q 633 679 633 590 q 580 824 633 771 q 403 876 526 876 l 208 876 l 208 472 z "},"S":{"ha":806,"x_min":78,"x_max":729,"o":"m 417 -10 q 251 24 324 -10 q 133 120 178 57 q 78 269 89 183 l 178 288 q 253 132 193 188 q 417 76 314 76 q 574 123 518 76 q 631 244 631 169 q 601 342 631 306 q 525 399 572 378 q 421 433 478 419 q 307 464 364 447 q 203 508 250 481 q 126 585 156 536 q 97 711 97 633 q 136 844 97 786 q 245 935 175 903 q 408 968 315 968 q 565 931 501 968 q 667 838 629 894 q 715 724 704 782 l 618 699 q 545 830 604 778 q 404 882 486 882 q 300 863 347 882 q 224 808 253 844 q 196 714 196 771 q 225 618 196 654 q 301 562 254 582 q 406 527 349 542 q 519 495 463 513 q 624 450 576 478 q 700 374 671 422 q 729 249 729 326 q 694 124 729 183 q 589 27 658 64 q 417 -10 519 -10 z "},"Ś":{"ha":806,"x_min":78,"x_max":729,"o":"m 417 -10 q 251 24 324 -10 q 133 120 178 57 q 78 269 89 183 l 178 288 q 253 132 193 188 q 417 76 314 76 q 574 123 518 76 q 631 244 631 169 q 601 342 631 306 q 525 399 572 378 q 421 433 478 419 q 307 464 364 447 q 203 508 250 481 q 126 585 156 536 q 97 711 97 633 q 136 844 97 786 q 245 935 175 903 q 408 968 315 968 q 565 931 501 968 q 667 838 629 894 q 715 724 704 782 l 618 699 q 545 830 604 778 q 404 882 486 882 q 300 863 347 882 q 224 808 253 844 q 196 714 196 771 q 225 618 196 654 q 301 562 254 582 q 406 527 349 542 q 519 495 463 513 q 624 450 576 478 q 700 374 671 422 q 729 249 729 326 q 694 124 729 183 q 589 27 658 64 q 417 -10 519 -10 m 533 1275 l 533 1188 l 249 1022 l 249 1097 l 533 1275 z "},"Š":{"ha":806,"x_min":78,"x_max":729,"o":"m 417 -10 q 251 24 324 -10 q 133 120 178 57 q 78 269 89 183 l 178 288 q 253 132 193 188 q 417 76 314 76 q 574 123 518 76 q 631 244 631 169 q 601 342 631 306 q 525 399 572 378 q 421 433 478 419 q 307 464 364 447 q 203 508 250 481 q 126 585 156 536 q 97 711 97 633 q 136 844 97 786 q 245 935 175 903 q 408 968 315 968 q 565 931 501 968 q 667 838 629 894 q 715 724 704 782 l 618 699 q 545 830 604 778 q 404 882 486 882 q 300 863 347 882 q 224 808 253 844 q 196 714 196 771 q 225 618 196 654 q 301 562 254 582 q 406 527 349 542 q 519 495 463 513 q 624 450 576 478 q 700 374 671 422 q 729 249 729 326 q 694 124 729 183 q 589 27 658 64 q 417 -10 519 -10 m 592 1235 l 592 1157 l 406 1043 l 219 1157 l 219 1235 l 406 1119 l 592 1235 z "},"Ş":{"ha":806,"x_min":78,"x_max":729,"o":"m 417 -10 q 251 24 324 -10 q 133 120 178 57 q 78 269 89 183 l 178 288 q 253 132 193 188 q 417 76 314 76 q 574 123 518 76 q 631 244 631 169 q 601 342 631 306 q 525 399 572 378 q 421 433 478 419 q 307 464 364 447 q 203 508 250 481 q 126 585 156 536 q 97 711 97 633 q 136 844 97 786 q 245 935 175 903 q 408 968 315 968 q 565 931 501 968 q 667 838 629 894 q 715 724 704 782 l 618 699 q 545 830 604 778 q 404 882 486 882 q 300 863 347 882 q 224 808 253 844 q 196 714 196 771 q 225 618 196 654 q 301 562 254 582 q 406 527 349 542 q 519 495 463 513 q 624 450 576 478 q 700 374 671 422 q 729 249 729 326 q 694 124 729 183 q 589 27 658 64 q 417 -10 519 -10 m 449 -99 q 543 -112 503 -97 q 605 -156 583 -126 q 626 -228 626 -185 q 606 -300 626 -269 q 549 -347 586 -331 q 464 -364 513 -364 l 325 -364 l 325 -299 l 444 -299 q 521 -281 497 -299 q 544 -228 544 -262 q 521 -178 544 -196 q 444 -161 497 -161 l 381 -161 l 381 4 l 449 4 l 449 -99 z "},"Ș":{"ha":806,"x_min":78,"x_max":729,"o":"m 340 -314 l 340 -258 q 387 -251 365 -260 q 422 -225 408 -242 q 439 -189 436 -208 q 406 -199 425 -199 q 360 -184 379 -199 q 342 -139 342 -169 q 363 -90 342 -110 q 415 -71 385 -71 q 456 -85 439 -71 q 483 -120 474 -99 q 493 -164 493 -142 q 472 -246 493 -211 q 415 -299 450 -281 q 340 -314 381 -317 m 417 -10 q 251 24 324 -10 q 133 120 178 57 q 78 269 89 183 l 178 288 q 253 132 193 188 q 417 76 314 76 q 574 123 518 76 q 631 244 631 169 q 601 342 631 306 q 525 399 572 378 q 421 433 478 419 q 307 464 364 447 q 203 508 250 481 q 126 585 156 536 q 97 711 97 633 q 136 844 97 786 q 245 935 175 903 q 408 968 315 968 q 565 931 501 968 q 667 838 629 894 q 715 724 704 782 l 618 699 q 545 830 604 778 q 404 882 486 882 q 300 863 347 882 q 224 808 253 844 q 196 714 196 771 q 225 618 196 654 q 301 562 254 582 q 406 527 349 542 q 519 495 463 513 q 624 450 576 478 q 700 374 671 422 q 729 249 729 326 q 694 124 729 183 q 589 27 658 64 q 417 -10 519 -10 z "},"ẞ":{"ha":924,"x_min":92,"x_max":839,"o":"m 92 778 q 126 926 92 861 q 229 1029 160 992 q 401 1067 299 1067 q 560 1036 496 1067 q 657 956 624 1006 q 690 846 690 906 q 670 757 690 794 q 619 690 650 719 q 558 636 589 661 q 508 587 528 611 q 488 535 488 563 q 501 494 488 513 q 551 458 515 475 q 650 419 586 440 q 794 335 750 388 q 839 204 839 282 q 809 91 839 140 q 724 14 779 42 q 589 -14 668 -14 q 399 52 474 -14 q 314 232 325 118 l 413 232 q 465 111 419 157 q 589 65 511 65 q 699 101 660 65 q 739 197 739 136 q 706 286 739 253 q 592 346 672 319 q 435 421 482 382 q 389 522 389 460 q 410 598 389 565 q 460 658 431 631 q 521 711 490 685 q 572 769 551 738 q 593 839 593 800 q 542 945 593 906 q 400 985 490 985 q 240 926 292 985 q 189 767 189 868 l 189 0 l 92 0 l 92 778 z "},"T":{"ha":722,"x_min":42,"x_max":679,"o":"m 42 958 l 679 958 l 679 878 l 410 878 l 410 0 l 313 0 l 313 878 l 42 878 l 42 958 z "},"Ť":{"ha":722,"x_min":42,"x_max":679,"o":"m 42 958 l 679 958 l 679 878 l 410 878 l 410 0 l 313 0 l 313 878 l 42 878 l 42 958 m 547 1229 l 547 1151 l 361 1038 l 175 1151 l 175 1229 l 361 1114 l 547 1229 z "},"Ţ":{"ha":722,"x_min":42,"x_max":679,"o":"m 42 958 l 679 958 l 679 878 l 410 878 l 410 0 l 313 0 l 313 878 l 42 878 l 42 958 m 397 -93 q 492 -106 451 -92 q 553 -150 532 -121 q 575 -222 575 -179 q 555 -294 575 -264 q 498 -342 535 -325 q 413 -358 461 -358 l 274 -358 l 274 -293 l 393 -293 q 469 -275 446 -293 q 493 -222 493 -257 q 469 -173 493 -190 q 393 -156 446 -156 l 329 -156 l 329 10 l 397 10 l 397 -93 z "},"Ț":{"ha":722,"x_min":42,"x_max":679,"o":"m 289 -314 l 289 -258 q 335 -251 314 -260 q 371 -225 357 -242 q 388 -189 385 -208 q 354 -199 374 -199 q 309 -184 328 -199 q 290 -139 290 -169 q 312 -90 290 -110 q 364 -71 333 -71 q 405 -85 388 -71 q 432 -120 422 -99 q 442 -164 442 -142 q 420 -246 442 -211 q 364 -299 399 -281 q 289 -314 329 -317 m 42 958 l 679 958 l 679 878 l 410 878 l 410 0 l 313 0 l 313 878 l 42 878 l 42 958 z "},"U":{"ha":918,"x_min":107,"x_max":813,"o":"m 107 958 l 204 958 l 204 360 q 276 142 204 208 q 461 76 347 76 q 645 142 575 76 q 715 360 715 208 l 715 958 l 813 958 l 813 361 q 765 151 813 233 q 638 29 718 68 q 460 -10 558 -10 q 281 29 361 -10 q 154 151 201 68 q 107 361 107 233 l 107 958 z "},"Ú":{"ha":918,"x_min":107,"x_max":813,"o":"m 107 958 l 204 958 l 204 360 q 276 142 204 208 q 461 76 347 76 q 645 142 575 76 q 715 360 715 208 l 715 958 l 813 958 l 813 361 q 765 151 813 233 q 638 29 718 68 q 460 -10 558 -10 q 281 29 361 -10 q 154 151 201 68 q 107 361 107 233 l 107 958 m 586 1269 l 586 1182 l 301 1017 l 301 1092 l 586 1269 z "},"Ŭ":{"ha":918,"x_min":107,"x_max":813,"o":"m 107 958 l 204 958 l 204 360 q 276 142 204 208 q 461 76 347 76 q 645 142 575 76 q 715 360 715 208 l 715 958 l 813 958 l 813 361 q 765 151 813 233 q 638 29 718 68 q 460 -10 558 -10 q 281 29 361 -10 q 154 151 201 68 q 107 361 107 233 l 107 958 m 458 1042 q 318 1092 365 1042 q 271 1213 271 1143 l 271 1231 l 332 1231 q 362 1149 332 1178 q 458 1119 392 1119 q 555 1149 525 1119 q 585 1231 585 1178 l 647 1231 l 647 1213 q 600 1092 647 1143 q 458 1042 553 1042 z "},"Û":{"ha":918,"x_min":107,"x_max":813,"o":"m 107 958 l 204 958 l 204 360 q 276 142 204 208 q 461 76 347 76 q 645 142 575 76 q 715 360 715 208 l 715 958 l 813 958 l 813 361 q 765 151 813 233 q 638 29 718 68 q 460 -10 558 -10 q 281 29 361 -10 q 154 151 201 68 q 107 361 107 233 l 107 958 m 644 997 l 458 1114 l 272 997 l 272 1076 l 458 1190 l 644 1076 l 644 997 z "},"Ü":{"ha":918,"x_min":107,"x_max":813,"o":"m 107 958 l 204 958 l 204 360 q 276 142 204 208 q 461 76 347 76 q 645 142 575 76 q 715 360 715 208 l 715 958 l 813 958 l 813 361 q 765 151 813 233 q 638 29 718 68 q 460 -10 558 -10 q 281 29 361 -10 q 154 151 201 68 q 107 361 107 233 l 107 958 m 353 1065 q 308 1084 326 1065 q 289 1129 289 1103 q 308 1174 289 1156 q 353 1193 326 1193 q 398 1174 379 1193 q 417 1129 417 1156 q 398 1084 417 1103 q 353 1065 379 1065 m 567 1065 q 522 1084 540 1065 q 503 1129 503 1103 q 522 1174 503 1156 q 567 1193 540 1193 q 611 1174 593 1193 q 629 1129 629 1156 q 611 1084 629 1103 q 567 1065 593 1065 z "},"Ù":{"ha":918,"x_min":107,"x_max":813,"o":"m 107 958 l 204 958 l 204 360 q 276 142 204 208 q 461 76 347 76 q 645 142 575 76 q 715 360 715 208 l 715 958 l 813 958 l 813 361 q 765 151 813 233 q 638 29 718 68 q 460 -10 558 -10 q 281 29 361 -10 q 154 151 201 68 q 107 361 107 233 l 107 958 m 301 1269 l 586 1092 l 586 1017 l 301 1182 l 301 1269 z "},"Ű":{"ha":918,"x_min":107,"x_max":813,"o":"m 107 958 l 204 958 l 204 360 q 276 142 204 208 q 461 76 347 76 q 645 142 575 76 q 715 360 715 208 l 715 958 l 813 958 l 813 361 q 765 151 813 233 q 638 29 718 68 q 460 -10 558 -10 q 281 29 361 -10 q 154 151 201 68 q 107 361 107 233 l 107 958 m 494 1228 l 385 1035 l 317 1035 l 407 1228 l 494 1228 m 692 1228 l 575 1035 l 508 1035 l 604 1228 l 692 1228 z "},"Ū":{"ha":918,"x_min":107,"x_max":813,"o":"m 107 958 l 204 958 l 204 360 q 276 142 204 208 q 461 76 347 76 q 645 142 575 76 q 715 360 715 208 l 715 958 l 813 958 l 813 361 q 765 151 813 233 q 638 29 718 68 q 460 -10 558 -10 q 281 29 361 -10 q 154 151 201 68 q 107 361 107 233 l 107 958 m 222 1172 l 693 1172 l 693 1097 l 222 1097 l 222 1172 z "},"Ų":{"ha":918,"x_min":107,"x_max":813,"o":"m 107 958 l 204 958 l 204 360 q 276 142 204 208 q 461 76 347 76 q 645 142 575 76 q 715 360 715 208 l 715 958 l 813 958 l 813 361 q 765 151 813 233 q 638 29 718 68 q 460 -10 558 -10 q 281 29 361 -10 q 154 151 201 68 q 107 361 107 233 l 107 958 m 528 53 l 554 0 l 471 -40 q 403 -89 422 -64 q 383 -142 383 -114 q 407 -194 383 -176 q 469 -212 431 -212 q 558 -193 511 -212 l 558 -261 q 510 -274 536 -269 q 458 -279 483 -279 q 383 -267 419 -279 q 324 -226 347 -254 q 301 -151 301 -197 q 316 -90 301 -119 q 364 -34 331 -61 q 451 18 397 -7 l 528 53 z "},"Ů":{"ha":918,"x_min":107,"x_max":813,"o":"m 107 958 l 204 958 l 204 360 q 276 142 204 208 q 461 76 347 76 q 645 142 575 76 q 715 360 715 208 l 715 958 l 813 958 l 813 361 q 765 151 813 233 q 638 29 718 68 q 460 -10 558 -10 q 281 29 361 -10 q 154 151 201 68 q 107 361 107 233 l 107 958 m 600 1186 q 559 1085 600 1122 q 458 1047 518 1047 q 359 1085 401 1047 q 317 1186 317 1122 q 359 1288 317 1251 q 458 1325 401 1325 q 559 1288 518 1325 q 600 1186 600 1251 m 540 1186 q 517 1249 540 1226 q 458 1271 493 1271 q 401 1249 425 1271 q 378 1186 378 1226 q 401 1124 378 1147 q 458 1101 425 1101 q 517 1124 493 1101 q 540 1186 540 1147 z "},"Ũ":{"ha":918,"x_min":107,"x_max":813,"o":"m 107 958 l 204 958 l 204 360 q 276 142 204 208 q 461 76 347 76 q 645 142 575 76 q 715 360 715 208 l 715 958 l 813 958 l 813 361 q 765 151 813 233 q 638 29 718 68 q 460 -10 558 -10 q 281 29 361 -10 q 154 151 201 68 q 107 361 107 233 l 107 958 m 549 1039 q 488 1056 513 1039 q 443 1088 464 1072 q 393 1104 422 1104 q 355 1089 371 1104 q 335 1042 339 1074 l 275 1042 q 316 1138 283 1106 q 397 1171 349 1171 q 457 1155 433 1171 q 502 1122 481 1139 q 553 1106 524 1106 q 593 1122 576 1106 q 614 1168 610 1138 l 672 1168 q 632 1073 667 1107 q 549 1039 597 1039 z "},"V":{"ha":915,"x_min":33,"x_max":881,"o":"m 778 958 l 881 958 l 513 0 l 401 0 l 33 958 l 139 958 l 457 106 l 778 958 z "},"W":{"ha":1326,"x_min":36,"x_max":1289,"o":"m 36 958 l 140 958 l 378 60 l 344 60 l 611 958 l 719 958 l 979 58 l 946 58 l 1185 958 l 1289 958 l 1014 0 l 906 0 l 646 868 l 678 868 l 411 0 l 306 0 l 36 958 z "},"Ẃ":{"ha":1326,"x_min":36,"x_max":1289,"o":"m 36 958 l 140 958 l 378 60 l 344 60 l 611 958 l 719 958 l 979 58 l 946 58 l 1185 958 l 1289 958 l 1014 0 l 906 0 l 646 868 l 678 868 l 411 0 l 306 0 l 36 958 m 901 1288 l 901 1200 l 617 1035 l 617 1110 l 901 1288 z "},"Ŵ":{"ha":1326,"x_min":36,"x_max":1289,"o":"m 36 958 l 140 958 l 378 60 l 344 60 l 611 958 l 719 958 l 979 58 l 946 58 l 1185 958 l 1289 958 l 1014 0 l 906 0 l 646 868 l 678 868 l 411 0 l 306 0 l 36 958 m 850 997 l 664 1114 l 478 997 l 478 1076 l 664 1190 l 850 1076 l 850 997 z "},"Ẅ":{"ha":1326,"x_min":36,"x_max":1289,"o":"m 36 958 l 140 958 l 378 60 l 344 60 l 611 958 l 719 958 l 979 58 l 946 58 l 1185 958 l 1289 958 l 1014 0 l 906 0 l 646 868 l 678 868 l 411 0 l 306 0 l 36 958 m 553 1081 q 508 1099 526 1081 q 489 1144 489 1118 q 508 1190 489 1171 q 553 1208 526 1208 q 598 1190 579 1208 q 617 1144 617 1171 q 598 1099 617 1118 q 553 1081 579 1081 m 767 1081 q 722 1099 740 1081 q 703 1144 703 1118 q 722 1190 703 1171 q 767 1208 740 1208 q 811 1190 793 1208 q 829 1144 829 1171 q 811 1099 829 1118 q 767 1081 793 1081 z "},"Ẁ":{"ha":1326,"x_min":36,"x_max":1289,"o":"m 36 958 l 140 958 l 378 60 l 344 60 l 611 958 l 719 958 l 979 58 l 946 58 l 1185 958 l 1289 958 l 1014 0 l 906 0 l 646 868 l 678 868 l 411 0 l 306 0 l 36 958 m 426 1283 l 711 1106 l 711 1031 l 426 1196 l 426 1283 z "},"X":{"ha":813,"x_min":57,"x_max":757,"o":"m 57 958 l 165 958 l 756 0 l 647 0 l 57 958 m 425 436 l 165 0 l 57 0 l 369 508 l 425 436 m 390 519 l 649 958 l 757 958 l 446 447 l 390 519 z "},"Y":{"ha":783,"x_min":31,"x_max":753,"o":"m 31 958 l 140 958 l 415 422 l 371 422 l 644 958 l 753 958 l 442 378 l 442 0 l 344 0 l 344 378 l 31 958 z "},"Ý":{"ha":783,"x_min":31,"x_max":753,"o":"m 31 958 l 140 958 l 415 422 l 371 422 l 644 958 l 753 958 l 442 378 l 442 0 l 344 0 l 344 378 l 31 958 m 521 1269 l 521 1182 l 236 1017 l 236 1092 l 521 1269 z "},"Ŷ":{"ha":783,"x_min":31,"x_max":753,"o":"m 31 958 l 140 958 l 415 422 l 371 422 l 644 958 l 753 958 l 442 378 l 442 0 l 344 0 l 344 378 l 31 958 m 579 997 l 393 1114 l 207 997 l 207 1076 l 393 1190 l 579 1076 l 579 997 z "},"Ÿ":{"ha":783,"x_min":31,"x_max":753,"o":"m 31 958 l 140 958 l 415 422 l 371 422 l 644 958 l 753 958 l 442 378 l 442 0 l 344 0 l 344 378 l 31 958 m 288 1065 q 242 1084 261 1065 q 224 1129 224 1103 q 242 1174 224 1156 q 288 1193 261 1193 q 333 1174 314 1193 q 351 1129 351 1156 q 333 1084 351 1103 q 288 1065 314 1065 m 501 1065 q 456 1084 475 1065 q 438 1129 438 1103 q 456 1174 438 1156 q 501 1193 475 1193 q 546 1174 528 1193 q 564 1129 564 1156 q 546 1084 564 1103 q 501 1065 528 1065 z "},"Ỳ":{"ha":783,"x_min":31,"x_max":753,"o":"m 31 958 l 140 958 l 415 422 l 371 422 l 644 958 l 753 958 l 442 378 l 442 0 l 344 0 l 344 378 l 31 958 m 236 1269 l 521 1092 l 521 1017 l 236 1182 l 236 1269 z "},"Ỹ":{"ha":783,"x_min":31,"x_max":753,"o":"m 31 958 l 140 958 l 415 422 l 371 422 l 644 958 l 753 958 l 442 378 l 442 0 l 344 0 l 344 378 l 31 958 m 483 1039 q 423 1056 447 1039 q 378 1088 399 1072 q 328 1104 357 1104 q 290 1089 306 1104 q 269 1042 274 1074 l 210 1042 q 251 1138 218 1106 q 332 1171 283 1171 q 392 1155 368 1171 q 437 1122 415 1139 q 488 1106 458 1106 q 528 1122 511 1106 q 549 1168 544 1138 l 607 1168 q 567 1073 601 1107 q 483 1039 532 1039 z "},"Z":{"ha":729,"x_min":60,"x_max":669,"o":"m 663 881 l 174 86 l 669 86 l 669 0 l 60 0 l 60 78 l 549 872 l 68 872 l 68 958 l 663 958 l 663 881 z "},"Ź":{"ha":729,"x_min":60,"x_max":669,"o":"m 663 881 l 174 86 l 669 86 l 669 0 l 60 0 l 60 78 l 549 872 l 68 872 l 68 958 l 663 958 l 663 881 m 493 1269 l 493 1182 l 208 1017 l 208 1092 l 493 1269 z "},"Ž":{"ha":729,"x_min":60,"x_max":669,"o":"m 663 881 l 174 86 l 669 86 l 669 0 l 60 0 l 60 78 l 549 872 l 68 872 l 68 958 l 663 958 l 663 881 m 551 1229 l 551 1151 l 365 1038 l 179 1151 l 179 1229 l 365 1114 l 551 1229 z "},"Ż":{"ha":729,"x_min":60,"x_max":669,"o":"m 663 881 l 174 86 l 669 86 l 669 0 l 60 0 l 60 78 l 549 872 l 68 872 l 68 958 l 663 958 l 663 881 m 365 1022 q 320 1041 339 1022 q 301 1086 301 1060 q 320 1131 301 1113 q 365 1150 339 1150 q 410 1131 392 1150 q 429 1086 429 1113 q 410 1041 429 1060 q 365 1022 392 1022 z "},"a":{"ha":938,"x_min":67,"x_max":826,"o":"m 424 -10 q 244 40 325 -10 q 115 177 163 89 q 67 381 67 265 q 115 583 67 496 q 244 719 163 671 q 424 768 325 768 q 613 719 531 768 q 729 589 694 671 l 729 758 l 826 758 l 826 0 l 790 0 q 745 16 761 0 q 729 61 729 32 l 729 172 q 610 40 693 90 q 424 -10 526 -10 m 447 75 q 590 113 526 75 q 692 219 654 150 q 729 381 729 288 q 692 542 729 474 q 590 647 654 610 q 447 683 526 683 q 304 647 368 683 q 203 542 240 610 q 165 381 165 474 q 203 219 165 288 q 304 113 240 150 q 447 75 368 75 z "},"á":{"ha":938,"x_min":67,"x_max":826,"o":"m 424 -10 q 244 40 325 -10 q 115 177 163 89 q 67 381 67 265 q 115 583 67 496 q 244 719 163 671 q 424 768 325 768 q 613 719 531 768 q 729 589 694 671 l 729 758 l 826 758 l 826 0 l 790 0 q 745 16 761 0 q 729 61 729 32 l 729 172 q 610 40 693 90 q 424 -10 526 -10 m 447 75 q 590 113 526 75 q 692 219 654 150 q 729 381 729 288 q 692 542 729 474 q 590 647 654 610 q 447 683 526 683 q 304 647 368 683 q 203 542 240 610 q 165 381 165 474 q 203 219 165 288 q 304 113 240 150 q 447 75 368 75 m 597 1069 l 597 982 l 313 817 l 313 892 l 597 1069 z "},"ă":{"ha":938,"x_min":67,"x_max":826,"o":"m 424 -10 q 244 40 325 -10 q 115 177 163 89 q 67 381 67 265 q 115 583 67 496 q 244 719 163 671 q 424 768 325 768 q 613 719 531 768 q 729 589 694 671 l 729 758 l 826 758 l 826 0 l 790 0 q 745 16 761 0 q 729 61 729 32 l 729 172 q 610 40 693 90 q 424 -10 526 -10 m 447 75 q 590 113 526 75 q 692 219 654 150 q 729 381 729 288 q 692 542 729 474 q 590 647 654 610 q 447 683 526 683 q 304 647 368 683 q 203 542 240 610 q 165 381 165 474 q 203 219 165 288 q 304 113 240 150 q 447 75 368 75 m 469 842 q 329 892 376 842 q 282 1013 282 943 l 282 1031 l 343 1031 q 373 949 343 978 q 469 919 403 919 q 566 949 536 919 q 596 1031 596 978 l 658 1031 l 658 1013 q 611 892 658 943 q 469 842 564 842 z "},"â":{"ha":938,"x_min":67,"x_max":826,"o":"m 424 -10 q 244 40 325 -10 q 115 177 163 89 q 67 381 67 265 q 115 583 67 496 q 244 719 163 671 q 424 768 325 768 q 613 719 531 768 q 729 589 694 671 l 729 758 l 826 758 l 826 0 l 790 0 q 745 16 761 0 q 729 61 729 32 l 729 172 q 610 40 693 90 q 424 -10 526 -10 m 447 75 q 590 113 526 75 q 692 219 654 150 q 729 381 729 288 q 692 542 729 474 q 590 647 654 610 q 447 683 526 683 q 304 647 368 683 q 203 542 240 610 q 165 381 165 474 q 203 219 165 288 q 304 113 240 150 q 447 75 368 75 m 656 797 l 469 914 l 283 797 l 283 876 l 469 990 l 656 876 l 656 797 z "},"ä":{"ha":938,"x_min":67,"x_max":826,"o":"m 424 -10 q 244 40 325 -10 q 115 177 163 89 q 67 381 67 265 q 115 583 67 496 q 244 719 163 671 q 424 768 325 768 q 613 719 531 768 q 729 589 694 671 l 729 758 l 826 758 l 826 0 l 790 0 q 745 16 761 0 q 729 61 729 32 l 729 172 q 610 40 693 90 q 424 -10 526 -10 m 447 75 q 590 113 526 75 q 692 219 654 150 q 729 381 729 288 q 692 542 729 474 q 590 647 654 610 q 447 683 526 683 q 304 647 368 683 q 203 542 240 610 q 165 381 165 474 q 203 219 165 288 q 304 113 240 150 q 447 75 368 75 m 364 865 q 319 884 338 865 q 300 929 300 903 q 319 974 300 956 q 364 993 338 993 q 409 974 390 993 q 428 929 428 956 q 409 884 428 903 q 364 865 390 865 m 578 865 q 533 884 551 865 q 514 929 514 903 q 533 974 514 956 q 578 993 551 993 q 622 974 604 993 q 640 929 640 956 q 622 884 640 903 q 578 865 604 865 z "},"à":{"ha":938,"x_min":67,"x_max":826,"o":"m 424 -10 q 244 40 325 -10 q 115 177 163 89 q 67 381 67 265 q 115 583 67 496 q 244 719 163 671 q 424 768 325 768 q 613 719 531 768 q 729 589 694 671 l 729 758 l 826 758 l 826 0 l 790 0 q 745 16 761 0 q 729 61 729 32 l 729 172 q 610 40 693 90 q 424 -10 526 -10 m 447 75 q 590 113 526 75 q 692 219 654 150 q 729 381 729 288 q 692 542 729 474 q 590 647 654 610 q 447 683 526 683 q 304 647 368 683 q 203 542 240 610 q 165 381 165 474 q 203 219 165 288 q 304 113 240 150 q 447 75 368 75 m 313 1069 l 597 892 l 597 817 l 313 982 l 313 1069 z "},"ā":{"ha":938,"x_min":67,"x_max":826,"o":"m 424 -10 q 244 40 325 -10 q 115 177 163 89 q 67 381 67 265 q 115 583 67 496 q 244 719 163 671 q 424 768 325 768 q 613 719 531 768 q 729 589 694 671 l 729 758 l 826 758 l 826 0 l 790 0 q 745 16 761 0 q 729 61 729 32 l 729 172 q 610 40 693 90 q 424 -10 526 -10 m 447 75 q 590 113 526 75 q 692 219 654 150 q 729 381 729 288 q 692 542 729 474 q 590 647 654 610 q 447 683 526 683 q 304 647 368 683 q 203 542 240 610 q 165 381 165 474 q 203 219 165 288 q 304 113 240 150 q 447 75 368 75 m 233 972 l 704 972 l 704 897 l 233 897 l 233 972 z "},"ą":{"ha":938,"x_min":67,"x_max":831,"o":"m 424 -11 q 244 39 325 -11 q 115 177 163 89 q 67 381 67 265 q 115 583 67 496 q 244 720 163 671 q 424 769 325 769 q 613 720 531 769 q 729 589 694 671 l 729 758 l 826 758 l 826 0 l 790 0 q 745 16 761 0 q 729 61 729 32 l 729 172 q 610 40 693 90 q 424 -11 526 -11 m 731 -279 q 656 -267 692 -279 q 597 -226 619 -254 q 574 -151 574 -197 q 588 -90 574 -119 q 636 -34 603 -61 q 724 18 669 -7 l 800 53 l 826 0 l 743 -40 q 675 -89 694 -64 q 656 -142 656 -114 q 679 -194 656 -176 q 742 -212 703 -212 q 831 -193 783 -212 l 831 -261 q 782 -274 808 -269 q 731 -279 756 -279 m 447 74 q 590 112 526 74 q 692 219 654 150 q 729 381 729 288 q 692 542 729 474 q 590 647 654 610 q 447 685 526 685 q 304 647 368 685 q 203 542 240 610 q 165 381 165 474 q 203 219 165 288 q 304 112 240 150 q 447 74 368 74 z "},"å":{"ha":938,"x_min":67,"x_max":826,"o":"m 424 -10 q 244 40 325 -10 q 115 177 163 89 q 67 381 67 265 q 115 583 67 496 q 244 719 163 671 q 424 768 325 768 q 613 719 531 768 q 729 589 694 671 l 729 758 l 826 758 l 826 0 l 790 0 q 745 16 761 0 q 729 61 729 32 l 729 172 q 610 40 693 90 q 424 -10 526 -10 m 447 75 q 590 113 526 75 q 692 219 654 150 q 729 381 729 288 q 692 542 729 474 q 590 647 654 610 q 447 683 526 683 q 304 647 368 683 q 203 542 240 610 q 165 381 165 474 q 203 219 165 288 q 304 113 240 150 q 447 75 368 75 m 611 986 q 570 885 611 922 q 469 847 529 847 q 370 885 413 847 q 328 986 328 922 q 370 1088 328 1051 q 469 1125 413 1125 q 570 1088 529 1125 q 611 986 611 1051 m 551 986 q 528 1049 551 1026 q 469 1071 504 1071 q 413 1049 436 1071 q 389 986 389 1026 q 413 924 389 947 q 469 901 436 901 q 528 924 504 901 q 551 986 551 947 z "},"ã":{"ha":938,"x_min":67,"x_max":826,"o":"m 424 -10 q 244 40 325 -10 q 115 177 163 89 q 67 381 67 265 q 115 583 67 496 q 244 719 163 671 q 424 768 325 768 q 613 719 531 768 q 729 589 694 671 l 729 758 l 826 758 l 826 0 l 790 0 q 745 16 761 0 q 729 61 729 32 l 729 172 q 610 40 693 90 q 424 -10 526 -10 m 447 75 q 590 113 526 75 q 692 219 654 150 q 729 381 729 288 q 692 542 729 474 q 590 647 654 610 q 447 683 526 683 q 304 647 368 683 q 203 542 240 610 q 165 381 165 474 q 203 219 165 288 q 304 113 240 150 q 447 75 368 75 m 560 839 q 499 856 524 839 q 454 888 475 872 q 404 904 433 904 q 366 889 382 904 q 346 842 350 874 l 286 842 q 327 938 294 906 q 408 971 360 971 q 468 955 444 971 q 513 922 492 939 q 564 906 535 906 q 604 922 588 906 q 625 968 621 938 l 683 968 q 643 873 678 907 q 560 839 608 839 z "},"æ":{"ha":1565,"x_min":67,"x_max":1499,"o":"m 424 -10 q 244 40 325 -10 q 115 177 163 89 q 67 381 67 265 q 115 583 67 496 q 244 719 163 671 q 424 768 325 768 q 613 719 531 768 q 729 589 694 671 l 729 758 l 826 758 l 826 0 l 790 0 q 745 16 761 0 q 729 61 729 32 l 729 172 q 610 40 693 90 q 424 -10 526 -10 m 447 75 q 590 113 526 75 q 692 219 654 150 q 729 381 729 288 q 692 542 729 474 q 590 647 654 610 q 447 683 526 683 q 304 647 368 683 q 203 542 240 610 q 165 381 165 474 q 203 219 165 288 q 304 113 240 150 q 447 75 368 75 m 1150 -10 q 992 16 1065 -10 q 865 91 919 42 q 779 211 810 140 q 749 374 749 282 q 781 528 749 457 q 871 654 814 600 q 1000 738 928 708 q 1150 768 1072 768 q 1275 751 1218 768 q 1373 701 1332 733 q 1437 628 1414 669 q 1460 539 1460 588 q 1435 440 1460 481 q 1366 371 1410 399 q 1267 328 1322 343 q 1149 306 1211 313 q 1025 299 1086 299 q 962 300 993 299 q 902 305 931 301 q 849 311 874 308 q 894 194 856 249 q 998 108 932 140 q 1150 75 1064 75 q 1268 98 1214 75 q 1363 153 1322 121 q 1428 211 1404 185 l 1499 156 q 1420 80 1471 118 q 1301 16 1369 42 q 1150 -10 1233 -10 m 1015 383 q 1137 391 1075 383 q 1250 415 1199 399 q 1333 460 1301 432 q 1365 531 1365 489 q 1337 610 1365 575 q 1260 664 1308 644 q 1156 683 1213 683 q 999 641 1069 683 q 888 533 929 599 q 843 394 847 467 q 917 386 872 389 q 1015 383 963 383 z "},"ǽ":{"ha":1565,"x_min":67,"x_max":1499,"o":"m 424 -10 q 244 40 325 -10 q 115 177 163 89 q 67 381 67 265 q 115 583 67 496 q 244 719 163 671 q 424 768 325 768 q 613 719 531 768 q 729 589 694 671 l 729 758 l 826 758 l 826 0 l 790 0 q 745 16 761 0 q 729 61 729 32 l 729 172 q 610 40 693 90 q 424 -10 526 -10 m 447 75 q 590 113 526 75 q 692 219 654 150 q 729 381 729 288 q 692 542 729 474 q 590 647 654 610 q 447 683 526 683 q 304 647 368 683 q 203 542 240 610 q 165 381 165 474 q 203 219 165 288 q 304 113 240 150 q 447 75 368 75 m 1150 -10 q 992 16 1065 -10 q 865 91 919 42 q 779 211 810 140 q 749 374 749 282 q 781 528 749 457 q 871 654 814 600 q 1000 738 928 708 q 1150 768 1072 768 q 1275 751 1218 768 q 1373 701 1332 733 q 1437 628 1414 669 q 1460 539 1460 588 q 1435 440 1460 481 q 1366 371 1410 399 q 1267 328 1322 343 q 1149 306 1211 313 q 1025 299 1086 299 q 962 300 993 299 q 902 305 931 301 q 849 311 874 308 q 894 194 856 249 q 998 108 932 140 q 1150 75 1064 75 q 1268 98 1214 75 q 1363 153 1322 121 q 1428 211 1404 185 l 1499 156 q 1420 80 1471 118 q 1301 16 1369 42 q 1150 -10 1233 -10 m 1015 383 q 1137 391 1075 383 q 1250 415 1199 399 q 1333 460 1301 432 q 1365 531 1365 489 q 1337 610 1365 575 q 1260 664 1308 644 q 1156 683 1213 683 q 999 641 1069 683 q 888 533 929 599 q 843 394 847 467 q 917 386 872 389 q 1015 383 963 383 m 1014 1069 l 1014 982 l 729 817 l 729 892 l 1014 1069 z "},"b":{"ha":939,"x_min":111,"x_max":871,"o":"m 514 -10 q 328 40 413 -10 q 208 172 244 90 l 208 61 q 192 16 208 32 q 147 0 176 0 l 111 0 l 111 1028 l 208 1028 l 208 589 q 326 719 244 671 q 514 768 408 768 q 694 719 613 768 q 823 583 775 671 q 871 381 871 496 q 823 177 871 265 q 694 40 775 89 q 514 -10 613 -10 m 490 75 q 633 113 569 75 q 735 219 697 150 q 772 381 772 288 q 735 542 772 474 q 633 647 697 610 q 490 683 569 683 q 347 647 411 683 q 246 542 283 610 q 208 381 208 474 q 246 219 208 288 q 347 113 283 150 q 490 75 411 75 z "},"c":{"ha":851,"x_min":67,"x_max":785,"o":"m 435 -10 q 244 38 328 -10 q 114 172 161 85 q 67 379 67 260 q 114 587 67 500 q 244 721 161 674 q 435 768 328 768 q 549 754 496 768 q 646 711 603 740 q 721 638 689 682 q 769 536 753 594 l 681 507 q 592 638 654 592 q 435 685 531 685 q 299 651 361 685 q 201 550 238 618 q 165 379 165 482 q 201 208 165 276 q 299 106 238 140 q 435 72 361 72 q 610 130 546 72 q 696 276 675 188 l 785 254 q 718 116 765 175 q 599 24 671 57 q 435 -10 528 -10 z "},"ć":{"ha":851,"x_min":67,"x_max":785,"o":"m 435 -10 q 244 38 328 -10 q 114 172 161 85 q 67 379 67 260 q 114 587 67 500 q 244 721 161 674 q 435 768 328 768 q 549 754 496 768 q 646 711 603 740 q 721 638 689 682 q 769 536 753 594 l 681 507 q 592 638 654 592 q 435 685 531 685 q 299 651 361 685 q 201 550 238 618 q 165 379 165 482 q 201 208 165 276 q 299 106 238 140 q 435 72 361 72 q 610 130 546 72 q 696 276 675 188 l 785 254 q 718 116 765 175 q 599 24 671 57 q 435 -10 528 -10 m 271 817 l 271 892 l 556 1069 l 556 982 l 271 817 z "},"č":{"ha":851,"x_min":67,"x_max":785,"o":"m 435 -10 q 244 38 328 -10 q 114 172 161 85 q 67 379 67 260 q 114 587 67 500 q 244 721 161 674 q 435 768 328 768 q 549 754 496 768 q 646 711 603 740 q 721 638 689 682 q 769 536 753 594 l 681 507 q 592 638 654 592 q 435 685 531 685 q 299 651 361 685 q 201 550 238 618 q 165 379 165 482 q 201 208 165 276 q 299 106 238 140 q 435 72 361 72 q 610 130 546 72 q 696 276 675 188 l 785 254 q 718 116 765 175 q 599 24 671 57 q 435 -10 528 -10 m 428 838 l 242 951 l 242 1029 l 428 914 l 614 1029 l 614 951 l 428 838 z "},"ç":{"ha":851,"x_min":67,"x_max":785,"o":"m 435 -10 q 244 38 328 -10 q 114 172 161 85 q 67 379 67 260 q 114 587 67 500 q 244 721 161 674 q 435 768 328 768 q 549 754 496 768 q 646 711 603 740 q 721 638 689 682 q 769 536 753 594 l 681 507 q 592 638 654 592 q 435 685 531 685 q 299 651 361 685 q 201 550 238 618 q 165 379 165 482 q 201 208 165 276 q 299 106 238 140 q 435 72 361 72 q 610 130 546 72 q 696 276 675 188 l 785 254 q 718 116 765 175 q 599 24 671 57 q 435 -10 528 -10 m 343 -358 l 343 -293 l 463 -293 q 539 -275 515 -293 q 563 -222 563 -257 q 539 -173 563 -190 q 463 -156 515 -156 l 399 -156 l 399 10 l 467 10 l 467 -93 q 560 -106 521 -92 q 622 -150 600 -121 q 644 -222 644 -179 q 624 -294 644 -264 q 567 -342 604 -325 q 482 -358 531 -358 l 343 -358 z "},"ċ":{"ha":851,"x_min":67,"x_max":785,"o":"m 435 -10 q 244 38 328 -10 q 114 172 161 85 q 67 379 67 260 q 114 587 67 500 q 244 721 161 674 q 435 768 328 768 q 549 754 496 768 q 646 711 603 740 q 721 638 689 682 q 769 536 753 594 l 681 507 q 592 638 654 592 q 435 685 531 685 q 299 651 361 685 q 201 550 238 618 q 165 379 165 482 q 201 208 165 276 q 299 106 238 140 q 435 72 361 72 q 610 130 546 72 q 696 276 675 188 l 785 254 q 718 116 765 175 q 599 24 671 57 q 435 -10 528 -10 m 428 840 q 383 859 401 840 q 364 904 364 878 q 383 949 364 931 q 428 968 401 968 q 473 949 454 968 q 492 904 492 931 q 473 859 492 878 q 428 840 454 840 z "},"d":{"ha":938,"x_min":67,"x_max":826,"o":"m 424 -10 q 244 40 325 -10 q 115 177 163 89 q 67 381 67 265 q 115 583 67 496 q 244 719 163 671 q 424 768 325 768 q 613 719 531 768 q 729 589 694 671 l 729 1028 l 826 1028 l 826 0 l 790 0 q 745 16 761 0 q 729 61 729 32 l 729 172 q 610 40 694 90 q 424 -10 526 -10 m 447 75 q 590 113 526 75 q 692 219 654 150 q 729 381 729 288 q 692 542 729 474 q 590 647 654 610 q 447 683 526 683 q 304 647 368 683 q 203 542 240 610 q 165 381 165 474 q 203 219 165 288 q 304 113 240 150 q 447 75 368 75 z "},"ď":{"ha":1050,"x_min":67,"x_max":1038,"o":"m 424 -10 q 244 40 325 -10 q 115 177 163 89 q 67 381 67 265 q 115 583 67 496 q 244 719 163 671 q 424 768 325 768 q 613 719 531 768 q 729 589 694 671 l 729 1028 l 826 1028 l 826 0 l 790 0 q 745 16 761 0 q 729 61 729 32 l 729 172 q 610 40 694 90 q 424 -10 526 -10 m 447 75 q 590 113 526 75 q 692 219 654 150 q 729 381 729 288 q 692 542 729 474 q 590 647 654 610 q 447 683 526 683 q 304 647 368 683 q 203 542 240 610 q 165 381 165 474 q 203 219 165 288 q 304 113 240 150 q 447 75 368 75 m 885 792 l 885 847 q 931 855 910 846 q 967 881 953 864 q 983 917 981 897 q 950 907 969 907 q 905 922 924 907 q 886 967 886 936 q 908 1015 886 996 q 960 1035 929 1035 q 1001 1021 983 1035 q 1028 985 1018 1007 q 1038 942 1038 964 q 1016 860 1038 894 q 960 807 994 825 q 885 792 925 789 z "},"đ":{"ha":932,"x_min":67,"x_max":924,"o":"m 429 915 l 924 915 l 924 843 l 429 843 l 429 915 m 424 -10 q 244 40 325 -10 q 115 177 163 89 q 67 381 67 265 q 115 583 67 496 q 244 719 163 671 q 424 768 325 768 q 613 719 531 768 q 729 589 694 671 l 729 1028 l 826 1028 l 826 0 l 790 0 q 745 16 761 0 q 729 61 729 32 l 729 172 q 610 40 694 90 q 424 -10 526 -10 m 447 75 q 590 113 526 75 q 692 219 654 150 q 729 381 729 288 q 692 542 729 474 q 590 647 654 610 q 447 683 526 683 q 304 647 368 683 q 203 542 240 610 q 165 381 165 474 q 203 219 165 288 q 304 113 240 150 q 447 75 368 75 z "},"ð":{"ha":889,"x_min":67,"x_max":822,"o":"m 769 1031 l 769 974 l 358 832 l 358 889 l 769 1031 m 442 72 q 582 108 518 72 q 685 212 646 143 q 724 379 724 281 q 685 549 724 481 q 582 651 646 617 q 443 686 518 686 q 303 652 367 686 q 203 552 240 618 q 165 388 165 486 q 202 215 165 285 q 301 108 239 144 q 442 72 364 72 m 436 768 q 619 717 549 768 q 732 571 690 665 l 724 571 q 662 726 703 647 q 559 881 621 804 q 408 1028 497 958 l 508 1028 q 683 850 614 943 q 788 654 753 757 q 822 433 822 551 q 773 186 822 285 q 638 39 724 88 q 442 -10 553 -10 q 245 40 329 -10 q 114 178 161 89 q 67 388 67 268 q 115 588 67 503 q 246 721 163 674 q 436 768 329 768 z "},"e":{"ha":869,"x_min":67,"x_max":817,"o":"m 468 -10 q 310 16 383 -10 q 183 91 238 42 q 97 211 128 140 q 67 374 67 282 q 99 528 67 457 q 189 654 132 600 q 318 738 246 708 q 468 768 390 768 q 593 751 536 768 q 691 701 650 733 q 755 628 732 669 q 778 539 778 588 q 740 419 778 467 q 638 346 701 372 q 497 309 574 319 q 343 299 421 299 q 280 300 311 299 q 220 305 249 301 q 167 311 192 308 q 212 194 174 249 q 316 108 250 140 q 468 75 382 75 q 586 98 532 75 q 681 153 640 121 q 746 211 722 185 l 817 156 q 738 80 789 118 q 619 16 688 42 q 468 -10 551 -10 m 333 383 q 455 391 393 383 q 568 415 517 399 q 651 460 619 432 q 683 531 683 489 q 655 610 683 575 q 578 664 626 644 q 474 683 531 683 q 318 641 388 683 q 207 533 249 599 q 161 394 165 467 q 235 386 190 389 q 333 383 281 383 z "},"é":{"ha":869,"x_min":67,"x_max":817,"o":"m 468 -10 q 310 16 383 -10 q 183 91 238 42 q 97 211 128 140 q 67 374 67 282 q 99 528 67 457 q 189 654 132 600 q 318 738 246 708 q 468 768 390 768 q 593 751 536 768 q 691 701 650 733 q 755 628 732 669 q 778 539 778 588 q 740 419 778 467 q 638 346 701 372 q 497 309 574 319 q 343 299 421 299 q 280 300 311 299 q 220 305 249 301 q 167 311 192 308 q 212 194 174 249 q 316 108 250 140 q 468 75 382 75 q 586 98 532 75 q 681 153 640 121 q 746 211 722 185 l 817 156 q 738 80 789 118 q 619 16 688 42 q 468 -10 551 -10 m 333 383 q 455 391 393 383 q 568 415 517 399 q 651 460 619 432 q 683 531 683 489 q 655 610 683 575 q 578 664 626 644 q 474 683 531 683 q 318 641 388 683 q 207 533 249 599 q 161 394 165 467 q 235 386 190 389 q 333 383 281 383 m 569 1069 l 569 982 l 285 817 l 285 892 l 569 1069 z "},"ĕ":{"ha":869,"x_min":67,"x_max":817,"o":"m 468 -10 q 310 16 383 -10 q 183 91 238 42 q 97 211 128 140 q 67 374 67 282 q 99 528 67 457 q 189 654 132 600 q 318 738 246 708 q 468 768 390 768 q 593 751 536 768 q 691 701 650 733 q 755 628 732 669 q 778 539 778 588 q 740 419 778 467 q 638 346 701 372 q 497 309 574 319 q 343 299 421 299 q 280 300 311 299 q 220 305 249 301 q 167 311 192 308 q 212 194 174 249 q 316 108 250 140 q 468 75 382 75 q 586 98 532 75 q 681 153 640 121 q 746 211 722 185 l 817 156 q 738 80 789 118 q 619 16 688 42 q 468 -10 551 -10 m 333 383 q 455 391 393 383 q 568 415 517 399 q 651 460 619 432 q 683 531 683 489 q 655 610 683 575 q 578 664 626 644 q 474 683 531 683 q 318 641 388 683 q 207 533 249 599 q 161 394 165 467 q 235 386 190 389 q 333 383 281 383 m 442 842 q 301 892 349 842 q 254 1013 254 943 l 254 1031 l 315 1031 q 345 949 315 978 q 442 919 375 919 q 538 949 508 919 q 568 1031 568 978 l 631 1031 l 631 1013 q 583 892 631 943 q 442 842 536 842 z "},"ě":{"ha":869,"x_min":67,"x_max":817,"o":"m 468 -10 q 310 16 383 -10 q 183 91 238 42 q 97 211 128 140 q 67 374 67 282 q 99 528 67 457 q 189 654 132 600 q 318 738 246 708 q 468 768 390 768 q 593 751 536 768 q 691 701 650 733 q 755 628 732 669 q 778 539 778 588 q 740 419 778 467 q 638 346 701 372 q 497 309 574 319 q 343 299 421 299 q 280 300 311 299 q 220 305 249 301 q 167 311 192 308 q 212 194 174 249 q 316 108 250 140 q 468 75 382 75 q 586 98 532 75 q 681 153 640 121 q 746 211 722 185 l 817 156 q 738 80 789 118 q 619 16 688 42 q 468 -10 551 -10 m 333 383 q 455 391 393 383 q 568 415 517 399 q 651 460 619 432 q 683 531 683 489 q 655 610 683 575 q 578 664 626 644 q 474 683 531 683 q 318 641 388 683 q 207 533 249 599 q 161 394 165 467 q 235 386 190 389 q 333 383 281 383 m 628 1029 l 628 951 l 442 838 l 256 951 l 256 1029 l 442 914 l 628 1029 z "},"ê":{"ha":869,"x_min":67,"x_max":817,"o":"m 468 -10 q 310 16 383 -10 q 183 91 238 42 q 97 211 128 140 q 67 374 67 282 q 99 528 67 457 q 189 654 132 600 q 318 738 246 708 q 468 768 390 768 q 593 751 536 768 q 691 701 650 733 q 755 628 732 669 q 778 539 778 588 q 740 419 778 467 q 638 346 701 372 q 497 309 574 319 q 343 299 421 299 q 280 300 311 299 q 220 305 249 301 q 167 311 192 308 q 212 194 174 249 q 316 108 250 140 q 468 75 382 75 q 586 98 532 75 q 681 153 640 121 q 746 211 722 185 l 817 156 q 738 80 789 118 q 619 16 688 42 q 468 -10 551 -10 m 333 383 q 455 391 393 383 q 568 415 517 399 q 651 460 619 432 q 683 531 683 489 q 655 610 683 575 q 578 664 626 644 q 474 683 531 683 q 318 641 388 683 q 207 533 249 599 q 161 394 165 467 q 235 386 190 389 q 333 383 281 383 m 628 797 l 442 914 l 256 797 l 256 876 l 442 990 l 628 876 l 628 797 z "},"ë":{"ha":869,"x_min":67,"x_max":817,"o":"m 468 -10 q 310 16 383 -10 q 183 91 238 42 q 97 211 128 140 q 67 374 67 282 q 99 528 67 457 q 189 654 132 600 q 318 738 246 708 q 468 768 390 768 q 593 751 536 768 q 691 701 650 733 q 755 628 732 669 q 778 539 778 588 q 740 419 778 467 q 638 346 701 372 q 497 309 574 319 q 343 299 421 299 q 280 300 311 299 q 220 305 249 301 q 167 311 192 308 q 212 194 174 249 q 316 108 250 140 q 468 75 382 75 q 586 98 532 75 q 681 153 640 121 q 746 211 722 185 l 817 156 q 738 80 789 118 q 619 16 688 42 q 468 -10 551 -10 m 333 383 q 455 391 393 383 q 568 415 517 399 q 651 460 619 432 q 683 531 683 489 q 655 610 683 575 q 578 664 626 644 q 474 683 531 683 q 318 641 388 683 q 207 533 249 599 q 161 394 165 467 q 235 386 190 389 q 333 383 281 383 m 336 865 q 291 884 310 865 q 272 929 272 903 q 291 974 272 956 q 336 993 310 993 q 381 974 363 993 q 400 929 400 956 q 381 884 400 903 q 336 865 363 865 m 550 865 q 505 884 524 865 q 486 929 486 903 q 505 974 486 956 q 550 993 524 993 q 594 974 576 993 q 613 929 613 956 q 594 884 613 903 q 550 865 576 865 z "},"ė":{"ha":869,"x_min":67,"x_max":817,"o":"m 468 -10 q 310 16 383 -10 q 183 91 238 42 q 97 211 128 140 q 67 374 67 282 q 99 528 67 457 q 189 654 132 600 q 318 738 246 708 q 468 768 390 768 q 593 751 536 768 q 691 701 650 733 q 755 628 732 669 q 778 539 778 588 q 740 419 778 467 q 638 346 701 372 q 497 309 574 319 q 343 299 421 299 q 280 300 311 299 q 220 305 249 301 q 167 311 192 308 q 212 194 174 249 q 316 108 250 140 q 468 75 382 75 q 586 98 532 75 q 681 153 640 121 q 746 211 722 185 l 817 156 q 738 80 789 118 q 619 16 688 42 q 468 -10 551 -10 m 333 383 q 455 391 393 383 q 568 415 517 399 q 651 460 619 432 q 683 531 683 489 q 655 610 683 575 q 578 664 626 644 q 474 683 531 683 q 318 641 388 683 q 207 533 249 599 q 161 394 165 467 q 235 386 190 389 q 333 383 281 383 m 442 822 q 397 841 415 822 q 378 886 378 860 q 397 931 378 913 q 442 950 415 950 q 487 931 468 950 q 506 886 506 913 q 487 841 506 860 q 442 822 468 822 z "},"è":{"ha":869,"x_min":67,"x_max":817,"o":"m 468 -10 q 310 16 383 -10 q 183 91 238 42 q 97 211 128 140 q 67 374 67 282 q 99 528 67 457 q 189 654 132 600 q 318 738 246 708 q 468 768 390 768 q 593 751 536 768 q 691 701 650 733 q 755 628 732 669 q 778 539 778 588 q 740 419 778 467 q 638 346 701 372 q 497 309 574 319 q 343 299 421 299 q 280 300 311 299 q 220 305 249 301 q 167 311 192 308 q 212 194 174 249 q 316 108 250 140 q 468 75 382 75 q 586 98 532 75 q 681 153 640 121 q 746 211 722 185 l 817 156 q 738 80 789 118 q 619 16 688 42 q 468 -10 551 -10 m 333 383 q 455 391 393 383 q 568 415 517 399 q 651 460 619 432 q 683 531 683 489 q 655 610 683 575 q 578 664 626 644 q 474 683 531 683 q 318 641 388 683 q 207 533 249 599 q 161 394 165 467 q 235 386 190 389 q 333 383 281 383 m 285 1069 l 569 892 l 569 817 l 285 982 l 285 1069 z "},"ē":{"ha":869,"x_min":67,"x_max":817,"o":"m 468 -10 q 310 16 383 -10 q 183 91 238 42 q 97 211 128 140 q 67 374 67 282 q 99 528 67 457 q 189 654 132 600 q 318 738 246 708 q 468 768 390 768 q 593 751 536 768 q 691 701 650 733 q 755 628 732 669 q 778 539 778 588 q 740 419 778 467 q 638 346 701 372 q 497 309 574 319 q 343 299 421 299 q 280 300 311 299 q 220 305 249 301 q 167 311 192 308 q 212 194 174 249 q 316 108 250 140 q 468 75 382 75 q 586 98 532 75 q 681 153 640 121 q 746 211 722 185 l 817 156 q 738 80 789 118 q 619 16 688 42 q 468 -10 551 -10 m 333 383 q 455 391 393 383 q 568 415 517 399 q 651 460 619 432 q 683 531 683 489 q 655 610 683 575 q 578 664 626 644 q 474 683 531 683 q 318 641 388 683 q 207 533 249 599 q 161 394 165 467 q 235 386 190 389 q 333 383 281 383 m 206 972 l 676 972 l 676 897 l 206 897 l 206 972 z "},"ę":{"ha":883,"x_min":67,"x_max":817,"o":"m 450 -279 q 375 -267 411 -279 q 316 -226 339 -254 q 293 -151 293 -197 q 303 -99 293 -125 q 338 -50 314 -74 q 399 -4 361 -26 q 233 57 308 10 q 112 184 157 104 q 67 374 67 264 q 99 530 67 458 q 185 655 131 601 q 312 738 240 708 q 463 768 383 768 q 619 738 547 768 q 734 656 690 707 q 778 539 778 604 q 740 421 778 468 q 638 347 701 374 q 497 308 574 319 q 343 297 421 297 q 280 299 311 297 q 220 303 249 300 q 167 310 192 307 q 216 193 175 246 q 322 109 257 140 q 465 78 386 78 q 558 92 511 78 q 651 136 604 106 q 740 215 697 167 l 817 156 q 689 47 761 88 q 536 -4 617 7 l 463 -40 q 394 -89 414 -64 q 375 -142 375 -114 q 399 -194 375 -176 q 461 -212 422 -212 q 550 -193 503 -212 l 550 -261 q 501 -274 528 -269 q 450 -279 475 -279 m 333 385 q 456 391 394 385 q 569 414 518 397 q 652 460 621 431 q 683 533 683 489 q 655 611 683 578 q 578 664 626 644 q 474 683 531 683 q 318 641 388 683 q 207 533 249 599 q 161 396 165 467 q 235 388 190 390 q 333 385 281 385 z "},"ẽ":{"ha":869,"x_min":67,"x_max":817,"o":"m 468 -10 q 310 16 383 -10 q 183 91 238 42 q 97 211 128 140 q 67 374 67 282 q 99 528 67 457 q 189 654 132 600 q 318 738 246 708 q 468 768 390 768 q 593 751 536 768 q 691 701 650 733 q 755 628 732 669 q 778 539 778 588 q 740 419 778 467 q 638 346 701 372 q 497 309 574 319 q 343 299 421 299 q 280 300 311 299 q 220 305 249 301 q 167 311 192 308 q 212 194 174 249 q 316 108 250 140 q 468 75 382 75 q 586 98 532 75 q 681 153 640 121 q 746 211 722 185 l 817 156 q 738 80 789 118 q 619 16 688 42 q 468 -10 551 -10 m 333 383 q 455 391 393 383 q 568 415 517 399 q 651 460 619 432 q 683 531 683 489 q 655 610 683 575 q 578 664 626 644 q 474 683 531 683 q 318 641 388 683 q 207 533 249 599 q 161 394 165 467 q 235 386 190 389 q 333 383 281 383 m 532 839 q 472 856 496 839 q 426 888 447 872 q 376 904 406 904 q 338 889 354 904 q 318 842 322 874 l 258 842 q 299 938 267 906 q 381 971 332 971 q 440 955 417 971 q 485 922 464 939 q 536 906 507 906 q 576 922 560 906 q 597 968 593 938 l 656 968 q 615 873 650 907 q 532 839 581 839 z "},"f":{"ha":451,"x_min":31,"x_max":410,"o":"m 136 0 l 136 676 l 31 676 l 31 758 l 136 758 l 136 811 q 151 919 136 874 q 199 993 167 964 q 283 1037 232 1022 q 404 1051 333 1051 l 404 968 q 304 952 342 968 q 250 902 267 936 q 233 811 233 868 l 233 758 l 410 758 l 410 676 l 233 676 l 233 0 l 136 0 z "},"g":{"ha":938,"x_min":67,"x_max":826,"o":"m 465 -368 q 294 -335 368 -368 q 169 -245 221 -301 q 88 -122 118 -189 l 174 -79 q 291 -227 218 -171 q 465 -283 364 -283 q 602 -250 543 -283 q 695 -156 661 -217 q 729 -15 729 -96 l 729 172 q 610 40 694 90 q 424 -10 526 -10 q 239 40 319 -10 q 113 177 158 89 q 67 381 67 265 q 113 583 67 496 q 239 719 158 671 q 424 768 319 768 q 613 719 531 768 q 729 589 694 671 l 729 758 l 826 758 l 826 -15 q 801 -155 826 -90 q 727 -267 775 -219 q 613 -342 679 -315 q 465 -368 546 -368 m 447 75 q 590 113 526 75 q 692 219 654 150 q 729 381 729 288 q 692 542 729 474 q 590 647 654 610 q 447 683 526 683 q 304 647 368 683 q 203 542 240 610 q 165 381 165 474 q 203 219 165 288 q 304 113 240 150 q 447 75 368 75 z "},"ğ":{"ha":938,"x_min":67,"x_max":826,"o":"m 465 -368 q 294 -335 368 -368 q 169 -245 221 -301 q 88 -122 118 -189 l 174 -79 q 291 -227 218 -171 q 465 -283 364 -283 q 602 -250 543 -283 q 695 -156 661 -217 q 729 -15 729 -96 l 729 172 q 610 40 694 90 q 424 -10 526 -10 q 239 40 319 -10 q 113 177 158 89 q 67 381 67 265 q 113 583 67 496 q 239 719 158 671 q 424 768 319 768 q 613 719 531 768 q 729 589 694 671 l 729 758 l 826 758 l 826 -15 q 801 -155 826 -90 q 727 -267 775 -219 q 613 -342 679 -315 q 465 -368 546 -368 m 447 75 q 590 113 526 75 q 692 219 654 150 q 729 381 729 288 q 692 542 729 474 q 590 647 654 610 q 447 683 526 683 q 304 647 368 683 q 203 542 240 610 q 165 381 165 474 q 203 219 165 288 q 304 113 240 150 q 447 75 368 75 m 469 842 q 329 892 376 842 q 282 1013 282 943 l 282 1031 l 343 1031 q 373 949 343 978 q 469 919 403 919 q 566 949 536 919 q 596 1031 596 978 l 658 1031 l 658 1013 q 611 892 658 943 q 469 842 564 842 z "},"ģ":{"ha":938,"x_min":67,"x_max":826,"o":"m 536 1069 l 536 1014 q 490 1006 511 1015 q 454 981 468 997 q 438 944 440 965 q 471 954 451 954 q 517 940 499 954 q 535 894 535 926 q 514 846 535 865 q 461 826 493 826 q 421 840 439 826 q 393 876 403 854 q 383 919 383 897 q 405 1001 383 967 q 462 1054 426 1036 q 536 1069 497 1072 m 465 -368 q 294 -335 368 -368 q 169 -245 221 -301 q 88 -122 118 -189 l 174 -79 q 291 -227 218 -171 q 465 -283 364 -283 q 602 -250 543 -283 q 695 -156 661 -217 q 729 -15 729 -96 l 729 172 q 610 40 694 90 q 424 -10 526 -10 q 239 40 319 -10 q 113 177 158 89 q 67 381 67 265 q 113 583 67 496 q 239 719 158 671 q 424 768 319 768 q 613 719 531 768 q 729 589 694 671 l 729 758 l 826 758 l 826 -15 q 801 -155 826 -90 q 727 -267 775 -219 q 613 -342 679 -315 q 465 -368 546 -368 m 447 75 q 590 113 526 75 q 692 219 654 150 q 729 381 729 288 q 692 542 729 474 q 590 647 654 610 q 447 683 526 683 q 304 647 368 683 q 203 542 240 610 q 165 381 165 474 q 203 219 165 288 q 304 113 240 150 q 447 75 368 75 z "},"ġ":{"ha":938,"x_min":67,"x_max":826,"o":"m 465 -368 q 294 -335 368 -368 q 169 -245 221 -301 q 88 -122 118 -189 l 174 -79 q 291 -227 218 -171 q 465 -283 364 -283 q 602 -250 543 -283 q 695 -156 661 -217 q 729 -15 729 -96 l 729 172 q 610 40 694 90 q 424 -10 526 -10 q 239 40 319 -10 q 113 177 158 89 q 67 381 67 265 q 113 583 67 496 q 239 719 158 671 q 424 768 319 768 q 613 719 531 768 q 729 589 694 671 l 729 758 l 826 758 l 826 -15 q 801 -155 826 -90 q 727 -267 775 -219 q 613 -342 679 -315 q 465 -368 546 -368 m 447 75 q 590 113 526 75 q 692 219 654 150 q 729 381 729 288 q 692 542 729 474 q 590 647 654 610 q 447 683 526 683 q 304 647 368 683 q 203 542 240 610 q 165 381 165 474 q 203 219 165 288 q 304 113 240 150 q 447 75 368 75 m 469 822 q 424 841 443 822 q 406 886 406 860 q 424 931 406 913 q 469 950 443 950 q 515 931 496 950 q 533 886 533 913 q 515 841 533 860 q 469 822 496 822 z "},"h":{"ha":879,"x_min":111,"x_max":775,"o":"m 111 0 l 111 1028 l 208 1028 l 208 593 q 262 678 225 639 q 353 743 299 718 q 478 768 408 768 q 638 726 571 768 q 740 612 704 685 q 775 446 775 539 l 775 0 l 679 0 l 679 418 q 615 614 679 544 q 449 683 551 683 q 328 647 382 683 q 241 544 274 610 q 208 390 208 478 l 208 0 l 111 0 z "},"ħ":{"ha":879,"x_min":21,"x_max":775,"o":"m 21 843 l 21 915 l 515 915 l 515 843 l 21 843 m 111 0 l 111 1028 l 208 1028 l 208 593 q 262 678 225 639 q 353 743 299 718 q 478 768 408 768 q 638 726 571 768 q 740 612 704 685 q 775 446 775 539 l 775 0 l 679 0 l 679 418 q 615 614 679 544 q 449 683 551 683 q 328 647 382 683 q 241 544 274 610 q 208 390 208 478 l 208 0 l 111 0 z "},"i":{"ha":332,"x_min":89,"x_max":244,"o":"m 118 0 l 118 758 l 215 758 l 215 0 l 118 0 m 167 901 q 113 923 136 901 q 89 976 89 944 q 110 1028 89 1008 q 167 1049 132 1049 q 222 1028 199 1049 q 244 976 244 1008 q 222 923 244 944 q 167 901 199 901 z "},"ı":{"ha":318,"x_min":111,"x_max":208,"o":"m 111 758 l 208 758 l 208 0 l 111 0 l 111 758 z "},"í":{"ha":318,"x_min":3,"x_max":288,"o":"m 111 758 l 208 758 l 208 0 l 111 0 l 111 758 m 288 1069 l 288 982 l 3 817 l 3 892 l 288 1069 z "},"ĭ":{"ha":318,"x_min":-28,"x_max":349,"o":"m 111 758 l 208 758 l 208 0 l 111 0 l 111 758 m 160 842 q 19 892 67 842 q -28 1013 -28 943 l -28 1031 l 33 1031 q 63 949 33 978 q 160 919 93 919 q 256 949 226 919 q 286 1031 286 978 l 349 1031 l 349 1013 q 301 892 349 943 q 160 842 254 842 z "},"î":{"ha":318,"x_min":-26,"x_max":346,"o":"m 111 758 l 208 758 l 208 0 l 111 0 l 111 758 m 346 797 l 160 914 l -26 797 l -26 876 l 160 990 l 346 876 l 346 797 z "},"ï":{"ha":318,"x_min":-10,"x_max":331,"o":"m 111 758 l 208 758 l 208 0 l 111 0 l 111 758 m 54 865 q 9 884 28 865 q -10 929 -10 903 q 9 974 -10 956 q 54 993 28 993 q 99 974 81 993 q 118 929 118 956 q 99 884 118 903 q 54 865 81 865 m 268 865 q 223 884 242 865 q 204 929 204 903 q 223 974 204 956 q 268 993 242 993 q 313 974 294 993 q 331 929 331 956 q 313 884 331 903 q 268 865 294 865 z "},"ì":{"ha":318,"x_min":3,"x_max":288,"o":"m 111 758 l 208 758 l 208 0 l 111 0 l 111 758 m 3 1069 l 288 892 l 288 817 l 3 982 l 3 1069 z "},"ī":{"ha":318,"x_min":-76,"x_max":394,"o":"m 111 758 l 208 758 l 208 0 l 111 0 l 111 758 m -76 972 l 394 972 l 394 897 l -76 897 l -76 972 z "},"į":{"ha":332,"x_min":-37,"x_max":244,"o":"m 118 0 l 118 758 l 215 758 l 215 0 l 118 0 m 167 901 q 113 923 136 901 q 89 976 89 944 q 110 1028 89 1008 q 167 1049 132 1049 q 222 1028 199 1049 q 244 976 244 1008 q 222 923 244 944 q 167 901 199 901 m 189 53 l 215 0 l 132 -40 q 64 -89 83 -64 q 44 -142 44 -114 q 68 -194 44 -176 q 131 -212 92 -212 q 219 -193 172 -212 l 219 -261 q 171 -274 197 -269 q 119 -279 144 -279 q 44 -267 81 -279 q -15 -226 8 -254 q -37 -151 -37 -197 q -23 -90 -37 -119 q 25 -34 -8 -61 q 113 18 58 -7 l 189 53 z "},"ĩ":{"ha":318,"x_min":-24,"x_max":374,"o":"m 111 758 l 208 758 l 208 0 l 111 0 l 111 758 m 250 839 q 190 856 214 839 q 144 888 165 872 q 94 904 124 904 q 56 889 72 904 q 36 842 40 874 l -24 842 q 17 938 -15 906 q 99 971 50 971 q 158 955 135 971 q 203 922 182 939 q 254 906 225 906 q 294 922 278 906 q 315 968 311 938 l 374 968 q 333 873 368 907 q 250 839 299 839 z "},"j":{"ha":329,"x_min":-56,"x_max":240,"o":"m 53 -368 q -1 -360 26 -368 q -56 -336 -28 -353 l -25 -262 q 35 -276 7 -276 q 97 -244 75 -276 q 119 -157 119 -212 l 119 758 l 217 758 l 217 -179 q 194 -283 217 -240 q 135 -347 172 -325 q 53 -368 97 -368 m 163 901 q 108 923 132 901 q 85 976 85 944 q 106 1028 85 1008 q 163 1049 128 1049 q 217 1028 194 1049 q 240 976 240 1008 q 217 923 240 944 q 163 901 194 901 z "},"ȷ":{"ha":306,"x_min":-56,"x_max":217,"o":"m 53 -368 q -1 -360 26 -368 q -56 -336 -28 -353 l -25 -262 q 35 -276 7 -276 q 97 -244 75 -276 q 119 -157 119 -212 l 119 758 l 217 758 l 217 -179 q 194 -283 217 -240 q 135 -347 172 -325 q 53 -368 97 -368 z "},"k":{"ha":736,"x_min":111,"x_max":722,"o":"m 111 0 l 111 1028 l 208 1028 l 208 426 q 382 492 306 446 q 509 606 458 538 q 578 758 560 674 l 686 758 q 611 583 667 660 q 485 456 556 506 q 347 385 414 406 q 453 341 394 375 q 568 255 511 307 q 667 138 625 203 q 722 0 708 74 l 614 0 q 563 114 601 57 q 469 218 525 171 q 346 296 413 265 q 208 332 279 326 l 208 0 l 111 0 z "},"ķ":{"ha":736,"x_min":111,"x_max":722,"o":"m 289 -314 l 289 -258 q 335 -251 314 -260 q 371 -225 357 -242 q 388 -189 385 -208 q 354 -199 374 -199 q 309 -184 328 -199 q 290 -139 290 -169 q 312 -90 290 -110 q 364 -71 333 -71 q 405 -85 388 -71 q 432 -120 422 -99 q 442 -164 442 -142 q 420 -246 442 -211 q 364 -299 399 -281 q 289 -314 329 -317 m 111 0 l 111 1028 l 208 1028 l 208 426 q 382 492 306 446 q 509 606 458 538 q 578 758 560 674 l 686 758 q 611 583 667 660 q 485 456 556 506 q 347 385 414 406 q 453 341 394 375 q 568 255 511 307 q 667 138 625 203 q 722 0 708 74 l 614 0 q 563 114 601 57 q 469 218 525 171 q 346 296 413 265 q 208 332 279 326 l 208 0 l 111 0 z "},"l":{"ha":367,"x_min":111,"x_max":322,"o":"m 111 133 l 111 1028 l 208 1028 l 208 142 q 226 92 208 108 q 269 76 244 76 q 300 82 285 76 l 322 8 q 251 -10 293 -10 q 186 4 218 -10 q 133 50 154 18 q 111 133 111 82 z "},"ĺ":{"ha":367,"x_min":3,"x_max":322,"o":"m 111 133 l 111 1028 l 208 1028 l 208 142 q 226 92 208 108 q 269 76 244 76 q 300 82 285 76 l 322 8 q 251 -10 293 -10 q 186 4 218 -10 q 133 50 154 18 q 111 133 111 82 m 288 1339 l 288 1251 l 3 1086 l 3 1161 l 288 1339 z "},"ľ":{"ha":436,"x_min":111,"x_max":439,"o":"m 111 133 l 111 1028 l 208 1028 l 208 142 q 226 92 208 108 q 269 76 244 76 q 300 82 285 76 l 322 8 q 251 -10 293 -10 q 186 4 218 -10 q 133 50 154 18 q 111 133 111 82 m 286 785 l 286 840 q 333 848 311 839 q 368 874 354 857 q 385 910 382 890 q 351 900 371 900 q 306 915 325 900 q 288 960 288 929 q 309 1008 288 989 q 361 1028 331 1028 q 402 1014 385 1028 q 429 978 419 1000 q 439 935 439 957 q 417 853 439 888 q 361 800 396 818 q 286 785 326 782 z "},"ļ":{"ha":403,"x_min":96,"x_max":307,"o":"m 106 -314 l 106 -258 q 152 -251 131 -260 q 188 -225 174 -242 q 204 -189 201 -208 q 171 -199 190 -199 q 126 -184 144 -199 q 107 -139 107 -169 q 128 -90 107 -110 q 181 -71 150 -71 q 222 -85 204 -71 q 249 -120 239 -99 q 258 -164 258 -142 q 237 -246 258 -211 q 181 -299 215 -281 q 106 -314 146 -317 m 96 133 l 96 1028 l 193 1028 l 193 142 q 211 92 193 108 q 254 76 229 76 q 285 82 269 76 l 307 8 q 236 -10 278 -10 q 171 4 203 -10 q 117 50 139 18 q 96 133 96 82 z "},"ł":{"ha":344,"x_min":13,"x_max":326,"o":"m 256 -10 q 190 4 222 -10 q 137 50 158 18 q 115 133 115 82 l 115 1028 l 213 1028 l 213 142 q 231 92 213 108 q 274 76 249 76 q 288 78 281 76 q 304 82 296 79 l 326 8 q 294 -5 313 0 q 256 -10 275 -10 m 13 476 l 13 553 l 319 686 l 319 610 l 13 476 z "},"m":{"ha":1419,"x_min":111,"x_max":1315,"o":"m 111 0 l 111 758 l 208 758 l 208 593 q 260 678 225 639 q 347 743 296 718 q 465 768 399 768 q 643 716 568 768 q 744 571 718 664 q 800 672 761 628 q 896 742 839 717 q 1019 768 953 768 q 1235 683 1156 768 q 1315 450 1315 597 l 1315 0 l 1219 0 l 1219 429 q 1158 618 1219 553 q 997 683 1096 683 q 828 606 894 683 q 763 390 763 529 l 763 0 l 667 0 l 667 418 q 606 614 667 544 q 443 683 544 683 q 324 647 376 683 q 240 544 271 610 q 208 390 208 478 l 208 0 l 111 0 z "},"n":{"ha":879,"x_min":111,"x_max":775,"o":"m 111 0 l 111 758 l 208 758 l 208 593 q 262 678 225 639 q 353 743 299 718 q 478 768 408 768 q 638 726 571 768 q 740 612 704 685 q 775 446 775 539 l 775 0 l 679 0 l 679 418 q 615 614 679 544 q 449 683 551 683 q 328 647 382 683 q 241 544 274 610 q 208 390 208 478 l 208 0 l 111 0 z "},"ń":{"ha":879,"x_min":111,"x_max":775,"o":"m 111 0 l 111 758 l 208 758 l 208 593 q 262 678 225 639 q 353 743 299 718 q 478 768 408 768 q 638 726 571 768 q 740 612 704 685 q 775 446 775 539 l 775 0 l 679 0 l 679 418 q 615 614 679 544 q 449 683 551 683 q 328 647 382 683 q 241 544 274 610 q 208 390 208 478 l 208 0 l 111 0 m 568 1069 l 568 982 l 283 817 l 283 892 l 568 1069 z "},"ň":{"ha":879,"x_min":111,"x_max":775,"o":"m 111 0 l 111 758 l 208 758 l 208 593 q 262 678 225 639 q 353 743 299 718 q 478 768 408 768 q 638 726 571 768 q 740 612 704 685 q 775 446 775 539 l 775 0 l 679 0 l 679 418 q 615 614 679 544 q 449 683 551 683 q 328 647 382 683 q 241 544 274 610 q 208 390 208 478 l 208 0 l 111 0 m 626 1029 l 626 951 l 440 838 l 254 951 l 254 1029 l 440 914 l 626 1029 z "},"ņ":{"ha":879,"x_min":111,"x_max":775,"o":"m 358 -314 l 358 -258 q 405 -251 383 -260 q 440 -225 426 -242 q 457 -189 454 -208 q 424 -199 443 -199 q 378 -184 397 -199 q 360 -139 360 -169 q 381 -90 360 -110 q 433 -71 403 -71 q 474 -85 457 -71 q 501 -120 492 -99 q 511 -164 511 -142 q 490 -246 511 -211 q 433 -299 468 -281 q 358 -314 399 -317 m 111 0 l 111 758 l 208 758 l 208 593 q 262 678 225 639 q 353 743 299 718 q 478 768 408 768 q 638 726 571 768 q 740 612 704 685 q 775 446 775 539 l 775 0 l 679 0 l 679 418 q 615 614 679 544 q 449 683 551 683 q 328 647 382 683 q 241 544 274 610 q 208 390 208 478 l 208 0 l 111 0 z "},"ñ":{"ha":879,"x_min":111,"x_max":775,"o":"m 111 0 l 111 758 l 208 758 l 208 593 q 262 678 225 639 q 353 743 299 718 q 478 768 408 768 q 638 726 571 768 q 740 612 704 685 q 775 446 775 539 l 775 0 l 679 0 l 679 418 q 615 614 679 544 q 449 683 551 683 q 328 647 382 683 q 241 544 274 610 q 208 390 208 478 l 208 0 l 111 0 m 531 839 q 470 856 494 839 q 425 888 446 872 q 375 904 404 904 q 337 889 353 904 q 317 842 321 874 l 257 842 q 298 938 265 906 q 379 971 331 971 q 439 955 415 971 q 484 922 463 939 q 535 906 506 906 q 575 922 558 906 q 596 968 592 938 l 654 968 q 614 873 649 907 q 531 839 579 839 z "},"o":{"ha":892,"x_min":67,"x_max":825,"o":"m 443 -10 q 251 38 336 -10 q 116 172 165 85 q 67 379 67 260 q 117 588 67 500 q 254 722 168 675 q 446 768 340 768 q 639 722 553 768 q 775 588 725 675 q 825 379 825 500 q 774 172 825 260 q 637 38 724 85 q 443 -10 550 -10 m 443 75 q 579 108 515 75 q 684 208 643 140 q 725 379 725 275 q 685 551 725 483 q 581 651 644 618 q 444 683 517 683 q 308 651 372 683 q 205 551 244 618 q 165 379 165 483 q 205 208 165 275 q 308 108 244 140 q 443 75 371 75 z "},"ó":{"ha":892,"x_min":67,"x_max":825,"o":"m 443 -10 q 251 38 336 -10 q 116 172 165 85 q 67 379 67 260 q 117 588 67 500 q 254 722 168 675 q 446 768 340 768 q 639 722 553 768 q 775 588 725 675 q 825 379 825 500 q 774 172 825 260 q 637 38 724 85 q 443 -10 550 -10 m 443 75 q 579 108 515 75 q 684 208 643 140 q 725 379 725 275 q 685 551 725 483 q 581 651 644 618 q 444 683 517 683 q 308 651 372 683 q 205 551 244 618 q 165 379 165 483 q 205 208 165 275 q 308 108 244 140 q 443 75 371 75 m 574 1076 l 574 989 l 289 824 l 289 899 l 574 1076 z "},"ŏ":{"ha":892,"x_min":67,"x_max":825,"o":"m 443 -10 q 251 38 336 -10 q 116 172 165 85 q 67 379 67 260 q 117 588 67 500 q 254 722 168 675 q 446 768 340 768 q 639 722 553 768 q 775 588 725 675 q 825 379 825 500 q 774 172 825 260 q 637 38 724 85 q 443 -10 550 -10 m 443 75 q 579 108 515 75 q 684 208 643 140 q 725 379 725 275 q 685 551 725 483 q 581 651 644 618 q 444 683 517 683 q 308 651 372 683 q 205 551 244 618 q 165 379 165 483 q 205 208 165 275 q 308 108 244 140 q 443 75 371 75 m 446 849 q 306 899 353 849 q 258 1019 258 950 l 258 1038 l 319 1038 q 349 956 319 985 q 446 926 379 926 q 542 956 513 926 q 572 1038 572 985 l 635 1038 l 635 1019 q 588 899 635 950 q 446 849 540 849 z "},"ô":{"ha":892,"x_min":67,"x_max":825,"o":"m 443 -10 q 251 38 336 -10 q 116 172 165 85 q 67 379 67 260 q 117 588 67 500 q 254 722 168 675 q 446 768 340 768 q 639 722 553 768 q 775 588 725 675 q 825 379 825 500 q 774 172 825 260 q 637 38 724 85 q 443 -10 550 -10 m 443 75 q 579 108 515 75 q 684 208 643 140 q 725 379 725 275 q 685 551 725 483 q 581 651 644 618 q 444 683 517 683 q 308 651 372 683 q 205 551 244 618 q 165 379 165 483 q 205 208 165 275 q 308 108 244 140 q 443 75 371 75 m 632 804 l 446 921 l 260 804 l 260 883 l 446 997 l 632 883 l 632 804 z "},"ö":{"ha":892,"x_min":67,"x_max":825,"o":"m 443 -10 q 251 38 336 -10 q 116 172 165 85 q 67 379 67 260 q 117 588 67 500 q 254 722 168 675 q 446 768 340 768 q 639 722 553 768 q 775 588 725 675 q 825 379 825 500 q 774 172 825 260 q 637 38 724 85 q 443 -10 550 -10 m 443 75 q 579 108 515 75 q 684 208 643 140 q 725 379 725 275 q 685 551 725 483 q 581 651 644 618 q 444 683 517 683 q 308 651 372 683 q 205 551 244 618 q 165 379 165 483 q 205 208 165 275 q 308 108 244 140 q 443 75 371 75 m 340 872 q 295 891 314 872 q 276 936 276 910 q 295 981 276 963 q 340 1000 314 1000 q 385 981 367 1000 q 404 936 404 963 q 385 891 404 910 q 340 872 367 872 m 554 872 q 509 891 528 872 q 490 936 490 910 q 509 981 490 963 q 554 1000 528 1000 q 599 981 581 1000 q 617 936 617 963 q 599 891 617 910 q 554 872 581 872 z "},"ò":{"ha":892,"x_min":67,"x_max":825,"o":"m 443 -10 q 251 38 336 -10 q 116 172 165 85 q 67 379 67 260 q 117 588 67 500 q 254 722 168 675 q 446 768 340 768 q 639 722 553 768 q 775 588 725 675 q 825 379 825 500 q 774 172 825 260 q 637 38 724 85 q 443 -10 550 -10 m 443 75 q 579 108 515 75 q 684 208 643 140 q 725 379 725 275 q 685 551 725 483 q 581 651 644 618 q 444 683 517 683 q 308 651 372 683 q 205 551 244 618 q 165 379 165 483 q 205 208 165 275 q 308 108 244 140 q 443 75 371 75 m 289 1076 l 574 899 l 574 824 l 289 989 l 289 1076 z "},"ő":{"ha":892,"x_min":67,"x_max":825,"o":"m 443 -10 q 251 38 336 -10 q 116 172 165 85 q 67 379 67 260 q 117 588 67 500 q 254 722 168 675 q 446 768 340 768 q 639 722 553 768 q 775 588 725 675 q 825 379 825 500 q 774 172 825 260 q 637 38 724 85 q 443 -10 550 -10 m 443 75 q 579 108 515 75 q 684 208 643 140 q 725 379 725 275 q 685 551 725 483 q 581 651 644 618 q 444 683 517 683 q 308 651 372 683 q 205 551 244 618 q 165 379 165 483 q 205 208 165 275 q 308 108 244 140 q 443 75 371 75 m 482 1035 l 372 842 l 304 842 l 394 1035 l 482 1035 m 679 1035 l 563 842 l 496 842 l 592 1035 l 679 1035 z "},"ō":{"ha":892,"x_min":67,"x_max":825,"o":"m 443 -10 q 251 38 336 -10 q 116 172 165 85 q 67 379 67 260 q 117 588 67 500 q 254 722 168 675 q 446 768 340 768 q 639 722 553 768 q 775 588 725 675 q 825 379 825 500 q 774 172 825 260 q 637 38 724 85 q 443 -10 550 -10 m 443 75 q 579 108 515 75 q 684 208 643 140 q 725 379 725 275 q 685 551 725 483 q 581 651 644 618 q 444 683 517 683 q 308 651 372 683 q 205 551 244 618 q 165 379 165 483 q 205 208 165 275 q 308 108 244 140 q 443 75 371 75 m 210 979 l 681 979 l 681 904 l 210 904 l 210 979 z "},"ø":{"ha":892,"x_min":65,"x_max":828,"o":"m 756 758 l 828 758 l 139 0 l 65 0 l 756 758 m 443 -10 q 251 38 336 -10 q 116 172 165 85 q 67 379 67 260 q 117 588 67 500 q 254 722 168 675 q 446 768 340 768 q 639 722 553 768 q 775 588 725 675 q 825 379 825 500 q 774 172 825 260 q 637 38 724 85 q 443 -10 550 -10 m 443 75 q 579 108 515 75 q 684 208 643 140 q 725 379 725 275 q 685 551 725 483 q 581 651 644 618 q 444 683 517 683 q 308 651 372 683 q 205 551 244 618 q 165 379 165 483 q 205 208 165 275 q 308 108 244 140 q 443 75 371 75 z "},"õ":{"ha":892,"x_min":67,"x_max":825,"o":"m 443 -10 q 251 38 336 -10 q 116 172 165 85 q 67 379 67 260 q 117 588 67 500 q 254 722 168 675 q 446 768 340 768 q 639 722 553 768 q 775 588 725 675 q 825 379 825 500 q 774 172 825 260 q 637 38 724 85 q 443 -10 550 -10 m 443 75 q 579 108 515 75 q 684 208 643 140 q 725 379 725 275 q 685 551 725 483 q 581 651 644 618 q 444 683 517 683 q 308 651 372 683 q 205 551 244 618 q 165 379 165 483 q 205 208 165 275 q 308 108 244 140 q 443 75 371 75 m 536 846 q 476 863 500 846 q 431 895 451 879 q 381 911 410 911 q 342 896 358 911 q 322 849 326 881 l 263 849 q 303 945 271 913 q 385 978 336 978 q 444 962 421 978 q 490 929 468 946 q 540 913 511 913 q 581 928 564 913 q 601 975 597 944 l 660 975 q 619 880 654 914 q 536 846 585 846 z "},"œ":{"ha":1556,"x_min":67,"x_max":1489,"o":"m 443 -10 q 251 38 336 -10 q 116 172 165 85 q 67 379 67 260 q 117 588 67 500 q 254 722 168 675 q 446 768 340 768 q 639 722 553 768 q 775 588 725 675 q 825 379 825 500 q 774 172 825 260 q 637 38 724 85 q 443 -10 550 -10 m 443 75 q 579 108 515 75 q 684 208 643 140 q 725 379 725 275 q 685 551 725 483 q 581 651 644 618 q 444 683 517 683 q 308 651 372 683 q 205 551 244 618 q 165 379 165 483 q 205 208 165 275 q 308 108 244 140 q 443 75 371 75 m 1140 -10 q 983 16 1056 -10 q 855 91 910 42 q 769 211 800 140 q 739 374 739 282 q 772 528 739 457 q 861 654 804 600 q 990 738 918 708 q 1140 768 1063 768 q 1265 751 1208 768 q 1363 701 1322 733 q 1427 628 1404 669 q 1450 539 1450 588 q 1412 419 1450 467 q 1310 346 1374 372 q 1169 309 1246 319 q 1015 299 1093 299 q 952 300 983 299 q 892 305 921 301 q 839 311 864 308 q 884 194 846 249 q 988 108 922 140 q 1140 75 1054 75 q 1258 98 1204 75 q 1353 153 1313 121 q 1418 211 1394 185 l 1489 156 q 1410 80 1461 118 q 1292 16 1360 42 q 1140 -10 1224 -10 m 1006 383 q 1127 391 1065 383 q 1240 415 1189 399 q 1324 460 1292 432 q 1356 531 1356 489 q 1327 610 1356 575 q 1251 664 1299 644 q 1146 683 1203 683 q 990 641 1060 683 q 878 533 919 599 q 833 394 838 467 q 908 386 863 389 q 1006 383 953 383 z "},"p":{"ha":939,"x_min":111,"x_max":871,"o":"m 514 -10 q 328 40 413 -10 q 208 172 244 90 l 208 -358 l 111 -358 l 111 758 l 208 758 l 208 589 q 326 719 244 671 q 514 768 408 768 q 694 719 613 768 q 823 583 775 671 q 871 381 871 496 q 823 177 871 265 q 694 40 775 89 q 514 -10 613 -10 m 490 75 q 633 113 569 75 q 735 219 697 150 q 772 381 772 288 q 735 542 772 474 q 633 647 697 610 q 490 683 569 683 q 347 647 411 683 q 246 542 283 610 q 208 381 208 474 q 246 219 208 288 q 347 113 283 150 q 490 75 411 75 z "},"þ":{"ha":938,"x_min":111,"x_max":869,"o":"m 111 -358 l 111 1028 l 207 1028 l 207 572 q 317 713 240 658 q 508 768 394 768 q 694 721 613 768 q 822 587 775 674 q 869 381 869 500 q 822 174 869 263 q 694 38 775 86 q 508 -10 613 -10 q 317 47 394 -10 q 207 189 240 103 l 207 -358 l 111 -358 m 489 75 q 633 112 569 75 q 733 217 696 149 q 771 381 771 285 q 733 545 771 478 q 633 648 696 613 q 489 683 569 683 q 348 647 413 683 q 245 542 283 610 q 207 379 207 474 q 245 217 207 285 q 348 112 283 149 q 489 75 413 75 z "},"q":{"ha":938,"x_min":67,"x_max":826,"o":"m 729 -358 l 729 172 q 610 40 694 90 q 424 -10 526 -10 q 244 40 325 -10 q 115 177 163 89 q 67 381 67 265 q 115 583 67 496 q 244 719 163 671 q 424 768 325 768 q 613 719 531 768 q 729 589 694 671 l 729 758 l 826 758 l 826 -358 l 729 -358 m 447 75 q 590 113 526 75 q 692 219 654 150 q 729 381 729 288 q 692 542 729 474 q 590 647 654 610 q 447 683 526 683 q 304 647 368 683 q 203 542 240 610 q 165 381 165 474 q 203 219 165 288 q 304 113 240 150 q 447 75 368 75 z "},"r":{"ha":503,"x_min":111,"x_max":468,"o":"m 111 0 l 111 758 l 208 758 l 208 0 l 111 0 m 164 393 l 208 589 q 301 722 233 675 q 468 768 369 768 l 468 665 q 448 669 458 668 q 428 669 438 669 q 316 633 365 669 q 238 535 267 597 q 208 393 208 472 l 164 393 z "},"ŕ":{"ha":503,"x_min":111,"x_max":468,"o":"m 111 0 l 111 758 l 208 758 l 208 0 l 111 0 m 164 393 l 208 589 q 301 722 233 675 q 468 768 369 768 l 468 665 q 448 669 458 668 q 428 669 438 669 q 316 633 365 669 q 238 535 267 597 q 208 393 208 472 l 164 393 m 436 1069 l 436 982 l 151 817 l 151 892 l 436 1069 z "},"ř":{"ha":503,"x_min":111,"x_max":494,"o":"m 111 0 l 111 758 l 208 758 l 208 0 l 111 0 m 164 393 l 208 589 q 301 722 233 675 q 468 768 369 768 l 468 665 q 448 669 458 668 q 428 669 438 669 q 316 633 365 669 q 238 535 267 597 q 208 393 208 472 l 164 393 m 494 1029 l 494 951 l 308 838 l 122 951 l 122 1029 l 308 914 l 494 1029 z "},"ŗ":{"ha":507,"x_min":96,"x_max":472,"o":"m 96 -314 l 96 -258 q 142 -251 121 -260 q 178 -225 164 -242 q 194 -189 192 -208 q 161 -199 181 -199 q 116 -184 135 -199 q 97 -139 97 -169 q 119 -90 97 -110 q 171 -71 140 -71 q 212 -85 194 -71 q 239 -120 229 -99 q 249 -164 249 -142 q 227 -246 249 -211 q 171 -299 206 -281 q 96 -314 136 -317 m 115 0 l 115 758 l 213 758 l 213 0 l 115 0 m 168 393 l 213 589 q 306 722 238 675 q 472 768 374 768 l 472 665 q 452 669 463 668 q 432 669 442 669 q 320 633 369 669 q 242 535 271 597 q 213 393 213 472 l 168 393 z "},"s":{"ha":704,"x_min":67,"x_max":632,"o":"m 368 -10 q 219 18 282 -10 q 117 94 156 46 q 67 201 79 142 l 156 221 q 222 116 169 158 q 367 74 274 74 q 492 110 449 74 q 536 201 536 147 q 503 275 536 249 q 419 317 471 301 q 308 349 367 333 q 198 388 250 364 q 113 453 146 411 q 81 564 81 494 q 114 667 81 621 q 208 740 147 713 q 347 768 268 768 q 483 742 429 768 q 569 672 538 715 q 613 576 601 629 l 528 551 q 473 644 515 603 q 344 685 431 685 q 224 650 268 685 q 179 565 179 615 q 212 485 179 514 q 296 439 244 456 q 406 407 347 422 q 515 369 464 392 q 599 308 567 347 q 632 201 632 268 q 599 92 632 140 q 506 17 565 44 q 368 -10 447 -10 z "},"ś":{"ha":704,"x_min":67,"x_max":632,"o":"m 368 -10 q 219 18 282 -10 q 117 94 156 46 q 67 201 79 142 l 156 221 q 222 116 169 158 q 367 74 274 74 q 492 110 449 74 q 536 201 536 147 q 503 275 536 249 q 419 317 471 301 q 308 349 367 333 q 198 388 250 364 q 113 453 146 411 q 81 564 81 494 q 114 667 81 621 q 208 740 147 713 q 347 768 268 768 q 483 742 429 768 q 569 672 538 715 q 613 576 601 629 l 528 551 q 473 644 515 603 q 344 685 431 685 q 224 650 268 685 q 179 565 179 615 q 212 485 179 514 q 296 439 244 456 q 406 407 347 422 q 515 369 464 392 q 599 308 567 347 q 632 201 632 268 q 599 92 632 140 q 506 17 565 44 q 368 -10 447 -10 m 479 1076 l 479 989 l 194 824 l 194 899 l 479 1076 z "},"š":{"ha":704,"x_min":67,"x_max":632,"o":"m 368 -10 q 219 18 282 -10 q 117 94 156 46 q 67 201 79 142 l 156 221 q 222 116 169 158 q 367 74 274 74 q 492 110 449 74 q 536 201 536 147 q 503 275 536 249 q 419 317 471 301 q 308 349 367 333 q 198 388 250 364 q 113 453 146 411 q 81 564 81 494 q 114 667 81 621 q 208 740 147 713 q 347 768 268 768 q 483 742 429 768 q 569 672 538 715 q 613 576 601 629 l 528 551 q 473 644 515 603 q 344 685 431 685 q 224 650 268 685 q 179 565 179 615 q 212 485 179 514 q 296 439 244 456 q 406 407 347 422 q 515 369 464 392 q 599 308 567 347 q 632 201 632 268 q 599 92 632 140 q 506 17 565 44 q 368 -10 447 -10 m 538 1036 l 538 958 l 351 844 l 165 958 l 165 1036 l 351 921 l 538 1036 z "},"ş":{"ha":704,"x_min":67,"x_max":632,"o":"m 368 -10 q 219 18 282 -10 q 117 94 156 46 q 67 201 79 142 l 156 221 q 222 116 169 158 q 367 74 274 74 q 492 110 449 74 q 536 201 536 147 q 503 275 536 249 q 419 317 471 301 q 308 349 367 333 q 198 388 250 364 q 113 453 146 411 q 81 564 81 494 q 114 667 81 621 q 208 740 147 713 q 347 768 268 768 q 483 742 429 768 q 569 672 538 715 q 613 576 601 629 l 528 551 q 473 644 515 603 q 344 685 431 685 q 224 650 268 685 q 179 565 179 615 q 212 485 179 514 q 296 439 244 456 q 406 407 347 422 q 515 369 464 392 q 599 308 567 347 q 632 201 632 268 q 599 92 632 140 q 506 17 565 44 q 368 -10 447 -10 m 390 -93 q 485 -106 444 -92 q 547 -150 525 -121 q 568 -222 568 -179 q 548 -294 568 -264 q 491 -342 528 -325 q 406 -358 454 -358 l 267 -358 l 267 -293 l 386 -293 q 463 -275 439 -293 q 486 -222 486 -257 q 463 -173 486 -190 q 386 -156 439 -156 l 322 -156 l 322 10 l 390 10 l 390 -93 z "},"ș":{"ha":704,"x_min":67,"x_max":632,"o":"m 290 -314 l 290 -258 q 337 -251 315 -260 q 372 -225 358 -242 q 389 -189 386 -208 q 356 -199 375 -199 q 310 -184 329 -199 q 292 -139 292 -169 q 313 -90 292 -110 q 365 -71 335 -71 q 406 -85 389 -71 q 433 -120 424 -99 q 443 -164 443 -142 q 422 -246 443 -211 q 365 -299 400 -281 q 290 -314 331 -317 m 368 -10 q 219 18 282 -10 q 117 94 156 46 q 67 201 79 142 l 156 221 q 222 116 169 158 q 367 74 274 74 q 492 110 449 74 q 536 201 536 147 q 503 275 536 249 q 419 317 471 301 q 308 349 367 333 q 198 388 250 364 q 113 453 146 411 q 81 564 81 494 q 114 667 81 621 q 208 740 147 713 q 347 768 268 768 q 483 742 429 768 q 569 672 538 715 q 613 576 601 629 l 528 551 q 473 644 515 603 q 344 685 431 685 q 224 650 268 685 q 179 565 179 615 q 212 485 179 514 q 296 439 244 456 q 406 407 347 422 q 515 369 464 392 q 599 308 567 347 q 632 201 632 268 q 599 92 632 140 q 506 17 565 44 q 368 -10 447 -10 z "},"ß":{"ha":924,"x_min":92,"x_max":839,"o":"m 92 778 q 126 926 92 861 q 229 1029 160 992 q 401 1067 299 1067 q 560 1036 496 1067 q 657 956 624 1006 q 690 846 690 906 q 670 757 690 794 q 619 690 650 719 q 558 636 589 661 q 508 587 528 611 q 488 535 488 563 q 501 494 488 513 q 551 458 515 475 q 650 419 586 440 q 794 335 750 388 q 839 204 839 282 q 809 91 839 140 q 724 14 779 42 q 589 -14 668 -14 q 399 52 474 -14 q 314 232 325 118 l 413 232 q 465 111 419 157 q 589 65 511 65 q 699 101 660 65 q 739 197 739 136 q 706 286 739 253 q 592 346 672 319 q 435 421 482 382 q 389 522 389 460 q 410 598 389 565 q 460 658 431 631 q 521 711 490 685 q 572 769 551 738 q 593 839 593 800 q 542 945 593 906 q 400 985 490 985 q 240 926 292 985 q 189 767 189 868 l 189 0 l 92 0 l 92 778 z "},"t":{"ha":501,"x_min":33,"x_max":460,"o":"m 342 -10 q 222 38 271 -10 q 174 156 174 85 l 174 676 l 33 676 l 33 758 l 433 758 l 433 676 l 271 676 l 271 156 q 291 100 271 122 q 344 78 311 78 q 382 86 364 78 q 415 104 400 94 l 460 28 q 407 1 439 11 q 342 -10 375 -10 m 111 707 l 111 758 q 158 774 142 758 q 174 821 174 790 l 174 949 l 272 949 l 272 839 q 266 803 272 819 q 247 774 260 786 q 214 758 235 763 l 111 707 z "},"ť":{"ha":494,"x_min":33,"x_max":508,"o":"m 342 -10 q 222 38 271 -10 q 174 156 174 85 l 174 676 l 33 676 l 33 758 l 433 758 l 433 676 l 271 676 l 271 156 q 291 100 271 122 q 344 78 311 78 q 382 86 364 78 q 415 104 400 94 l 460 28 q 407 1 439 11 q 342 -10 375 -10 m 111 707 l 111 758 q 158 774 142 758 q 174 821 174 790 l 174 949 l 272 949 l 272 839 q 266 803 272 819 q 247 774 260 786 q 214 758 235 763 l 111 707 m 356 857 l 356 913 q 402 920 381 911 q 438 946 424 929 q 454 982 451 963 q 421 972 440 972 q 376 987 394 972 q 357 1032 357 1001 q 378 1081 357 1061 q 431 1100 400 1100 q 472 1086 454 1100 q 499 1051 489 1072 q 508 1007 508 1029 q 487 925 508 960 q 431 872 465 890 q 356 857 396 854 z "},"ţ":{"ha":528,"x_min":33,"x_max":525,"o":"m 342 -10 q 222 38 271 -10 q 174 156 174 85 l 174 676 l 33 676 l 33 758 l 111 758 q 158 774 142 758 q 174 821 174 790 l 174 949 l 272 949 l 272 839 q 266 803 272 819 q 247 774 260 786 q 214 758 235 763 l 433 758 l 433 676 l 271 676 l 271 156 q 291 100 271 122 q 344 78 311 78 q 382 86 364 78 q 415 104 400 94 l 460 28 q 407 1 439 11 q 342 -10 375 -10 m 224 -358 l 224 -293 l 343 -293 q 419 -275 396 -293 q 442 -222 442 -257 q 419 -173 442 -190 q 343 -156 396 -156 l 278 -156 l 278 49 l 347 49 l 347 -93 q 442 -106 401 -92 q 503 -150 482 -121 q 525 -222 525 -179 q 505 -294 525 -264 q 448 -342 485 -325 q 363 -358 411 -358 l 224 -358 z "},"ț":{"ha":508,"x_min":33,"x_max":460,"o":"m 163 -314 l 163 -258 q 209 -251 188 -260 q 244 -225 231 -242 q 261 -189 258 -208 q 228 -199 247 -199 q 183 -184 201 -199 q 164 -139 164 -169 q 185 -90 164 -110 q 238 -71 207 -71 q 278 -85 261 -71 q 306 -120 296 -99 q 315 -164 315 -142 q 294 -246 315 -211 q 238 -299 272 -281 q 163 -314 203 -317 m 342 -10 q 222 38 271 -10 q 174 156 174 85 l 174 676 l 33 676 l 33 758 l 433 758 l 433 676 l 271 676 l 271 156 q 291 100 271 122 q 344 78 311 78 q 382 86 364 78 q 415 104 400 94 l 460 28 q 407 1 439 11 q 342 -10 375 -10 m 111 707 l 111 758 q 158 774 142 758 q 174 821 174 790 l 174 949 l 272 949 l 272 839 q 266 803 272 819 q 247 774 260 786 q 214 758 235 763 l 111 707 z "},"u":{"ha":879,"x_min":104,"x_max":768,"o":"m 671 61 l 671 758 l 768 758 l 768 0 l 732 0 q 688 16 704 0 q 671 61 671 32 m 403 -10 q 243 32 310 -10 q 140 146 176 74 q 104 311 104 218 l 104 758 l 200 758 l 200 339 q 265 144 200 213 q 432 75 331 75 q 553 112 499 75 q 639 214 607 149 q 671 367 671 279 l 700 319 q 660 135 700 208 q 552 26 619 63 q 403 -10 485 -10 z "},"ú":{"ha":879,"x_min":104,"x_max":768,"o":"m 671 61 l 671 758 l 768 758 l 768 0 l 732 0 q 688 16 704 0 q 671 61 671 32 m 403 -10 q 243 32 310 -10 q 140 146 176 74 q 104 311 104 218 l 104 758 l 200 758 l 200 339 q 265 144 200 213 q 432 75 331 75 q 553 112 499 75 q 639 214 607 149 q 671 367 671 279 l 700 319 q 660 135 700 208 q 552 26 619 63 q 403 -10 485 -10 m 560 1069 l 560 982 l 275 817 l 275 892 l 560 1069 z "},"ŭ":{"ha":879,"x_min":104,"x_max":768,"o":"m 671 61 l 671 758 l 768 758 l 768 0 l 732 0 q 688 16 704 0 q 671 61 671 32 m 403 -10 q 243 32 310 -10 q 140 146 176 74 q 104 311 104 218 l 104 758 l 200 758 l 200 339 q 265 144 200 213 q 432 75 331 75 q 553 112 499 75 q 639 214 607 149 q 671 367 671 279 l 700 319 q 660 135 700 208 q 552 26 619 63 q 403 -10 485 -10 m 432 842 q 292 892 339 842 q 244 1013 244 943 l 244 1031 l 306 1031 q 335 949 306 978 q 432 919 365 919 q 528 949 499 919 q 558 1031 558 978 l 621 1031 l 621 1013 q 574 892 621 943 q 432 842 526 842 z "},"û":{"ha":879,"x_min":104,"x_max":768,"o":"m 671 61 l 671 758 l 768 758 l 768 0 l 732 0 q 688 16 704 0 q 671 61 671 32 m 403 -10 q 243 32 310 -10 q 140 146 176 74 q 104 311 104 218 l 104 758 l 200 758 l 200 339 q 265 144 200 213 q 432 75 331 75 q 553 112 499 75 q 639 214 607 149 q 671 367 671 279 l 700 319 q 660 135 700 208 q 552 26 619 63 q 403 -10 485 -10 m 618 797 l 432 914 l 246 797 l 246 876 l 432 990 l 618 876 l 618 797 z "},"ü":{"ha":879,"x_min":104,"x_max":768,"o":"m 671 61 l 671 758 l 768 758 l 768 0 l 732 0 q 688 16 704 0 q 671 61 671 32 m 403 -10 q 243 32 310 -10 q 140 146 176 74 q 104 311 104 218 l 104 758 l 200 758 l 200 339 q 265 144 200 213 q 432 75 331 75 q 553 112 499 75 q 639 214 607 149 q 671 367 671 279 l 700 319 q 660 135 700 208 q 552 26 619 63 q 403 -10 485 -10 m 326 865 q 281 884 300 865 q 263 929 263 903 q 281 974 263 956 q 326 993 300 993 q 372 974 353 993 q 390 929 390 956 q 372 884 390 903 q 326 865 353 865 m 540 865 q 495 884 514 865 q 476 929 476 903 q 495 974 476 956 q 540 993 514 993 q 585 974 567 993 q 603 929 603 956 q 585 884 603 903 q 540 865 567 865 z "},"ù":{"ha":879,"x_min":104,"x_max":768,"o":"m 671 61 l 671 758 l 768 758 l 768 0 l 732 0 q 688 16 704 0 q 671 61 671 32 m 403 -10 q 243 32 310 -10 q 140 146 176 74 q 104 311 104 218 l 104 758 l 200 758 l 200 339 q 265 144 200 213 q 432 75 331 75 q 553 112 499 75 q 639 214 607 149 q 671 367 671 279 l 700 319 q 660 135 700 208 q 552 26 619 63 q 403 -10 485 -10 m 275 1069 l 560 892 l 560 817 l 275 982 l 275 1069 z "},"ű":{"ha":879,"x_min":104,"x_max":768,"o":"m 671 61 l 671 758 l 768 758 l 768 0 l 732 0 q 688 16 704 0 q 671 61 671 32 m 403 -10 q 243 32 310 -10 q 140 146 176 74 q 104 311 104 218 l 104 758 l 200 758 l 200 339 q 265 144 200 213 q 432 75 331 75 q 553 112 499 75 q 639 214 607 149 q 671 367 671 279 l 700 319 q 660 135 700 208 q 552 26 619 63 q 403 -10 485 -10 m 468 1028 l 358 835 l 290 835 l 381 1028 l 468 1028 m 665 1028 l 549 835 l 482 835 l 578 1028 l 665 1028 z "},"ū":{"ha":879,"x_min":104,"x_max":768,"o":"m 671 61 l 671 758 l 768 758 l 768 0 l 732 0 q 688 16 704 0 q 671 61 671 32 m 403 -10 q 243 32 310 -10 q 140 146 176 74 q 104 311 104 218 l 104 758 l 200 758 l 200 339 q 265 144 200 213 q 432 75 331 75 q 553 112 499 75 q 639 214 607 149 q 671 367 671 279 l 700 319 q 660 135 700 208 q 552 26 619 63 q 403 -10 485 -10 m 196 972 l 667 972 l 667 897 l 196 897 l 196 972 z "},"ų":{"ha":879,"x_min":104,"x_max":772,"o":"m 403 -10 q 243 32 310 -10 q 140 146 176 74 q 104 311 104 218 l 104 758 l 200 758 l 200 339 q 265 144 200 213 q 432 75 331 75 q 553 112 499 75 q 639 214 607 149 q 671 367 671 279 l 671 758 l 768 758 l 768 0 l 732 0 q 688 16 704 0 q 671 61 671 32 l 671 163 q 617 78 654 118 q 526 15 581 39 q 403 -10 472 -10 m 742 53 l 768 0 l 685 -40 q 617 -89 636 -64 q 597 -142 597 -114 q 621 -194 597 -176 q 683 -212 644 -212 q 772 -193 725 -212 l 772 -261 q 724 -274 750 -269 q 672 -279 697 -279 q 597 -267 633 -279 q 538 -226 561 -254 q 515 -151 515 -197 q 530 -90 515 -119 q 578 -34 544 -61 q 665 18 611 -7 l 742 53 z "},"ů":{"ha":879,"x_min":104,"x_max":768,"o":"m 671 61 l 671 758 l 768 758 l 768 0 l 732 0 q 688 16 704 0 q 671 61 671 32 m 403 -10 q 243 32 310 -10 q 140 146 176 74 q 104 311 104 218 l 104 758 l 200 758 l 200 339 q 265 144 200 213 q 432 75 331 75 q 553 112 499 75 q 639 214 607 149 q 671 367 671 279 l 700 319 q 660 135 700 208 q 552 26 619 63 q 403 -10 485 -10 m 574 986 q 533 885 574 922 q 432 847 492 847 q 333 885 375 847 q 290 986 290 922 q 333 1088 290 1051 q 432 1125 375 1125 q 533 1088 492 1125 q 574 986 574 1051 m 514 986 q 490 1049 514 1026 q 432 1071 467 1071 q 375 1049 399 1071 q 351 986 351 1026 q 375 924 351 947 q 432 901 399 901 q 490 924 467 901 q 514 986 514 947 z "},"ũ":{"ha":879,"x_min":104,"x_max":768,"o":"m 671 61 l 671 758 l 768 758 l 768 0 l 732 0 q 688 16 704 0 q 671 61 671 32 m 403 -10 q 243 32 310 -10 q 140 146 176 74 q 104 311 104 218 l 104 758 l 200 758 l 200 339 q 265 144 200 213 q 432 75 331 75 q 553 112 499 75 q 639 214 607 149 q 671 367 671 279 l 700 319 q 660 135 700 208 q 552 26 619 63 q 403 -10 485 -10 m 522 839 q 462 856 486 839 q 417 888 438 872 q 367 904 396 904 q 328 889 344 904 q 308 842 313 874 l 249 842 q 290 938 257 906 q 371 971 322 971 q 431 955 407 971 q 476 922 454 939 q 526 906 497 906 q 567 922 550 906 q 588 968 583 938 l 646 968 q 606 873 640 907 q 522 839 571 839 z "},"v":{"ha":760,"x_min":21,"x_max":739,"o":"m 125 758 l 381 94 l 636 758 l 739 758 l 435 0 l 325 0 l 21 758 l 125 758 z "},"w":{"ha":1132,"x_min":21,"x_max":1111,"o":"m 21 758 l 119 758 l 326 35 l 288 35 l 521 758 l 618 758 l 847 35 l 810 35 l 1015 758 l 1111 758 l 874 0 l 776 0 l 543 706 l 589 706 l 357 0 l 258 0 l 21 758 z "},"ẃ":{"ha":1132,"x_min":21,"x_max":1111,"o":"m 21 758 l 119 758 l 326 35 l 288 35 l 521 758 l 618 758 l 847 35 l 810 35 l 1015 758 l 1111 758 l 874 0 l 776 0 l 543 706 l 589 706 l 357 0 l 258 0 l 21 758 m 807 1069 l 807 982 l 522 817 l 522 892 l 807 1069 z "},"ŵ":{"ha":1132,"x_min":21,"x_max":1111,"o":"m 21 758 l 119 758 l 326 35 l 288 35 l 521 758 l 618 758 l 847 35 l 810 35 l 1015 758 l 1111 758 l 874 0 l 776 0 l 543 706 l 589 706 l 357 0 l 258 0 l 21 758 m 753 797 l 567 914 l 381 797 l 381 876 l 567 990 l 753 876 l 753 797 z "},"ẅ":{"ha":1132,"x_min":21,"x_max":1111,"o":"m 21 758 l 119 758 l 326 35 l 288 35 l 521 758 l 618 758 l 847 35 l 810 35 l 1015 758 l 1111 758 l 874 0 l 776 0 l 543 706 l 589 706 l 357 0 l 258 0 l 21 758 m 460 865 q 415 884 433 865 q 396 929 396 903 q 415 974 396 956 q 460 993 433 993 q 505 974 486 993 q 524 929 524 956 q 505 884 524 903 q 460 865 486 865 m 674 865 q 628 884 647 865 q 610 929 610 903 q 628 974 610 956 q 674 993 647 993 q 718 974 700 993 q 736 929 736 956 q 718 884 736 903 q 674 865 700 865 z "},"ẁ":{"ha":1132,"x_min":21,"x_max":1111,"o":"m 21 758 l 119 758 l 326 35 l 288 35 l 521 758 l 618 758 l 847 35 l 810 35 l 1015 758 l 1111 758 l 874 0 l 776 0 l 543 706 l 589 706 l 357 0 l 258 0 l 21 758 m 322 1069 l 607 892 l 607 817 l 322 982 l 322 1069 z "},"x":{"ha":639,"x_min":21,"x_max":618,"o":"m 24 758 l 133 758 l 618 0 l 508 0 l 24 758 m 332 336 l 124 0 l 21 0 l 289 415 l 332 336 m 306 424 l 514 758 l 615 758 l 347 343 l 306 424 z "},"y":{"ha":846,"x_min":56,"x_max":749,"o":"m 651 -14 l 651 758 l 749 758 l 749 -14 q 726 -153 749 -89 q 660 -266 704 -218 q 554 -341 617 -314 q 411 -368 492 -368 q 260 -340 331 -368 q 137 -257 189 -312 q 56 -119 85 -201 l 146 -83 q 257 -232 182 -183 q 411 -281 332 -281 q 589 -208 526 -281 q 651 -14 651 -136 m 690 382 q 664 204 690 276 q 594 88 638 132 q 496 25 550 44 q 385 6 442 6 q 224 47 292 6 q 121 161 157 89 q 85 326 85 233 l 85 758 l 182 758 l 182 354 q 247 159 182 228 q 414 90 313 90 q 535 127 481 90 q 620 229 589 164 q 651 382 651 294 l 690 382 z "},"ý":{"ha":846,"x_min":56,"x_max":749,"o":"m 651 -14 l 651 758 l 749 758 l 749 -14 q 726 -153 749 -89 q 660 -266 704 -218 q 554 -341 617 -314 q 411 -368 492 -368 q 260 -340 331 -368 q 137 -257 189 -312 q 56 -119 85 -201 l 146 -83 q 257 -232 182 -183 q 411 -281 332 -281 q 589 -208 526 -281 q 651 -14 651 -136 m 690 382 q 664 204 690 276 q 594 88 638 132 q 496 25 550 44 q 385 6 442 6 q 224 47 292 6 q 121 161 157 89 q 85 326 85 233 l 85 758 l 182 758 l 182 354 q 247 159 182 228 q 414 90 313 90 q 535 127 481 90 q 620 229 589 164 q 651 382 651 294 l 690 382 m 542 1069 l 542 982 l 257 817 l 257 892 l 542 1069 z "},"ŷ":{"ha":846,"x_min":56,"x_max":749,"o":"m 651 -14 l 651 758 l 749 758 l 749 -14 q 726 -153 749 -89 q 660 -266 704 -218 q 554 -341 617 -314 q 411 -368 492 -368 q 260 -340 331 -368 q 137 -257 189 -312 q 56 -119 85 -201 l 146 -83 q 257 -232 182 -183 q 411 -281 332 -281 q 589 -208 526 -281 q 651 -14 651 -136 m 690 382 q 664 204 690 276 q 594 88 638 132 q 496 25 550 44 q 385 6 442 6 q 224 47 292 6 q 121 161 157 89 q 85 326 85 233 l 85 758 l 182 758 l 182 354 q 247 159 182 228 q 414 90 313 90 q 535 127 481 90 q 620 229 589 164 q 651 382 651 294 l 690 382 m 600 797 l 414 914 l 228 797 l 228 876 l 414 990 l 600 876 l 600 797 z "},"ÿ":{"ha":846,"x_min":56,"x_max":749,"o":"m 651 -14 l 651 758 l 749 758 l 749 -14 q 726 -153 749 -89 q 660 -266 704 -218 q 554 -341 617 -314 q 411 -368 492 -368 q 260 -340 331 -368 q 137 -257 189 -312 q 56 -119 85 -201 l 146 -83 q 257 -232 182 -183 q 411 -281 332 -281 q 589 -208 526 -281 q 651 -14 651 -136 m 690 382 q 664 204 690 276 q 594 88 638 132 q 496 25 550 44 q 385 6 442 6 q 224 47 292 6 q 121 161 157 89 q 85 326 85 233 l 85 758 l 182 758 l 182 354 q 247 159 182 228 q 414 90 313 90 q 535 127 481 90 q 620 229 589 164 q 651 382 651 294 l 690 382 m 308 865 q 263 884 282 865 q 244 929 244 903 q 263 974 244 956 q 308 993 282 993 q 353 974 335 993 q 372 929 372 956 q 353 884 372 903 q 308 865 335 865 m 522 865 q 477 884 496 865 q 458 929 458 903 q 477 974 458 956 q 522 993 496 993 q 567 974 549 993 q 585 929 585 956 q 567 884 585 903 q 522 865 549 865 z "},"ỳ":{"ha":846,"x_min":56,"x_max":749,"o":"m 651 -14 l 651 758 l 749 758 l 749 -14 q 726 -153 749 -89 q 660 -266 704 -218 q 554 -341 617 -314 q 411 -368 492 -368 q 260 -340 331 -368 q 137 -257 189 -312 q 56 -119 85 -201 l 146 -83 q 257 -232 182 -183 q 411 -281 332 -281 q 589 -208 526 -281 q 651 -14 651 -136 m 690 382 q 664 204 690 276 q 594 88 638 132 q 496 25 550 44 q 385 6 442 6 q 224 47 292 6 q 121 161 157 89 q 85 326 85 233 l 85 758 l 182 758 l 182 354 q 247 159 182 228 q 414 90 313 90 q 535 127 481 90 q 620 229 589 164 q 651 382 651 294 l 690 382 m 257 1069 l 542 892 l 542 817 l 257 982 l 257 1069 z "},"ỹ":{"ha":846,"x_min":56,"x_max":749,"o":"m 651 -14 l 651 758 l 749 758 l 749 -14 q 726 -153 749 -89 q 660 -266 704 -218 q 554 -341 617 -314 q 411 -368 492 -368 q 260 -340 331 -368 q 137 -257 189 -312 q 56 -119 85 -201 l 146 -83 q 257 -232 182 -183 q 411 -281 332 -281 q 589 -208 526 -281 q 651 -14 651 -136 m 690 382 q 664 204 690 276 q 594 88 638 132 q 496 25 550 44 q 385 6 442 6 q 224 47 292 6 q 121 161 157 89 q 85 326 85 233 l 85 758 l 182 758 l 182 354 q 247 159 182 228 q 414 90 313 90 q 535 127 481 90 q 620 229 589 164 q 651 382 651 294 l 690 382 m 504 839 q 444 856 468 839 q 399 888 419 872 q 349 904 378 904 q 310 889 326 904 q 290 842 294 874 l 231 842 q 272 938 239 906 q 353 971 304 971 q 413 955 389 971 q 458 922 436 939 q 508 906 479 906 q 549 922 532 906 q 569 968 565 938 l 628 968 q 588 873 622 907 q 504 839 553 839 z "},"z":{"ha":613,"x_min":51,"x_max":560,"o":"m 553 678 l 163 81 l 560 81 l 560 0 l 51 0 l 51 81 l 442 678 l 58 678 l 58 758 l 553 758 l 553 678 z "},"ź":{"ha":613,"x_min":51,"x_max":560,"o":"m 553 678 l 163 81 l 560 81 l 560 0 l 51 0 l 51 81 l 442 678 l 58 678 l 58 758 l 553 758 l 553 678 m 435 1069 l 435 982 l 150 817 l 150 892 l 435 1069 z "},"ž":{"ha":613,"x_min":51,"x_max":560,"o":"m 553 678 l 163 81 l 560 81 l 560 0 l 51 0 l 51 81 l 442 678 l 58 678 l 58 758 l 553 758 l 553 678 m 493 1029 l 493 951 l 307 838 l 121 951 l 121 1029 l 307 914 l 493 1029 z "},"ż":{"ha":613,"x_min":51,"x_max":560,"o":"m 553 678 l 163 81 l 560 81 l 560 0 l 51 0 l 51 81 l 442 678 l 58 678 l 58 758 l 553 758 l 553 678 m 307 822 q 262 841 281 822 q 243 886 243 860 q 262 931 243 913 q 307 950 281 950 q 352 931 333 950 q 371 886 371 913 q 352 841 371 860 q 307 822 333 822 z "},"ﬁ":{"ha":796,"x_min":76,"x_max":714,"o":"m 182 0 l 182 676 l 76 676 l 76 758 l 182 758 l 182 811 q 197 919 182 874 q 245 993 213 964 q 328 1037 278 1022 q 450 1051 379 1051 l 450 968 q 350 952 388 968 q 296 902 313 936 q 279 811 279 868 l 279 758 l 644 758 l 644 676 l 279 676 l 279 0 l 182 0 m 588 0 l 588 758 l 685 758 l 685 0 l 588 0 m 636 901 q 582 923 606 901 q 558 976 558 944 q 580 1028 558 1008 q 636 1049 601 1049 q 691 1028 668 1049 q 714 976 714 1008 q 691 923 714 944 q 636 901 668 901 z "},"ﬂ":{"ha":799,"x_min":31,"x_max":771,"o":"m 136 0 l 136 676 l 31 676 l 31 758 l 136 758 l 136 811 q 151 919 136 874 q 199 993 167 964 q 283 1037 232 1022 q 404 1051 333 1051 l 404 968 q 304 952 342 968 q 250 902 267 936 q 233 811 233 868 l 233 758 l 410 758 l 410 676 l 233 676 l 233 0 l 136 0 m 700 -10 q 634 4 667 -10 q 581 50 601 18 q 560 133 560 82 l 560 1028 l 657 1028 l 657 142 q 675 92 657 108 q 718 76 693 76 q 749 82 733 76 l 771 8 q 700 -10 742 -10 z "},"ª":{"ha":618,"x_min":49,"x_max":547,"o":"m 49 735 q 78 866 49 810 q 160 953 108 922 q 278 985 213 985 q 399 953 351 985 q 468 874 447 922 q 496 803 490 835 q 501 735 501 771 q 494 662 501 699 q 468 592 488 625 q 400 513 449 544 q 281 482 351 482 q 161 515 214 482 q 78 604 108 547 q 49 735 49 661 m 131 735 q 180 595 131 646 q 297 544 229 544 q 419 594 369 544 q 468 733 468 644 q 419 872 468 822 q 297 922 369 922 q 180 873 229 922 q 131 735 131 824 m 468 529 l 468 976 l 547 976 l 547 490 l 507 490 q 478 501 489 490 q 468 529 468 511 z "},"º":{"ha":596,"x_min":49,"x_max":549,"o":"m 297 479 q 170 511 226 479 q 81 600 114 543 q 49 732 49 657 q 82 865 49 808 q 172 953 115 922 q 299 985 228 985 q 427 953 371 985 q 516 865 483 922 q 549 732 549 808 q 515 600 549 657 q 425 511 482 543 q 297 479 368 479 m 297 544 q 416 592 365 544 q 467 732 467 640 q 417 873 467 825 q 297 921 367 921 q 180 873 229 921 q 131 732 131 825 q 180 592 131 640 q 297 544 229 544 z "},"π":{"ha":990,"x_min":65,"x_max":921,"o":"m 65 758 l 921 758 l 921 681 l 808 681 l 808 0 l 711 0 l 711 681 l 275 681 l 275 0 l 178 0 l 178 681 l 65 681 l 65 758 z "}," ":{"ha":381,"x_min":0,"x_max":0,"o":""}," ":{"ha":381,"x_min":0,"x_max":0,"o":""},".":{"ha":272,"x_min":57,"x_max":217,"o":"m 138 -10 q 80 13 103 -10 q 57 65 57 35 q 80 117 57 96 q 138 138 103 138 q 194 117 171 138 q 217 65 217 96 q 194 13 217 35 q 138 -10 171 -10 z "},",":{"ha":231,"x_min":11,"x_max":190,"o":"m 11 -122 l 11 -68 q 66 -61 42 -69 q 107 -35 90 -53 q 128 7 124 -18 q 109 -3 119 1 q 88 -7 99 -7 q 35 10 57 -7 q 14 61 14 26 q 39 119 14 97 q 99 140 64 140 q 147 124 126 140 q 178 84 167 108 q 190 33 190 60 q 165 -57 190 -21 q 99 -109 139 -93 q 11 -122 58 -125 z "},":":{"ha":276,"x_min":57,"x_max":217,"o":"m 138 -10 q 80 13 103 -10 q 57 65 57 35 q 80 117 57 96 q 138 138 103 138 q 194 117 171 138 q 217 65 217 96 q 194 13 217 35 q 138 -10 171 -10 m 138 594 q 80 617 103 594 q 57 669 57 639 q 80 721 57 700 q 138 742 103 742 q 194 721 171 742 q 217 669 217 700 q 194 617 217 639 q 138 594 171 594 z "},";":{"ha":296,"x_min":57,"x_max":236,"o":"m 144 596 q 87 618 110 596 q 64 671 64 640 q 87 722 64 701 q 144 743 110 743 q 201 722 178 743 q 224 671 224 701 q 201 618 224 640 q 144 596 178 596 m 57 -122 l 57 -68 q 112 -61 88 -69 q 153 -35 136 -53 q 174 7 169 -18 q 155 -3 165 1 q 133 -7 144 -7 q 81 10 103 -7 q 60 61 60 26 q 85 119 60 97 q 144 140 110 140 q 192 124 172 140 q 224 84 213 108 q 236 33 236 60 q 210 -57 236 -21 q 144 -109 185 -93 q 57 -122 104 -125 z "},"…":{"ha":753,"x_min":57,"x_max":703,"o":"m 381 -10 q 323 13 346 -10 q 300 65 300 35 q 323 117 300 96 q 381 138 346 138 q 437 117 414 138 q 460 65 460 96 q 437 13 460 35 q 381 -10 414 -10 m 624 -10 q 566 13 589 -10 q 543 65 543 35 q 566 117 543 96 q 624 138 589 138 q 680 117 657 138 q 703 65 703 96 q 680 13 703 35 q 624 -10 657 -10 m 138 -10 q 80 13 103 -10 q 57 65 57 35 q 80 117 57 96 q 138 138 103 138 q 194 117 171 138 q 217 65 217 96 q 194 13 217 35 q 138 -10 171 -10 z "},"!":{"ha":382,"x_min":111,"x_max":271,"o":"m 139 958 l 244 958 l 232 257 l 150 257 l 139 958 m 192 -7 q 134 15 157 -7 q 111 68 111 38 q 134 119 111 99 q 192 140 157 140 q 248 119 225 140 q 271 68 271 99 q 248 15 271 38 q 192 -7 225 -7 z "},"¡":{"ha":382,"x_min":111,"x_max":271,"o":"m 139 -186 l 150 515 l 232 515 l 244 -186 l 139 -186 m 192 779 q 248 758 225 779 q 271 704 271 736 q 248 653 271 674 q 192 632 225 632 q 134 653 157 632 q 111 704 111 674 q 134 758 111 736 q 192 779 157 779 z "},"?":{"ha":706,"x_min":47,"x_max":643,"o":"m 211 242 l 206 464 l 269 464 q 407 486 343 464 q 510 558 471 508 q 550 689 550 607 q 491 832 550 779 q 338 885 432 885 q 203 842 256 885 q 135 724 150 800 l 47 749 q 98 862 61 813 q 196 940 135 911 q 340 968 257 968 q 497 933 429 968 q 604 835 565 897 q 643 694 643 774 q 599 531 643 597 q 476 429 554 464 q 299 394 399 394 l 294 242 l 211 242 m 263 -10 q 205 13 228 -10 q 182 65 182 35 q 205 117 182 96 q 263 138 228 138 q 319 117 296 138 q 342 65 342 96 q 319 13 342 35 q 263 -10 296 -10 z "},"¿":{"ha":692,"x_min":56,"x_max":651,"o":"m 488 517 l 493 294 l 429 294 q 292 272 357 294 q 188 201 228 250 q 149 69 149 151 q 208 -74 149 -21 q 361 -126 268 -126 q 497 -84 443 -126 q 564 35 550 -42 l 651 10 q 601 -103 639 -53 q 503 -181 564 -153 q 358 -210 442 -210 q 201 -174 269 -210 q 94 -77 133 -139 q 56 64 56 -15 q 100 228 56 161 q 222 329 144 294 q 400 364 300 364 l 404 517 l 488 517 m 436 768 q 494 747 471 768 q 517 693 517 725 q 494 642 517 663 q 436 621 471 621 q 380 642 403 621 q 357 693 357 663 q 380 747 357 725 q 436 768 403 768 z "},"·":{"ha":274,"x_min":60,"x_max":219,"o":"m 140 407 q 83 429 106 407 q 60 482 60 451 q 83 533 60 513 q 140 554 106 554 q 197 533 174 554 q 219 482 219 513 q 197 429 219 451 q 140 407 174 407 z "},"•":{"ha":508,"x_min":93,"x_max":414,"o":"m 253 303 q 173 324 210 303 q 115 382 136 346 q 93 463 93 418 q 115 544 93 508 q 173 602 136 581 q 253 624 210 624 q 335 602 299 624 q 392 544 371 581 q 414 463 414 508 q 392 382 414 418 q 335 324 371 346 q 253 303 299 303 z "},"*":{"ha":651,"x_min":82,"x_max":571,"o":"m 351 810 l 531 931 l 569 860 l 374 771 l 571 682 l 531 610 l 351 729 l 368 511 l 288 511 l 303 729 l 124 608 l 82 682 l 279 771 l 83 858 l 124 931 l 304 810 l 288 1028 l 369 1028 l 351 810 z "},"#":{"ha":1128,"x_min":49,"x_max":1057,"o":"m 425 1028 l 518 1028 l 299 0 l 206 0 l 425 1028 m 826 1028 l 919 1028 l 700 0 l 607 0 l 826 1028 m 49 383 l 981 383 l 981 297 l 49 297 l 49 383 m 125 726 l 1057 726 l 1057 640 l 125 640 l 125 726 z "},"/":{"ha":615,"x_min":64,"x_max":546,"o":"m 447 1306 l 546 1306 l 163 -231 l 64 -231 l 447 1306 z "},"\\":{"ha":840,"x_min":140,"x_max":692,"o":"m 692 -231 l 593 -231 l 140 1306 l 239 1306 l 692 -231 z "},"-":{"ha":721,"x_min":97,"x_max":638,"o":"m 97 556 l 638 556 l 638 474 l 97 474 l 97 556 z "},"–":{"ha":901,"x_min":90,"x_max":811,"o":"m 90 556 l 811 556 l 811 474 l 90 474 l 90 556 z "},"—":{"ha":1179,"x_min":90,"x_max":1089,"o":"m 90 556 l 1089 556 l 1089 474 l 90 474 l 90 556 z "},"_":{"ha":936,"x_min":119,"x_max":826,"o":"m 119 -49 l 826 -49 l 826 -139 l 119 -139 l 119 -49 z "},"(":{"ha":583,"x_min":131,"x_max":535,"o":"m 411 -258 q 263 -55 326 -174 q 165 208 200 64 q 131 513 131 351 q 166 819 131 674 q 267 1088 201 965 q 426 1297 333 1210 l 535 1297 q 364 1069 433 1197 q 260 799 294 942 q 225 513 225 657 q 259 228 225 368 q 360 -35 293 89 q 521 -258 426 -160 l 411 -258 z "},")":{"ha":583,"x_min":49,"x_max":453,"o":"m 172 -258 l 63 -258 q 224 -35 158 -160 q 324 228 290 89 q 358 513 358 368 q 324 799 358 657 q 220 1069 289 942 q 49 1297 151 1197 l 157 1297 q 316 1088 250 1210 q 417 819 382 965 q 453 513 453 674 q 418 208 453 351 q 321 -55 383 64 q 172 -258 258 -174 z "},"{":{"ha":574,"x_min":119,"x_max":506,"o":"m 119 479 l 119 558 q 236 624 207 578 q 265 721 265 669 q 258 840 265 776 q 242 968 250 903 q 235 1094 235 1033 q 290 1247 235 1197 q 436 1296 346 1296 l 506 1296 l 506 1211 l 453 1211 q 361 1183 393 1211 q 329 1088 329 1154 q 337 967 329 1031 q 352 839 344 903 q 360 718 360 775 q 323 592 360 646 q 204 519 286 539 l 204 517 q 323 445 286 499 q 360 318 360 392 q 352 199 360 263 q 337 70 344 135 q 329 -51 329 6 q 361 -147 329 -118 q 453 -175 393 -175 l 506 -175 l 506 -260 l 436 -260 q 290 -210 346 -260 q 235 -58 235 -160 q 242 68 235 3 q 258 197 250 133 q 265 315 265 261 q 236 413 265 367 q 119 479 207 458 z "},"}":{"ha":574,"x_min":68,"x_max":454,"o":"m 454 479 q 338 413 367 458 q 308 315 308 367 q 316 197 308 261 q 331 68 324 133 q 339 -58 339 3 q 283 -210 339 -160 q 138 -260 228 -260 l 68 -260 l 68 -175 l 121 -175 q 213 -147 181 -175 q 244 -51 244 -118 q 237 70 244 6 q 222 199 229 135 q 214 318 214 263 q 251 445 214 392 q 369 517 288 499 l 369 519 q 251 592 288 539 q 214 718 214 646 q 222 839 214 775 q 237 967 229 903 q 244 1088 244 1031 q 213 1183 244 1154 q 121 1211 181 1211 l 68 1211 l 68 1296 l 138 1296 q 283 1247 228 1296 q 339 1094 339 1197 q 331 968 339 1033 q 316 840 324 903 q 308 721 308 776 q 338 624 308 669 q 454 558 367 578 l 454 479 z "},"[":{"ha":510,"x_min":165,"x_max":379,"o":"m 165 1297 l 379 1297 l 379 1217 l 257 1217 l 257 -176 l 379 -176 l 379 -258 l 165 -258 l 165 1297 z "},"]":{"ha":510,"x_min":131,"x_max":344,"o":"m 344 1297 l 344 -258 l 131 -258 l 131 -176 l 253 -176 l 253 1217 l 131 1217 l 131 1297 l 344 1297 z "},"‚":{"ha":231,"x_min":11,"x_max":190,"o":"m 11 -125 l 11 -71 q 88 -52 56 -71 q 128 4 121 -33 q 109 -6 119 -1 q 88 -10 99 -10 q 35 7 57 -10 q 14 58 14 24 q 39 116 14 94 q 99 138 64 138 q 147 122 126 138 q 178 81 167 106 q 190 31 190 57 q 165 -58 190 -24 q 99 -109 139 -93 q 11 -125 58 -125 z "},"„":{"ha":429,"x_min":11,"x_max":389,"o":"m 11 -125 l 11 -71 q 88 -52 56 -71 q 128 4 121 -33 q 109 -6 119 -1 q 88 -10 99 -10 q 35 7 57 -10 q 14 58 14 24 q 39 116 14 94 q 99 138 64 138 q 147 122 126 138 q 178 81 167 106 q 190 31 190 57 q 165 -58 190 -24 q 99 -109 139 -93 q 11 -125 58 -125 m 210 -125 l 210 -71 q 287 -52 254 -71 q 326 4 319 -33 q 308 -6 318 -1 q 286 -10 297 -10 q 234 7 256 -10 q 213 58 213 24 q 238 116 213 94 q 297 138 263 138 q 345 122 325 138 q 377 81 365 106 q 389 31 389 57 q 363 -58 389 -24 q 297 -109 338 -93 q 210 -125 257 -125 z "},"“":{"ha":440,"x_min":33,"x_max":392,"o":"m 203 958 l 203 907 q 128 889 156 907 q 93 835 100 871 q 131 849 110 849 q 166 842 150 849 q 191 821 182 835 q 200 783 200 807 q 177 729 200 750 q 121 708 154 708 q 75 724 94 708 q 44 763 56 739 q 33 810 33 786 q 56 895 33 863 q 117 943 78 928 q 203 958 156 958 m 392 958 l 392 907 q 317 889 344 907 q 282 835 289 871 q 319 849 299 849 q 355 842 339 849 q 380 821 371 835 q 389 783 389 807 q 366 729 389 750 q 310 708 343 708 q 264 724 283 708 q 233 763 244 739 q 222 810 222 786 q 244 895 222 863 q 306 943 267 928 q 392 958 344 958 z "},"”":{"ha":439,"x_min":43,"x_max":401,"o":"m 43 718 l 43 769 q 119 788 90 769 q 153 842 147 807 q 135 832 146 836 q 115 828 125 828 q 66 844 86 828 q 46 893 46 860 q 69 947 46 926 q 126 968 92 968 q 172 953 153 968 q 201 915 190 938 q 213 867 213 892 q 190 782 213 815 q 128 733 167 749 q 43 718 89 718 m 232 718 l 232 769 q 308 788 279 769 q 342 842 336 807 q 324 832 335 836 q 304 828 314 828 q 255 844 275 828 q 235 893 235 860 q 258 947 235 926 q 315 968 281 968 q 360 953 342 968 q 390 915 379 938 q 401 867 401 892 q 378 782 401 815 q 316 733 354 749 q 232 718 278 718 z "},"‘":{"ha":251,"x_min":33,"x_max":203,"o":"m 203 958 l 203 907 q 128 889 156 907 q 93 835 100 871 q 110 845 100 842 q 131 849 121 849 q 180 833 160 849 q 200 783 200 818 q 177 729 200 750 q 121 708 154 708 q 75 724 94 708 q 44 763 56 739 q 33 810 33 786 q 56 895 33 863 q 117 943 78 928 q 203 958 156 958 z "},"’":{"ha":250,"x_min":43,"x_max":213,"o":"m 43 718 l 43 769 q 119 788 90 769 q 153 842 147 807 q 135 832 146 836 q 115 828 125 828 q 66 844 86 828 q 46 893 46 860 q 69 947 46 926 q 126 968 92 968 q 172 953 153 968 q 201 915 190 938 q 213 867 213 892 q 190 782 213 815 q 128 733 167 749 q 43 718 89 718 z "},"«":{"ha":604,"x_min":63,"x_max":535,"o":"m 299 167 l 200 167 l 63 410 l 200 653 l 299 653 l 157 410 l 299 167 m 535 167 l 436 167 l 299 410 l 436 653 l 535 653 l 393 410 l 535 167 z "},"»":{"ha":604,"x_min":69,"x_max":542,"o":"m 306 167 l 447 410 l 306 653 l 404 653 l 542 410 l 404 167 l 306 167 m 69 167 l 211 410 l 69 653 l 168 653 l 306 410 l 168 167 l 69 167 z "},"‹":{"ha":368,"x_min":63,"x_max":299,"o":"m 299 167 l 200 167 l 63 410 l 200 653 l 299 653 l 157 410 l 299 167 z "},"›":{"ha":368,"x_min":69,"x_max":306,"o":"m 69 167 l 211 410 l 69 653 l 168 653 l 306 410 l 168 167 l 69 167 z "},"\"":{"ha":367,"x_min":51,"x_max":314,"o":"m 51 1104 l 147 1104 l 133 836 l 65 836 l 51 1104 m 218 1104 l 314 1104 l 301 836 l 233 836 l 218 1104 z "},"'":{"ha":204,"x_min":51,"x_max":153,"o":"m 51 1104 l 153 1104 l 136 836 l 68 836 l 51 1104 z "},"ƒ":{"ha":461,"x_min":-57,"x_max":457,"o":"m -57 -249 l -50 -168 l -21 -168 q 47 -147 24 -168 q 75 -69 69 -126 l 171 832 q 255 1006 183 951 q 457 1060 326 1060 l 450 978 q 319 944 363 978 q 268 832 276 910 l 172 -69 q 144 -171 167 -131 q 81 -230 121 -211 q -22 -249 40 -249 l -57 -249 m 50 678 l 57 758 l 436 758 l 429 678 l 50 678 z "},"@":{"ha":1392,"x_min":104,"x_max":1288,"o":"m 860 169 l 865 218 l 888 185 q 774 44 851 96 q 607 -8 697 -8 q 442 56 501 -8 q 383 229 383 121 q 408 376 383 306 q 476 501 432 446 q 583 588 521 556 q 719 619 644 619 q 859 572 807 619 q 919 435 911 525 l 892 418 l 924 603 l 1008 603 l 938 199 q 944 99 928 138 q 1014 60 961 60 q 1097 92 1061 60 q 1158 178 1133 125 q 1194 294 1182 232 q 1207 415 1207 357 q 1155 628 1207 539 q 1006 765 1103 717 q 775 813 910 813 q 541 765 649 813 q 353 634 433 718 q 230 438 274 550 q 186 199 186 326 q 238 -17 186 72 q 387 -153 290 -107 q 615 -200 483 -200 q 733 -188 674 -200 q 844 -153 793 -176 l 860 -221 q 731 -258 799 -246 q 594 -271 664 -271 q 338 -215 449 -271 q 166 -55 228 -158 q 104 189 104 49 q 155 461 104 335 q 297 683 206 588 q 514 831 389 778 q 788 883 639 883 q 1053 825 940 883 q 1226 663 1165 767 q 1288 421 1288 558 q 1269 265 1288 342 q 1213 127 1250 189 q 1122 28 1175 65 q 1000 -8 1069 -8 q 885 42 919 -8 q 860 169 851 92 m 719 543 q 588 499 643 543 q 503 387 533 456 q 474 243 474 318 q 515 116 474 164 q 635 68 556 68 q 750 101 697 68 q 837 194 803 135 q 879 331 871 253 q 871 438 886 389 q 818 515 856 486 q 719 543 781 543 z "},"&":{"ha":999,"x_min":54,"x_max":976,"o":"m 850 0 l 310 549 q 219 665 247 613 q 190 778 190 717 q 220 886 190 839 q 305 960 250 933 q 433 986 360 986 q 554 956 503 986 q 637 874 606 925 q 674 761 668 824 l 579 739 q 530 858 574 810 q 429 906 486 906 q 326 870 365 906 q 288 779 288 835 q 313 690 288 732 q 389 594 338 647 l 976 0 l 850 0 m 385 -17 q 213 20 288 -17 q 96 123 138 57 q 54 278 54 189 q 119 464 54 385 q 308 586 185 543 l 349 600 l 403 535 l 351 517 q 201 422 250 481 q 151 281 151 363 q 181 172 151 219 q 264 96 211 124 q 385 68 317 68 q 528 98 465 68 q 648 192 592 128 q 761 354 704 256 l 822 461 l 904 421 l 847 321 q 713 131 782 206 q 565 19 644 56 q 385 -17 486 -17 z "},"¶":{"ha":783,"x_min":39,"x_max":672,"o":"m 672 958 l 672 0 l 585 0 l 585 881 l 465 881 l 465 0 l 378 0 l 378 401 q 190 438 265 401 q 77 538 115 475 q 39 679 39 600 q 74 822 39 760 q 183 922 110 885 q 367 958 256 958 l 672 958 z "},"§":{"ha":794,"x_min":69,"x_max":725,"o":"m 417 -253 q 269 -226 333 -253 q 165 -147 204 -199 q 121 -22 126 -96 l 218 -22 q 244 -100 224 -64 q 308 -159 265 -136 q 417 -182 350 -182 q 542 -150 494 -182 q 589 -53 589 -118 q 568 14 589 -14 q 498 66 547 42 q 363 115 449 90 q 210 174 276 142 q 106 254 143 206 q 69 375 69 303 q 102 489 69 436 q 199 575 135 542 q 358 611 264 608 l 350 582 q 236 627 292 601 q 144 694 181 653 q 108 797 108 735 q 141 901 108 854 q 235 975 174 947 q 381 1003 296 1003 q 528 976 464 1003 q 631 899 592 950 q 674 774 669 847 l 576 774 q 552 850 574 814 q 489 910 531 886 q 381 933 447 933 q 253 902 301 933 q 206 806 206 871 q 226 738 206 767 q 297 685 247 710 q 433 635 346 661 q 585 577 519 610 q 688 497 651 544 q 725 375 725 449 q 692 263 725 315 q 596 177 660 211 q 436 138 532 143 l 444 169 q 560 125 506 151 q 651 58 615 99 q 686 -44 686 18 q 654 -149 686 -101 q 563 -225 622 -197 q 417 -253 503 -253 m 401 203 q 569 255 511 203 q 626 375 626 307 q 565 499 626 450 q 394 547 503 547 q 226 496 285 547 q 168 375 168 444 q 230 253 168 303 q 401 203 292 203 z "},"©":{"ha":1106,"x_min":74,"x_max":1032,"o":"m 553 -6 q 303 58 411 -6 q 134 232 194 121 q 74 486 74 343 q 134 741 74 631 q 303 914 194 851 q 553 976 411 976 q 803 914 696 976 q 972 741 911 851 q 1032 486 1032 631 q 972 232 1032 343 q 803 58 911 121 q 553 -6 696 -6 m 553 42 q 781 99 685 42 q 930 256 878 156 q 982 486 982 356 q 930 718 982 618 q 781 874 878 818 q 553 931 685 931 q 324 874 421 931 q 176 718 228 818 q 124 486 124 618 q 176 256 124 356 q 324 99 228 156 q 553 42 421 42 m 556 165 q 399 204 468 165 q 292 315 331 243 q 253 486 253 388 q 292 658 253 586 q 399 768 331 729 q 556 807 468 807 q 678 786 622 807 q 773 723 733 765 q 831 615 813 681 l 757 592 q 684 700 735 661 q 556 739 633 739 q 444 711 494 739 q 363 627 393 683 q 333 486 333 571 q 363 345 333 401 q 444 260 393 289 q 556 232 494 232 q 699 280 646 232 q 769 401 753 328 l 843 383 q 788 269 828 318 q 690 192 749 219 q 556 165 632 165 z "},"®":{"ha":697,"x_min":75,"x_max":624,"o":"m 350 426 q 208 463 269 426 q 110 562 146 499 q 75 704 75 625 q 110 847 75 785 q 208 947 146 910 q 350 983 269 983 q 492 947 431 983 q 588 847 553 910 q 624 704 624 785 q 588 562 624 625 q 492 463 553 499 q 350 426 431 426 m 350 472 q 513 538 451 472 q 574 704 574 603 q 513 871 574 806 q 350 936 451 936 q 187 871 249 936 q 125 704 125 806 q 187 538 125 603 q 350 472 249 472 m 414 557 q 407 606 414 579 q 376 654 400 633 q 301 675 353 675 l 301 557 l 242 557 l 242 856 l 371 856 q 444 831 417 856 q 471 765 471 807 q 418 685 471 707 q 456 651 443 674 q 474 602 469 628 q 479 557 479 576 l 414 557 m 301 725 l 367 725 q 399 734 386 725 q 411 764 411 743 q 399 792 411 783 q 367 801 386 801 l 301 801 l 301 725 z "},"™":{"ha":1047,"x_min":38,"x_max":976,"o":"m 38 958 l 368 958 l 368 894 l 242 894 l 242 469 l 164 469 l 164 894 l 38 894 l 38 958 m 444 958 l 543 958 l 725 528 l 694 528 l 882 958 l 976 958 l 976 469 l 901 469 l 901 894 l 928 903 l 738 469 l 679 469 l 493 903 l 517 894 l 517 469 l 444 469 l 444 958 z "},"°":{"ha":547,"x_min":40,"x_max":507,"o":"m 272 482 q 151 513 203 482 q 69 598 99 543 q 40 725 40 653 q 70 853 40 799 q 153 938 100 908 q 274 968 206 968 q 394 938 342 968 q 477 853 447 908 q 507 725 507 799 q 476 598 507 653 q 393 513 446 543 q 272 482 340 482 m 272 543 q 382 590 338 543 q 426 725 426 636 q 382 861 426 814 q 272 908 338 908 q 164 861 208 908 q 119 725 119 814 q 163 590 119 636 q 272 543 206 543 z "},"|":{"ha":363,"x_min":133,"x_max":231,"o":"m 231 1097 l 231 -139 l 133 -139 l 133 1097 l 231 1097 z "},"¦":{"ha":363,"x_min":133,"x_max":231,"o":"m 231 375 l 231 -139 l 133 -139 l 133 375 l 231 375 m 133 583 l 133 1097 l 231 1097 l 231 583 l 133 583 z "},"†":{"ha":710,"x_min":56,"x_max":654,"o":"m 654 758 l 654 679 l 393 689 l 403 -358 l 307 -358 l 317 689 l 56 679 l 56 758 l 317 749 l 307 1082 l 403 1082 l 393 749 l 654 758 z "},"ℓ":{"ha":367,"x_min":111,"x_max":322,"o":"m 111 133 l 111 1028 l 208 1028 l 208 142 q 226 92 208 108 q 269 76 244 76 q 300 82 285 76 l 322 8 q 251 -10 293 -10 q 186 4 218 -10 q 133 50 154 18 q 111 133 111 82 z "},"‡":{"ha":711,"x_min":57,"x_max":656,"o":"m 656 679 l 394 689 l 394 35 l 656 44 l 656 -35 l 394 -25 l 403 -358 l 307 -358 l 318 -25 l 57 -35 l 57 44 l 318 35 l 318 689 l 57 679 l 57 758 l 318 749 l 307 1082 l 403 1082 l 394 749 l 656 758 l 656 679 z "},"℮":{"ha":1061,"x_min":69,"x_max":992,"o":"m 543 -10 q 301 44 408 -10 q 131 203 193 99 q 69 457 69 307 q 123 715 69 600 q 279 899 176 831 q 531 968 382 968 q 728 931 642 968 q 873 831 814 894 q 962 686 932 767 q 992 519 992 606 l 992 435 l 236 435 l 236 207 q 364 97 292 135 q 543 60 436 60 q 733 109 650 60 q 903 243 817 158 l 953 190 q 765 44 868 99 q 543 -10 663 -10 m 236 515 l 810 515 l 810 764 q 693 863 765 828 q 531 897 621 897 q 364 861 440 897 q 236 747 288 825 l 236 515 z "},"¢":{"ha":892,"x_min":88,"x_max":758,"o":"m 435 13 q 250 56 328 13 q 130 179 172 100 q 88 367 88 258 q 131 555 88 475 q 252 678 174 635 q 438 721 331 721 q 599 689 533 721 q 703 605 664 657 q 758 490 743 553 l 669 468 q 590 592 650 544 q 435 640 531 640 q 299 610 361 640 q 201 518 238 579 q 165 364 165 457 q 201 210 165 272 q 299 117 238 149 q 435 86 361 86 q 556 111 508 86 q 630 178 603 136 q 669 269 657 219 l 753 251 q 700 131 739 186 q 596 44 661 76 q 435 13 531 13 m 401 -125 l 401 65 l 463 65 l 463 -125 l 401 -125 m 401 663 l 401 853 l 463 853 l 463 663 l 401 663 z "},"¤":{"ha":731,"x_min":92,"x_max":638,"o":"m 364 281 q 243 310 296 281 q 160 395 190 340 q 131 524 131 450 q 162 652 131 597 q 246 737 193 707 q 365 767 299 767 q 484 737 431 767 q 569 652 538 707 q 600 524 600 597 q 568 395 600 450 q 483 310 536 340 q 364 281 429 281 m 138 244 l 92 290 l 203 401 l 249 356 l 138 244 m 592 244 l 486 350 l 529 399 l 638 290 l 592 244 m 364 344 q 470 391 424 344 q 517 524 517 438 q 471 657 517 610 q 364 704 425 704 q 258 657 301 704 q 214 524 214 610 q 258 391 214 438 q 364 344 301 344 m 203 650 l 92 760 l 138 806 l 246 697 l 203 650 m 524 646 l 483 696 l 592 806 l 638 760 l 524 646 z "},"$":{"ha":853,"x_min":83,"x_max":735,"o":"m 396 -121 l 396 1099 l 457 1099 l 457 -121 l 396 -121 m 422 -10 q 256 24 329 -10 q 139 120 183 57 q 83 269 94 183 l 183 288 q 259 132 199 188 q 422 76 319 76 q 580 123 524 76 q 636 244 636 169 q 607 342 636 306 q 531 399 578 378 q 426 433 483 419 q 313 464 369 447 q 208 508 256 481 q 132 585 161 536 q 103 711 103 633 q 142 844 103 786 q 251 935 181 903 q 414 968 321 968 q 571 931 507 968 q 672 838 635 894 q 721 724 710 782 l 624 699 q 551 830 610 778 q 410 882 492 882 q 306 863 353 882 q 230 808 258 844 q 201 714 201 771 q 231 618 201 654 q 307 562 260 582 q 411 527 354 542 q 525 495 468 513 q 629 450 582 478 q 706 374 676 422 q 735 249 735 326 q 699 124 735 183 q 594 27 664 64 q 422 -10 525 -10 z "},"€":{"ha":1122,"x_min":32,"x_max":1060,"o":"m 32 557 l 32 626 l 632 626 l 632 557 l 32 557 m 32 331 l 32 400 l 632 400 l 632 331 l 32 331 m 633 968 q 824 935 742 968 q 965 842 907 901 q 1056 706 1022 783 l 960 667 q 838 821 919 761 q 633 881 757 881 q 441 833 526 881 q 306 694 356 785 q 256 479 256 604 q 305 265 256 354 q 440 126 354 175 q 631 78 525 78 q 778 102 714 78 q 890 172 843 126 q 964 279 938 218 l 1060 240 q 972 115 1031 172 q 827 24 913 58 q 631 -10 742 -10 q 443 26 529 -10 q 292 126 357 61 q 192 280 228 190 q 156 479 156 369 q 192 678 156 588 q 293 833 228 768 q 445 933 358 897 q 633 968 532 968 z "},"₺":{"ha":1128,"x_min":50,"x_max":996,"o":"m 496 -28 q 397 -21 449 -28 q 289 -1 344 -14 l 289 975 l 389 975 l 389 74 q 444 65 417 68 q 496 63 471 63 q 676 95 600 63 q 800 192 751 128 q 872 349 849 256 q 896 564 896 442 l 996 564 q 944 239 996 371 q 781 40 892 107 q 496 -28 671 -28 m 53 283 l 53 356 l 650 508 l 650 436 l 53 283 m 50 513 l 50 583 l 653 742 l 653 669 l 50 513 z "},"₽":{"ha":851,"x_min":61,"x_max":800,"o":"m 61 482 l 472 482 q 649 536 596 482 q 701 679 701 590 q 649 827 701 774 q 472 881 596 881 l 276 881 l 276 0 l 179 0 l 179 958 l 472 958 q 658 922 586 958 q 765 822 731 885 q 800 679 800 760 q 766 538 800 601 q 660 438 732 475 q 472 401 588 401 l 61 401 l 61 482 m 61 264 l 601 264 l 601 185 l 61 185 l 61 264 z "},"₨":{"ha":1494,"x_min":111,"x_max":1389,"o":"m 111 0 l 111 958 l 403 958 q 589 922 515 958 q 698 822 663 885 q 733 679 733 760 q 671 507 733 578 q 506 417 608 436 q 640 342 581 393 q 740 207 700 290 q 794 0 781 124 l 692 0 q 631 215 681 133 q 497 338 582 296 q 368 377 440 365 q 208 389 296 389 l 208 0 l 111 0 m 208 472 l 404 472 q 578 531 524 472 q 633 679 633 590 q 580 824 633 771 q 403 876 526 876 l 208 876 l 208 472 m 1125 -11 q 976 17 1039 -11 q 874 94 913 46 q 824 201 836 142 l 913 221 q 978 115 926 158 q 1124 72 1031 72 q 1249 110 1206 72 q 1293 201 1293 147 q 1260 275 1293 249 q 1176 317 1228 301 q 1065 349 1124 333 q 955 388 1007 364 q 870 453 903 411 q 838 564 838 494 q 871 667 838 621 q 965 742 904 714 q 1104 769 1025 769 q 1240 743 1186 769 q 1326 673 1294 717 q 1369 576 1358 629 l 1285 551 q 1230 644 1272 603 q 1101 686 1188 686 q 981 651 1025 686 q 936 565 936 615 q 969 485 936 514 q 1053 439 1001 456 q 1163 407 1104 422 q 1272 369 1221 392 q 1356 308 1324 347 q 1389 201 1389 268 q 1356 92 1389 140 q 1263 17 1322 44 q 1125 -11 1204 -11 z "},"₹":{"ha":897,"x_min":76,"x_max":832,"o":"m 638 926 l 638 703 q 603 532 638 599 q 481 434 568 465 q 235 403 393 403 l 235 272 q 277 121 235 178 q 418 64 319 64 q 553 117 510 64 q 596 263 596 169 l 686 263 q 615 56 685 125 q 417 -14 544 -14 q 211 63 279 -14 q 143 272 143 140 l 143 472 q 360 483 279 472 q 480 518 440 493 q 533 588 519 543 q 546 700 546 632 l 546 926 l 638 926 m 76 972 l 832 972 l 832 899 l 76 899 l 76 972 m 76 654 l 76 726 l 832 726 l 832 654 l 76 654 z "},"£":{"ha":828,"x_min":64,"x_max":740,"o":"m 140 0 l 125 68 q 220 191 194 132 q 243 310 246 250 q 219 435 240 369 l 64 435 l 64 510 l 193 510 q 165 602 178 554 q 151 714 151 650 q 189 862 151 799 q 293 960 226 925 q 447 996 360 996 q 608 957 543 996 q 704 857 672 918 q 736 726 736 796 l 647 715 q 624 815 647 771 q 558 887 601 860 q 449 914 514 914 q 349 893 394 914 q 276 827 304 872 q 249 710 249 782 q 263 606 249 654 q 293 510 276 557 l 561 510 l 561 435 l 318 435 q 322 238 347 325 q 213 82 297 150 l 740 82 l 740 0 l 140 0 z "},"¥":{"ha":813,"x_min":47,"x_max":769,"o":"m 472 517 l 736 517 l 736 443 l 457 443 l 472 517 m 83 313 l 736 313 l 736 239 l 83 239 l 83 313 m 47 958 l 157 958 l 431 422 l 386 422 l 660 958 l 769 958 l 458 378 l 458 0 l 361 0 l 361 378 l 47 958 m 83 517 l 358 517 l 374 443 l 83 443 l 83 517 z "},"+":{"ha":833,"x_min":63,"x_max":771,"o":"m 461 868 l 461 160 l 371 160 l 371 868 l 461 868 m 63 556 l 771 556 l 771 472 l 63 472 l 63 556 z "},"−":{"ha":833,"x_min":146,"x_max":686,"o":"m 146 556 l 686 556 l 686 474 l 146 474 l 146 556 z "},"×":{"ha":833,"x_min":124,"x_max":710,"o":"m 189 807 l 710 285 l 646 222 l 125 744 l 189 807 m 124 286 l 643 806 l 707 742 l 188 222 l 124 286 z "},"÷":{"ha":833,"x_min":64,"x_max":771,"o":"m 64 556 l 771 556 l 771 474 l 64 474 l 64 556 m 431 143 q 373 165 396 143 q 350 218 350 188 q 373 269 350 249 q 431 290 396 290 q 487 269 464 290 q 510 218 510 249 q 487 165 510 188 q 431 143 464 143 m 431 739 q 373 761 396 739 q 350 814 350 783 q 373 865 350 844 q 431 886 396 886 q 487 865 464 886 q 510 814 510 844 q 487 761 510 783 q 431 739 464 739 z "},"=":{"ha":833,"x_min":63,"x_max":771,"o":"m 63 414 l 771 414 l 771 332 l 63 332 l 63 414 m 63 697 l 771 697 l 771 614 l 63 614 l 63 697 z "},"≠":{"ha":833,"x_min":58,"x_max":774,"o":"m 696 838 l 774 838 l 233 190 l 157 190 l 696 838 m 58 414 l 767 414 l 767 332 l 58 332 l 58 414 m 58 697 l 767 697 l 767 614 l 58 614 l 58 697 z "},">":{"ha":833,"x_min":181,"x_max":653,"o":"m 531 514 l 181 836 l 304 836 l 653 514 l 304 192 l 181 192 l 531 514 z "},"<":{"ha":833,"x_min":181,"x_max":653,"o":"m 653 192 l 529 192 l 181 514 l 529 836 l 653 836 l 303 514 l 653 192 z "},"≥":{"ha":833,"x_min":176,"x_max":657,"o":"m 178 299 l 538 578 l 538 557 l 178 836 l 306 836 l 657 567 l 306 299 l 178 299 m 650 218 l 650 143 l 176 143 l 176 218 l 650 218 z "},"≤":{"ha":833,"x_min":178,"x_max":657,"o":"m 183 218 l 657 218 l 657 143 l 183 143 l 183 218 m 657 299 l 528 299 l 178 567 l 528 836 l 657 836 l 297 557 l 297 578 l 657 299 z "},"±":{"ha":833,"x_min":63,"x_max":769,"o":"m 461 872 l 461 231 l 371 231 l 371 872 l 461 872 m 63 611 l 769 611 l 769 529 l 63 529 l 63 611 m 63 236 l 769 236 l 769 153 l 63 153 l 63 236 z "},"≈":{"ha":833,"x_min":132,"x_max":703,"o":"m 531 306 q 463 319 493 306 q 408 352 433 333 q 356 385 382 371 q 299 399 329 399 q 237 373 261 399 q 206 307 213 347 l 132 307 q 192 442 147 397 q 304 486 236 486 q 374 472 343 486 q 431 440 404 458 q 483 407 457 421 q 538 393 508 393 q 599 419 575 393 q 629 485 624 444 l 703 485 q 645 351 689 396 q 531 306 601 306 m 531 583 q 463 597 493 583 q 408 630 433 611 q 356 663 382 649 q 299 676 329 676 q 237 651 261 676 q 206 585 213 625 l 132 585 q 192 719 147 675 q 304 764 236 764 q 374 750 343 764 q 431 717 404 736 q 483 685 457 699 q 538 671 508 671 q 599 697 575 671 q 629 763 624 722 l 703 763 q 645 628 689 674 q 531 583 601 583 z "},"~":{"ha":676,"x_min":53,"x_max":624,"o":"m 451 356 q 384 369 414 356 q 328 402 354 383 q 276 435 303 421 q 219 449 250 449 q 158 423 182 449 q 126 357 133 397 l 53 357 q 113 492 68 447 q 225 536 157 536 q 294 522 264 536 q 351 490 325 508 q 403 457 378 471 q 458 443 429 443 q 520 469 496 443 q 550 535 544 494 l 624 535 q 566 401 610 446 q 451 356 522 356 z "},"¬":{"ha":833,"x_min":26,"x_max":807,"o":"m 26 597 l 807 597 l 807 319 l 711 319 l 711 518 l 26 518 l 26 597 z "},"^":{"ha":842,"x_min":53,"x_max":790,"o":"m 422 836 l 153 238 l 53 238 l 378 958 l 465 958 l 790 238 l 689 238 l 422 836 z "},"∞":{"ha":960,"x_min":53,"x_max":907,"o":"m 253 285 q 110 338 167 286 q 53 482 53 389 q 80 589 53 544 q 154 657 107 633 q 258 681 201 681 q 356 657 314 681 q 431 597 397 633 q 494 519 465 560 q 553 441 524 478 q 618 381 583 404 q 697 357 653 357 q 790 392 756 357 q 824 483 824 426 q 791 574 824 540 q 700 607 758 607 q 585 560 636 607 q 506 442 533 513 l 460 482 q 510 576 476 531 q 593 651 543 622 q 707 681 643 681 q 809 657 764 681 q 881 590 854 633 q 907 483 907 546 q 879 376 907 421 q 805 308 851 332 q 701 285 758 285 q 601 308 644 285 q 524 369 558 332 q 458 447 489 406 q 399 524 428 488 q 337 585 369 561 q 263 608 304 608 q 170 574 204 608 q 136 482 136 539 q 169 392 136 425 q 260 358 201 358 q 375 406 324 358 q 454 524 426 453 l 500 483 q 450 389 483 435 q 367 314 417 343 q 253 285 318 285 z "},"∫":{"ha":351,"x_min":-50,"x_max":415,"o":"m 199 1092 q 228 1191 206 1153 q 289 1247 250 1229 q 383 1265 328 1265 l 415 1265 l 407 1183 l 381 1183 q 324 1164 344 1183 q 296 1092 303 1144 l 167 -69 q 139 -171 160 -131 q 81 -230 118 -211 q -15 -249 43 -249 l -50 -249 l -42 -168 l -11 -168 q 47 -147 29 -168 q 69 -69 64 -125 l 199 1092 z "},"Ω":{"ha":1096,"x_min":61,"x_max":1036,"o":"m 81 0 l 81 78 l 353 78 l 335 60 q 186 155 247 92 q 93 303 125 218 q 61 486 61 389 q 99 687 61 596 q 203 844 136 778 q 358 946 269 910 q 547 982 446 982 q 738 946 650 982 q 894 844 826 910 q 999 687 961 778 q 1036 486 1036 596 q 1004 303 1036 389 q 911 155 972 218 q 761 60 850 92 l 742 78 l 1014 78 l 1014 0 l 632 0 l 632 82 q 790 153 721 100 q 898 290 858 206 q 938 482 938 374 q 885 700 938 607 q 745 844 833 793 q 547 894 657 894 q 348 842 436 894 q 209 698 260 790 q 158 482 158 606 q 199 290 160 374 q 307 153 238 206 q 464 82 376 100 l 464 0 l 81 0 z "},"∆":{"ha":925,"x_min":28,"x_max":897,"o":"m 421 958 l 503 958 l 897 76 l 897 0 l 28 0 l 28 76 l 421 958 m 461 847 l 126 76 l 799 76 l 461 847 z "},"∏":{"ha":1022,"x_min":65,"x_max":957,"o":"m 65 972 l 957 972 l 957 894 l 844 894 l 844 0 l 747 0 l 747 894 l 275 894 l 275 0 l 178 0 l 178 894 l 65 894 l 65 972 z "},"∑":{"ha":606,"x_min":56,"x_max":582,"o":"m 56 958 l 582 958 l 582 882 l 121 882 l 115 906 l 511 472 l 511 394 l 115 -43 l 111 -19 l 582 -19 l 582 -96 l 56 -96 l 56 15 l 425 431 l 56 847 l 56 958 z "},"√":{"ha":1042,"x_min":25,"x_max":1019,"o":"m 946 1193 l 1019 1193 l 351 -61 l 304 -61 l 140 226 l 56 178 l 25 232 l 192 328 l 360 32 l 333 40 l 946 1193 z "},"µ":{"ha":886,"x_min":111,"x_max":775,"o":"m 775 0 l 678 0 l 678 758 l 775 758 l 775 0 m 700 256 q 650 106 690 165 q 549 19 610 47 q 418 -10 489 -10 q 287 24 350 -10 q 196 144 224 57 l 207 147 l 207 -358 l 111 -358 l 111 758 l 207 758 l 207 354 q 273 144 207 213 q 444 75 339 75 q 613 142 547 75 q 678 349 678 210 l 700 256 z "},"∂":{"ha":776,"x_min":56,"x_max":721,"o":"m 317 -10 q 186 24 246 -10 q 91 126 126 57 q 56 303 56 196 q 82 478 56 394 q 156 626 108 561 q 272 730 204 692 q 424 768 340 768 q 565 717 519 768 q 629 578 611 667 l 622 578 q 603 770 622 682 q 533 913 583 858 q 393 967 483 967 q 339 962 367 967 q 279 949 311 957 l 279 1010 q 344 1024 314 1019 q 406 1028 375 1028 q 576 976 506 1028 q 683 824 646 925 q 721 575 721 724 q 690 331 721 439 q 605 147 660 222 q 476 31 550 71 q 317 -10 403 -10 m 326 74 q 473 126 410 74 q 571 267 536 179 q 606 456 606 354 q 558 629 606 572 q 428 686 510 686 q 287 636 349 686 q 190 499 225 586 q 154 303 154 413 q 204 128 154 183 q 326 74 254 74 z "},"%":{"ha":1008,"x_min":60,"x_max":949,"o":"m 169 0 l 740 958 l 838 958 l 268 0 l 169 0 m 254 569 q 115 624 171 569 q 60 769 60 678 q 115 914 60 860 q 254 968 171 968 q 394 914 339 968 q 450 769 450 860 q 394 624 450 678 q 254 569 339 569 m 254 632 q 339 668 307 632 q 371 769 371 704 q 339 870 371 835 q 254 906 307 906 q 171 870 203 906 q 139 769 139 835 q 171 668 139 704 q 254 632 203 632 m 754 -10 q 615 44 671 -10 q 560 190 560 99 q 615 336 560 282 q 754 390 671 390 q 893 336 838 390 q 949 190 949 282 q 893 44 949 99 q 754 -10 838 -10 m 754 54 q 838 90 807 54 q 869 190 869 125 q 838 291 869 256 q 754 326 807 326 q 670 291 703 326 q 638 190 638 256 q 670 90 638 125 q 754 54 703 54 z "},"‰":{"ha":1324,"x_min":57,"x_max":1267,"o":"m 106 0 l 675 958 l 772 958 l 201 0 l 106 0 m 626 -10 q 488 44 543 -10 q 432 188 432 99 q 488 331 432 278 q 626 385 543 385 q 765 331 710 385 q 821 188 821 278 q 765 44 821 99 q 626 -10 710 -10 m 626 54 q 710 89 679 54 q 742 188 742 124 q 710 288 742 253 q 626 322 679 322 q 542 288 575 322 q 510 188 510 253 q 542 89 510 124 q 626 54 575 54 m 251 574 q 112 628 167 574 q 57 772 57 682 q 112 915 57 861 q 251 968 167 968 q 390 915 335 968 q 446 772 446 861 q 390 628 446 682 q 251 574 335 574 m 251 636 q 335 672 304 636 q 367 772 367 708 q 335 871 367 836 q 251 906 304 906 q 167 871 200 906 q 135 772 135 836 q 167 672 135 708 q 251 636 200 636 m 1072 -10 q 933 44 989 -10 q 878 188 878 99 q 933 331 878 278 q 1072 385 989 385 q 1212 331 1157 385 q 1267 188 1267 278 q 1212 44 1267 99 q 1072 -10 1157 -10 m 1072 54 q 1157 89 1125 54 q 1189 188 1189 124 q 1157 288 1189 253 q 1072 322 1125 322 q 989 288 1021 322 q 957 188 957 253 q 989 89 957 124 q 1072 54 1021 54 z "},"◌":{"ha":833,"x_min":38,"x_max":803,"o":"m 682 510 q 639 526 656 510 q 622 568 622 542 q 639 610 622 594 q 682 626 656 626 q 725 610 708 626 q 742 568 742 594 q 725 526 742 542 q 682 510 708 510 m 160 113 q 117 128 133 113 q 100 171 100 144 q 117 213 100 197 q 160 229 133 229 q 203 213 186 229 q 219 171 219 197 q 203 128 219 144 q 160 113 186 113 m 296 7 q 253 23 269 7 q 236 65 236 39 q 253 108 236 92 q 296 124 269 124 q 339 108 322 124 q 356 65 356 92 q 339 23 356 39 q 296 7 322 7 m 97 269 q 54 285 71 269 q 38 328 38 301 q 54 370 38 354 q 97 386 71 386 q 140 370 124 386 q 157 328 157 354 q 140 285 157 301 q 97 269 124 269 m 468 -12 q 425 3 442 -12 q 408 46 408 19 q 425 88 408 72 q 468 104 442 104 q 511 88 494 104 q 528 46 528 72 q 511 3 528 19 q 468 -12 494 -12 m 118 438 q 75 453 92 438 q 58 496 58 469 q 75 538 58 522 q 118 554 92 554 q 161 538 144 554 q 178 496 178 522 q 161 453 178 469 q 118 438 144 438 m 628 51 q 585 67 601 51 q 568 110 568 83 q 585 152 568 136 q 628 168 601 168 q 671 152 654 168 q 688 110 688 136 q 671 67 688 83 q 628 51 654 51 m 224 575 q 181 591 197 575 q 164 633 164 607 q 181 676 164 660 q 224 692 197 692 q 267 676 250 692 q 283 633 283 660 q 267 591 283 607 q 224 575 250 575 m 729 185 q 686 201 703 185 q 669 243 669 217 q 686 285 669 269 q 729 301 703 301 q 772 285 756 301 q 789 243 789 269 q 772 201 789 217 q 729 185 756 185 m 386 633 q 343 649 360 633 q 326 692 326 665 q 343 734 326 718 q 386 750 360 750 q 429 734 413 750 q 446 692 446 718 q 429 649 446 665 q 386 633 413 633 m 743 351 q 700 367 717 351 q 683 410 683 383 q 700 452 683 436 q 743 468 717 468 q 786 452 769 468 q 803 410 803 436 q 786 367 803 383 q 743 351 769 351 m 554 613 q 511 628 528 613 q 494 671 494 644 q 511 713 494 697 q 554 729 528 729 q 597 713 581 729 q 614 671 614 697 q 597 628 614 644 q 554 613 581 613 z "},"◊":{"ha":765,"x_min":56,"x_max":710,"o":"m 383 813 l 710 485 l 382 157 l 56 485 l 383 813 m 383 707 l 163 485 l 382 263 l 604 485 l 383 707 z "},"̈":{"ha":0,"x_min":49,"x_max":389,"o":"m 113 865 q 67 884 86 865 q 49 929 49 903 q 67 974 49 956 q 113 993 86 993 q 158 974 139 993 q 176 929 176 956 q 158 884 176 903 q 113 865 139 865 m 326 865 q 281 884 300 865 q 263 929 263 903 q 281 974 263 956 q 326 993 300 993 q 371 974 353 993 q 389 929 389 956 q 371 884 389 903 q 326 865 353 865 z "},"̇":{"ha":0,"x_min":103,"x_max":231,"o":"m 103 978 q 122 1023 103 1004 q 167 1042 140 1042 q 212 1023 193 1042 q 231 978 231 1004 q 212 933 231 951 q 167 914 193 914 q 122 933 140 914 q 103 978 103 951 z "},"̀":{"ha":0,"x_min":33,"x_max":318,"o":"m 33 1069 l 318 892 l 318 817 l 33 982 l 33 1069 z "},"́":{"ha":0,"x_min":33,"x_max":318,"o":"m 318 1069 l 318 982 l 33 817 l 33 892 l 318 1069 z "},"̋":{"ha":0,"x_min":33,"x_max":408,"o":"m 211 1028 l 101 835 l 33 835 l 124 1028 l 211 1028 m 408 1028 l 292 835 l 225 835 l 321 1028 l 408 1028 z "},"̂":{"ha":0,"x_min":33,"x_max":406,"o":"m 406 839 l 219 956 l 33 839 l 33 918 l 219 1032 l 406 918 l 406 839 z "},"̌":{"ha":0,"x_min":33,"x_max":406,"o":"m 406 1029 l 406 951 l 219 838 l 33 951 l 33 1029 l 219 914 l 406 1029 z "},"̆":{"ha":0,"x_min":33,"x_max":410,"o":"m 221 842 q 81 892 128 842 q 33 1013 33 943 l 33 1031 l 94 1031 q 124 949 94 978 q 221 919 154 919 q 317 949 288 919 q 347 1031 347 978 l 410 1031 l 410 1013 q 363 892 410 943 q 221 842 315 842 z "},"̊":{"ha":0,"x_min":31,"x_max":314,"o":"m 314 986 q 273 885 314 922 q 172 847 232 847 q 73 885 115 847 q 31 986 31 922 q 73 1088 31 1051 q 172 1125 115 1125 q 273 1088 232 1125 q 314 986 314 1051 m 254 986 q 231 1049 254 1026 q 172 1071 207 1071 q 115 1049 139 1071 q 92 986 92 1026 q 115 924 92 947 q 172 901 139 901 q 231 924 207 901 q 254 986 254 947 z "},"̃":{"ha":0,"x_min":33,"x_max":431,"o":"m 307 839 q 247 856 271 839 q 201 888 222 872 q 151 904 181 904 q 113 889 129 904 q 93 842 97 874 l 33 842 q 74 938 42 906 q 156 971 107 971 q 215 955 192 971 q 260 922 239 939 q 311 906 282 906 q 351 922 335 906 q 372 968 368 938 l 431 968 q 390 873 425 907 q 307 839 356 839 z "},"̄":{"ha":0,"x_min":33,"x_max":504,"o":"m 33 972 l 504 972 l 504 897 l 33 897 l 33 972 z "},"̦":{"ha":0,"x_min":14,"x_max":167,"o":"m 14 -314 l 14 -258 q 60 -251 39 -260 q 96 -225 82 -242 q 113 -189 110 -208 q 97 -197 106 -194 q 79 -199 88 -199 q 34 -184 53 -199 q 15 -139 15 -169 q 37 -90 15 -110 q 89 -71 58 -71 q 130 -85 113 -71 q 157 -120 147 -99 q 167 -164 167 -142 q 145 -246 167 -211 q 89 -299 124 -281 q 14 -314 54 -317 z "},"̧":{"ha":0,"x_min":33,"x_max":335,"o":"m 157 -93 q 251 -106 211 -92 q 313 -150 292 -121 q 335 -222 335 -179 q 315 -294 335 -264 q 258 -342 294 -325 q 172 -358 221 -358 l 33 -358 l 33 -293 l 153 -293 q 229 -275 206 -293 q 253 -222 253 -257 q 229 -173 253 -190 q 153 -156 206 -156 l 89 -156 l 89 10 l 157 10 l 157 -93 z "},"̨":{"ha":0,"x_min":40,"x_max":297,"o":"m 267 53 l 293 0 l 210 -40 q 142 -89 161 -64 q 122 -142 122 -114 q 146 -194 122 -176 q 208 -212 169 -212 q 297 -193 250 -212 l 297 -261 q 249 -274 275 -269 q 197 -279 222 -279 q 122 -267 158 -279 q 63 -226 86 -254 q 40 -151 40 -197 q 55 -90 40 -119 q 103 -34 69 -61 q 190 18 136 -7 l 267 53 z "},"¨":{"ha":438,"x_min":49,"x_max":389,"o":"m 113 865 q 67 884 86 865 q 49 929 49 903 q 67 974 49 956 q 113 993 86 993 q 158 974 139 993 q 176 929 176 956 q 158 884 176 903 q 113 865 139 865 m 326 865 q 281 884 300 865 q 263 929 263 903 q 281 974 263 956 q 326 993 300 993 q 371 974 353 993 q 389 929 389 956 q 371 884 389 903 q 326 865 353 865 z "},"˙":{"ha":204,"x_min":38,"x_max":165,"o":"m 101 1022 q 56 1041 75 1022 q 38 1086 38 1060 q 56 1131 38 1113 q 101 1150 75 1150 q 147 1131 128 1150 q 165 1086 165 1113 q 147 1041 165 1060 q 101 1022 128 1022 z "},"`":{"ha":361,"x_min":33,"x_max":318,"o":"m 33 1069 l 318 892 l 318 817 l 33 982 l 33 1069 z "},"´":{"ha":351,"x_min":33,"x_max":318,"o":"m 318 1069 l 318 982 l 33 817 l 33 892 l 318 1069 z "},"˝":{"ha":451,"x_min":33,"x_max":408,"o":"m 211 1028 l 101 835 l 33 835 l 124 1028 l 211 1028 m 408 1028 l 292 835 l 225 835 l 321 1028 l 408 1028 z "},"ˆ":{"ha":439,"x_min":33,"x_max":406,"o":"m 406 997 l 219 1114 l 33 997 l 33 1076 l 219 1190 l 406 1076 l 406 997 z "},"ˇ":{"ha":439,"x_min":33,"x_max":406,"o":"m 406 1029 l 406 951 l 219 838 l 33 951 l 33 1029 l 219 914 l 406 1029 z "},"˘":{"ha":443,"x_min":33,"x_max":410,"o":"m 221 1042 q 81 1092 128 1042 q 33 1213 33 1143 l 33 1231 l 94 1231 q 124 1149 94 1178 q 221 1119 154 1119 q 317 1149 288 1119 q 347 1231 347 1178 l 410 1231 l 410 1213 q 363 1092 410 1143 q 221 1042 315 1042 z "},"˚":{"ha":344,"x_min":31,"x_max":314,"o":"m 314 986 q 273 885 314 922 q 172 847 232 847 q 73 885 115 847 q 31 986 31 922 q 73 1088 31 1051 q 172 1125 115 1125 q 273 1088 232 1125 q 314 986 314 1051 m 254 986 q 231 1049 254 1026 q 172 1071 207 1071 q 115 1049 139 1071 q 92 986 92 1026 q 115 924 92 947 q 172 901 139 901 q 231 924 207 901 q 254 986 254 947 z "},"˜":{"ha":464,"x_min":33,"x_max":431,"o":"m 307 839 q 247 856 271 839 q 201 888 222 872 q 151 904 181 904 q 113 889 129 904 q 93 842 97 874 l 33 842 q 74 938 42 906 q 156 971 107 971 q 215 955 192 971 q 260 922 239 939 q 311 906 282 906 q 351 922 335 906 q 372 968 368 938 l 431 968 q 390 873 425 907 q 307 839 356 839 z "},"¯":{"ha":538,"x_min":33,"x_max":504,"o":"m 33 972 l 504 972 l 504 897 l 33 897 l 33 972 z "},"¸":{"ha":368,"x_min":33,"x_max":335,"o":"m 157 -93 q 251 -106 211 -92 q 313 -150 292 -121 q 335 -222 335 -179 q 315 -294 335 -264 q 258 -342 294 -325 q 172 -358 221 -358 l 33 -358 l 33 -293 l 153 -293 q 229 -275 206 -293 q 253 -222 253 -257 q 229 -173 253 -190 q 153 -156 206 -156 l 89 -156 l 89 10 l 157 10 l 157 -93 z "},"˛":{"ha":344,"x_min":40,"x_max":297,"o":"m 267 53 l 293 0 l 210 -40 q 142 -89 161 -64 q 122 -142 122 -114 q 146 -194 122 -176 q 208 -212 169 -212 q 297 -193 250 -212 l 297 -261 q 249 -274 275 -269 q 197 -279 222 -279 q 122 -267 158 -279 q 63 -226 86 -254 q 40 -151 40 -197 q 55 -90 40 -119 q 103 -34 69 -61 q 190 18 136 -7 l 267 53 z "},"⁄":{"ha":568,"x_min":-40,"x_max":629,"o":"m 529 958 l 629 958 l 58 0 l -40 0 l 529 958 z "},"½":{"ha":903,"x_min":53,"x_max":832,"o":"m 572 958 l 665 958 l 165 0 l 72 0 l 572 958 m 174 469 l 174 881 q 124 822 161 846 q 53 797 86 797 l 53 876 q 128 899 93 876 q 174 958 163 922 l 253 958 l 253 469 l 174 469 m 660 475 q 747 456 710 475 q 803 403 783 436 q 824 328 824 369 q 791 226 824 269 q 696 133 758 182 l 581 44 l 832 44 l 832 -21 l 489 -21 l 489 35 l 643 167 q 712 238 683 201 q 740 325 740 275 q 716 392 740 369 q 657 414 692 414 q 592 382 618 414 q 564 313 567 350 l 488 326 q 510 397 490 363 q 568 453 531 431 q 660 475 606 475 z "},"¼":{"ha":836,"x_min":57,"x_max":789,"o":"m 593 958 l 685 958 l 176 0 l 83 0 l 593 958 m 789 153 l 789 99 l 719 99 l 719 0 l 640 0 l 640 99 l 392 99 l 392 147 l 618 492 l 719 492 l 719 153 l 789 153 m 642 153 l 642 411 l 472 153 l 642 153 m 178 469 l 178 881 q 128 822 165 846 q 57 797 90 797 l 57 876 q 132 899 97 876 q 178 958 167 922 l 257 958 l 257 469 l 178 469 z "},"¾":{"ha":944,"x_min":53,"x_max":906,"o":"m 726 958 l 818 958 l 294 0 l 203 0 l 726 958 m 906 153 l 906 99 l 836 99 l 836 0 l 757 0 l 757 99 l 508 99 l 508 147 l 735 492 l 836 492 l 836 153 l 906 153 m 760 153 l 760 411 l 590 153 l 760 153 m 224 463 q 156 473 185 463 q 106 501 126 483 q 72 542 85 518 q 53 590 60 565 l 119 610 q 156 547 126 571 q 224 524 185 524 q 294 545 268 524 q 321 604 321 567 q 292 665 321 644 q 219 686 264 686 l 153 686 l 153 740 l 219 740 q 290 762 263 740 q 318 822 318 783 q 292 881 318 858 q 224 903 267 903 q 159 884 181 903 q 124 833 138 865 l 60 861 q 95 917 72 894 q 152 953 118 940 q 229 965 186 965 q 317 947 278 965 q 378 897 356 929 q 401 825 401 865 q 377 753 401 782 q 313 714 353 725 l 313 711 q 378 671 351 700 q 404 596 404 642 q 356 503 404 543 q 224 463 308 463 z "},"¹":{"ha":300,"x_min":40,"x_max":240,"o":"m 161 469 l 161 881 q 111 822 149 846 q 40 797 74 797 l 40 876 q 115 899 81 876 q 161 958 150 922 l 240 958 l 240 469 l 161 469 z "},"²":{"ha":447,"x_min":46,"x_max":390,"o":"m 218 965 q 305 946 268 965 q 362 893 342 926 q 382 818 382 860 q 349 716 382 760 q 254 624 317 672 l 139 535 l 390 535 l 390 469 l 47 469 l 47 525 l 201 657 q 270 728 242 692 q 299 815 299 765 q 274 882 299 860 q 215 904 250 904 q 151 872 176 904 q 122 803 125 840 l 46 817 q 69 887 49 853 q 126 943 89 921 q 218 965 163 965 z "},"³":{"ha":440,"x_min":39,"x_max":390,"o":"m 210 463 q 142 473 171 463 q 92 501 113 483 q 58 542 71 518 q 39 590 46 565 l 106 610 q 142 547 113 571 q 210 524 171 524 q 281 545 254 524 q 307 604 307 567 q 278 665 307 644 q 206 686 250 686 l 139 686 l 139 740 l 206 740 q 276 762 249 740 q 304 822 304 783 q 278 881 304 858 q 210 903 253 903 q 145 884 167 903 q 110 833 124 865 l 46 861 q 81 917 58 894 q 138 953 104 940 q 215 965 172 965 q 303 947 264 965 q 365 897 342 929 q 388 825 388 865 q 363 753 388 782 q 299 714 339 725 l 299 711 q 364 671 338 700 q 390 596 390 642 q 342 503 390 543 q 210 463 294 463 z "}}}
